M48
;Layer_Color=9474304
;FILE_FORMAT=4:3
METRIC,LZ
;TYPE=PLATED
T01F00S00C0.711
T02F00S00C0.787
T03F00S00C0.800
T05F00S00C1.020
T06F00S00C1.143
T08F00S00C1.500
T09F00S00C3.000
%
T01
X0097813Y0039812
X0102512
X0102258Y0047305
X0102512Y0052258
X01081Y0054798
Y0057465
Y0049591
Y0042225
X0092987Y0058354
X0083335
X0086129Y0066609
X0085367Y0071816
X0090574
X0106957Y0077404
X0073556Y0084135
X0083462
X00954
X0114704Y0080452
X0114688Y0098629
X011699Y0097216
X0120812Y008402
X0128322Y0084545
X0135659Y0086294
Y0088326
X0145692Y0087818
Y0089596
Y0091374
X0145721Y0098515
X0142136Y0105598
X0154074Y0103566
Y0101534
X0157271
X0157249Y0103566
X0157376Y0098486
X0154709Y0095692
X0156233Y0117155
X0147089Y0079944
T02
X0081557Y0065212
Y0067752
X0089177
Y0065212
X0123772Y0109484
X0123848Y0114361
X0130223Y0114259
X0130071Y0109408
X0148232Y0109535
X0148308Y0114412
X0154684Y011431
X0154531Y0109459
T03
X0119149Y008731
X0121689
Y0092771
X0119149
T05
X0160043Y0083246
Y0085786
Y0098486
Y0101026
Y0103566
Y0106106
T06
X0082192Y0041082
X0094384
Y0053274
X0088288Y0055814
X0082192Y0053274
T08
X00827Y0030922
X008778
X0077747Y0098105
Y0103185
T09
X007254Y0025715
X0164361
X007254Y0117536
X0164361Y0117409
M30
