G04*
G04 #@! TF.GenerationSoftware,Altium Limited,Altium Designer,24.1.2 (44)*
G04*
G04 Layer_Color=32896*
%FSLAX43Y43*%
%MOMM*%
G71*
G04*
G04 #@! TF.SameCoordinates,54BEDA40-E342-42F5-ADC8-61CD6FAB378A*
G04*
G04*
G04 #@! TF.FilePolarity,Positive*
G04*
G01*
G75*
%ADD14C,0.250*%
%ADD90C,0.025*%
G36*
X35500Y76541D02*
X15024D01*
Y82200D01*
X35500D01*
Y76541D01*
D02*
G37*
%LPC*%
G36*
X18181Y80176D02*
X17922D01*
Y79606D01*
X17396Y80176D01*
X17048D01*
X17533Y79676D01*
X17024Y78895D01*
X17359D01*
X17713Y79496D01*
X17922Y79282D01*
Y78895D01*
X18181D01*
Y80176D01*
D02*
G37*
G36*
X18922Y80200D02*
X18900D01*
X18883Y80198D01*
X18863Y80196D01*
X18840Y80193D01*
X18814Y80189D01*
X18787Y80183D01*
X18757Y80176D01*
X18726Y80167D01*
X18694Y80156D01*
X18661Y80141D01*
X18629Y80126D01*
X18600Y80107D01*
X18568Y80085D01*
X18540Y80061D01*
X18539D01*
X18537Y80057D01*
X18531Y80052D01*
X18526Y80046D01*
X18518Y80037D01*
X18511Y80026D01*
X18490Y80000D01*
X18470Y79967D01*
X18448Y79926D01*
X18427Y79880D01*
X18409Y79826D01*
X18664Y79765D01*
Y79767D01*
X18666Y79769D01*
Y79774D01*
X18670Y79782D01*
X18676Y79798D01*
X18685Y79820D01*
X18698Y79846D01*
X18714Y79872D01*
X18737Y79898D01*
X18761Y79920D01*
X18764Y79922D01*
X18774Y79930D01*
X18789Y79939D01*
X18809Y79950D01*
X18835Y79961D01*
X18864Y79970D01*
X18898Y79978D01*
X18935Y79980D01*
X18948D01*
X18959Y79978D01*
X18970Y79976D01*
X18985Y79974D01*
X19016Y79967D01*
X19053Y79954D01*
X19092Y79935D01*
X19113Y79924D01*
X19131Y79911D01*
X19150Y79894D01*
X19166Y79876D01*
Y79874D01*
X19170Y79870D01*
X19174Y79865D01*
X19179Y79856D01*
X19187Y79844D01*
X19194Y79832D01*
X19201Y79815D01*
X19209Y79796D01*
X19218Y79774D01*
X19226Y79750D01*
X19233Y79722D01*
X19240Y79693D01*
X19246Y79659D01*
X19250Y79624D01*
X19251Y79585D01*
X19253Y79543D01*
Y79541D01*
Y79532D01*
Y79519D01*
X19251Y79504D01*
Y79483D01*
X19248Y79459D01*
X19246Y79435D01*
X19242Y79407D01*
X19231Y79350D01*
X19216Y79293D01*
X19207Y79265D01*
X19194Y79239D01*
X19181Y79215D01*
X19166Y79195D01*
X19164Y79193D01*
X19163Y79191D01*
X19157Y79185D01*
X19150Y79178D01*
X19131Y79163D01*
X19105Y79145D01*
X19074Y79124D01*
X19035Y79109D01*
X18990Y79096D01*
X18966Y79095D01*
X18940Y79093D01*
X18931D01*
X18924Y79095D01*
X18903Y79096D01*
X18879Y79100D01*
X18853Y79109D01*
X18824Y79120D01*
X18794Y79135D01*
X18764Y79158D01*
X18761Y79161D01*
X18752Y79170D01*
X18739Y79185D01*
X18724Y79208D01*
X18705Y79237D01*
X18689Y79272D01*
X18672Y79315D01*
X18657Y79365D01*
X18405Y79287D01*
Y79285D01*
X18407Y79278D01*
X18411Y79267D01*
X18416Y79252D01*
X18424Y79235D01*
X18431Y79215D01*
X18440Y79193D01*
X18452Y79169D01*
X18477Y79119D01*
X18511Y79067D01*
X18552Y79017D01*
X18574Y78995D01*
X18598Y78974D01*
X18600Y78972D01*
X18603Y78970D01*
X18611Y78965D01*
X18622Y78958D01*
X18635Y78950D01*
X18652Y78943D01*
X18670Y78933D01*
X18690Y78924D01*
X18714Y78913D01*
X18740Y78904D01*
X18768Y78896D01*
X18798Y78889D01*
X18829Y78882D01*
X18864Y78876D01*
X18900Y78874D01*
X18939Y78872D01*
X18950D01*
X18963Y78874D01*
X18981Y78876D01*
X19001Y78878D01*
X19027Y78882D01*
X19055Y78887D01*
X19087Y78895D01*
X19118Y78904D01*
X19151Y78915D01*
X19187Y78930D01*
X19222Y78946D01*
X19257Y78965D01*
X19292Y78989D01*
X19326Y79015D01*
X19357Y79046D01*
X19359Y79048D01*
X19364Y79054D01*
X19372Y79065D01*
X19383Y79078D01*
X19394Y79096D01*
X19409Y79117D01*
X19424Y79143D01*
X19438Y79172D01*
X19453Y79204D01*
X19468Y79239D01*
X19483Y79280D01*
X19494Y79322D01*
X19505Y79367D01*
X19513Y79417D01*
X19518Y79469D01*
X19520Y79524D01*
Y79539D01*
X19518Y79556D01*
Y79578D01*
X19514Y79604D01*
X19511Y79635D01*
X19507Y79669D01*
X19500Y79707D01*
X19490Y79746D01*
X19479Y79787D01*
X19466Y79828D01*
X19450Y79870D01*
X19431Y79911D01*
X19409Y79950D01*
X19385Y79987D01*
X19355Y80022D01*
X19353Y80024D01*
X19348Y80030D01*
X19338Y80039D01*
X19326Y80050D01*
X19309Y80063D01*
X19289Y80078D01*
X19266Y80094D01*
X19239Y80111D01*
X19209Y80128D01*
X19177Y80144D01*
X19140Y80159D01*
X19103Y80172D01*
X19061Y80183D01*
X19018Y80193D01*
X18970Y80198D01*
X18922Y80200D01*
D02*
G37*
G36*
X33500Y80176D02*
X32922D01*
X32906Y80174D01*
X32885D01*
X32865Y80172D01*
X32841D01*
X32793Y80167D01*
X32743Y80161D01*
X32696Y80152D01*
X32676Y80146D01*
X32657Y80141D01*
X32656D01*
X32654Y80139D01*
X32643Y80133D01*
X32626Y80124D01*
X32604Y80113D01*
X32580Y80094D01*
X32556Y80074D01*
X32532Y80048D01*
X32509Y80017D01*
Y80015D01*
X32508Y80013D01*
X32504Y80007D01*
X32500Y80002D01*
X32491Y79983D01*
X32480Y79959D01*
X32470Y79930D01*
X32461Y79896D01*
X32454Y79857D01*
X32452Y79817D01*
Y79815D01*
Y79811D01*
Y79802D01*
X32454Y79793D01*
Y79780D01*
X32456Y79767D01*
X32463Y79733D01*
X32472Y79695D01*
X32487Y79656D01*
X32509Y79615D01*
X32522Y79596D01*
X32537Y79578D01*
X32539Y79576D01*
X32541Y79574D01*
X32546Y79569D01*
X32554Y79563D01*
X32561Y79556D01*
X32572Y79546D01*
X32585Y79537D01*
X32600Y79528D01*
X32617Y79517D01*
X32637Y79507D01*
X32657Y79498D01*
X32680Y79489D01*
X32706Y79480D01*
X32732Y79472D01*
X32759Y79465D01*
X32791Y79459D01*
X32789D01*
X32787Y79457D01*
X32776Y79450D01*
X32761Y79441D01*
X32743Y79428D01*
X32720Y79411D01*
X32698Y79395D01*
X32674Y79374D01*
X32654Y79352D01*
X32652Y79350D01*
X32643Y79341D01*
X32632Y79326D01*
X32615Y79304D01*
X32593Y79276D01*
X32582Y79257D01*
X32569Y79239D01*
X32554Y79219D01*
X32539Y79196D01*
X32522Y79170D01*
X32506Y79145D01*
X32348Y78895D01*
X32659D01*
X32845Y79172D01*
X32846Y79174D01*
X32848Y79180D01*
X32854Y79187D01*
X32861Y79196D01*
X32869Y79208D01*
X32878Y79222D01*
X32898Y79252D01*
X32922Y79285D01*
X32944Y79315D01*
X32965Y79343D01*
X32974Y79352D01*
X32982Y79361D01*
X32983Y79363D01*
X32987Y79367D01*
X32994Y79374D01*
X33004Y79383D01*
X33017Y79391D01*
X33030Y79400D01*
X33044Y79407D01*
X33059Y79415D01*
X33061D01*
X33067Y79417D01*
X33076Y79420D01*
X33091Y79422D01*
X33109Y79426D01*
X33132Y79428D01*
X33157Y79430D01*
X33241D01*
Y78895D01*
X33500D01*
Y80176D01*
D02*
G37*
G36*
X32208D02*
X31328D01*
Y79959D01*
X31948D01*
Y79656D01*
X31413D01*
Y79439D01*
X31948D01*
Y78895D01*
X32208D01*
Y80176D01*
D02*
G37*
G36*
X31122D02*
X30863D01*
Y78895D01*
X31122D01*
Y80176D01*
D02*
G37*
G36*
X30615D02*
X30104D01*
X30089Y80174D01*
X30054Y80172D01*
X30015Y80170D01*
X29974Y80165D01*
X29936Y80159D01*
X29900Y80150D01*
X29899D01*
X29895Y80148D01*
X29889Y80146D01*
X29882Y80144D01*
X29860Y80135D01*
X29834Y80122D01*
X29804Y80106D01*
X29771Y80085D01*
X29739Y80061D01*
X29708Y80032D01*
X29706D01*
X29704Y80028D01*
X29695Y80017D01*
X29680Y79998D01*
X29663Y79974D01*
X29643Y79944D01*
X29623Y79909D01*
X29602Y79869D01*
X29586Y79824D01*
Y79822D01*
X29584Y79819D01*
X29582Y79811D01*
X29578Y79802D01*
X29576Y79791D01*
X29573Y79776D01*
X29569Y79759D01*
X29563Y79741D01*
X29560Y79720D01*
X29556Y79696D01*
X29552Y79672D01*
X29550Y79645D01*
X29545Y79587D01*
X29543Y79522D01*
Y79496D01*
X29545Y79482D01*
Y79467D01*
X29547Y79448D01*
X29549Y79428D01*
X29552Y79385D01*
X29560Y79341D01*
X29571Y79295D01*
X29584Y79250D01*
Y79248D01*
X29586Y79245D01*
X29589Y79237D01*
X29593Y79226D01*
X29597Y79215D01*
X29604Y79202D01*
X29619Y79169D01*
X29637Y79133D01*
X29662Y79095D01*
X29689Y79058D01*
X29721Y79022D01*
X29724Y79019D01*
X29734Y79011D01*
X29749Y79000D01*
X29769Y78985D01*
X29795Y78969D01*
X29824Y78952D01*
X29861Y78935D01*
X29902Y78921D01*
X29904D01*
X29906Y78919D01*
X29911D01*
X29917Y78917D01*
X29937Y78913D01*
X29963Y78908D01*
X29995Y78902D01*
X30034Y78898D01*
X30080Y78896D01*
X30130Y78895D01*
X30615D01*
Y80176D01*
D02*
G37*
G36*
X28326D02*
X27815D01*
X27801Y80174D01*
X27765Y80172D01*
X27727Y80170D01*
X27686Y80165D01*
X27647Y80159D01*
X27612Y80150D01*
X27610D01*
X27606Y80148D01*
X27601Y80146D01*
X27593Y80144D01*
X27571Y80135D01*
X27545Y80122D01*
X27515Y80106D01*
X27482Y80085D01*
X27451Y80061D01*
X27419Y80032D01*
X27417D01*
X27415Y80028D01*
X27406Y80017D01*
X27391Y79998D01*
X27375Y79974D01*
X27354Y79944D01*
X27334Y79909D01*
X27314Y79869D01*
X27297Y79824D01*
Y79822D01*
X27295Y79819D01*
X27293Y79811D01*
X27290Y79802D01*
X27288Y79791D01*
X27284Y79776D01*
X27280Y79759D01*
X27275Y79741D01*
X27271Y79720D01*
X27267Y79696D01*
X27264Y79672D01*
X27262Y79645D01*
X27256Y79587D01*
X27254Y79522D01*
Y79496D01*
X27256Y79482D01*
Y79467D01*
X27258Y79448D01*
X27260Y79428D01*
X27264Y79385D01*
X27271Y79341D01*
X27282Y79295D01*
X27295Y79250D01*
Y79248D01*
X27297Y79245D01*
X27301Y79237D01*
X27304Y79226D01*
X27308Y79215D01*
X27315Y79202D01*
X27330Y79169D01*
X27349Y79133D01*
X27373Y79095D01*
X27401Y79058D01*
X27432Y79022D01*
X27436Y79019D01*
X27445Y79011D01*
X27460Y79000D01*
X27480Y78985D01*
X27506Y78969D01*
X27536Y78952D01*
X27573Y78935D01*
X27614Y78921D01*
X27615D01*
X27617Y78919D01*
X27623D01*
X27628Y78917D01*
X27649Y78913D01*
X27675Y78908D01*
X27706Y78902D01*
X27745Y78898D01*
X27791Y78896D01*
X27841Y78895D01*
X28326D01*
Y80176D01*
D02*
G37*
G36*
X24249D02*
X23671D01*
X23655Y80174D01*
X23634D01*
X23614Y80172D01*
X23590D01*
X23542Y80167D01*
X23492Y80161D01*
X23445Y80152D01*
X23425Y80146D01*
X23407Y80141D01*
X23405D01*
X23403Y80139D01*
X23392Y80133D01*
X23375Y80124D01*
X23353Y80113D01*
X23329Y80094D01*
X23305Y80074D01*
X23281Y80048D01*
X23258Y80017D01*
Y80015D01*
X23257Y80013D01*
X23253Y80007D01*
X23249Y80002D01*
X23240Y79983D01*
X23229Y79959D01*
X23220Y79930D01*
X23210Y79896D01*
X23203Y79857D01*
X23201Y79817D01*
Y79815D01*
Y79811D01*
Y79802D01*
X23203Y79793D01*
Y79780D01*
X23205Y79767D01*
X23212Y79733D01*
X23221Y79695D01*
X23236Y79656D01*
X23258Y79615D01*
X23271Y79596D01*
X23286Y79578D01*
X23288Y79576D01*
X23290Y79574D01*
X23295Y79569D01*
X23303Y79563D01*
X23310Y79556D01*
X23321Y79546D01*
X23334Y79537D01*
X23349Y79528D01*
X23366Y79517D01*
X23386Y79507D01*
X23407Y79498D01*
X23429Y79489D01*
X23455Y79480D01*
X23481Y79472D01*
X23508Y79465D01*
X23540Y79459D01*
X23538D01*
X23536Y79457D01*
X23525Y79450D01*
X23510Y79441D01*
X23492Y79428D01*
X23470Y79411D01*
X23447Y79395D01*
X23423Y79374D01*
X23403Y79352D01*
X23401Y79350D01*
X23392Y79341D01*
X23381Y79326D01*
X23364Y79304D01*
X23342Y79276D01*
X23331Y79257D01*
X23318Y79239D01*
X23303Y79219D01*
X23288Y79196D01*
X23271Y79170D01*
X23255Y79145D01*
X23097Y78895D01*
X23408D01*
X23594Y79172D01*
X23595Y79174D01*
X23597Y79180D01*
X23603Y79187D01*
X23610Y79196D01*
X23618Y79208D01*
X23627Y79222D01*
X23647Y79252D01*
X23671Y79285D01*
X23694Y79315D01*
X23714Y79343D01*
X23723Y79352D01*
X23731Y79361D01*
X23732Y79363D01*
X23736Y79367D01*
X23744Y79374D01*
X23753Y79383D01*
X23766Y79391D01*
X23779Y79400D01*
X23794Y79407D01*
X23808Y79415D01*
X23810D01*
X23816Y79417D01*
X23825Y79420D01*
X23840Y79422D01*
X23858Y79426D01*
X23881Y79428D01*
X23907Y79430D01*
X23990D01*
Y78895D01*
X24249D01*
Y80176D01*
D02*
G37*
G36*
X21955Y80167D02*
X21696D01*
Y79111D01*
X21051D01*
Y78895D01*
X21955D01*
Y80167D01*
D02*
G37*
G36*
X26469Y80200D02*
X26456D01*
X26441Y80198D01*
X26423D01*
X26399Y80194D01*
X26371Y80191D01*
X26340Y80185D01*
X26306Y80178D01*
X26271Y80169D01*
X26234Y80157D01*
X26197Y80143D01*
X26158Y80126D01*
X26121Y80106D01*
X26084Y80081D01*
X26049Y80054D01*
X26016Y80022D01*
X26014Y80020D01*
X26008Y80015D01*
X25999Y80004D01*
X25990Y79991D01*
X25977Y79972D01*
X25962Y79950D01*
X25947Y79924D01*
X25930Y79894D01*
X25914Y79863D01*
X25899Y79826D01*
X25884Y79785D01*
X25871Y79743D01*
X25860Y79695D01*
X25853Y79645D01*
X25847Y79591D01*
X25845Y79533D01*
Y79520D01*
X25847Y79504D01*
Y79482D01*
X25851Y79456D01*
X25854Y79426D01*
X25860Y79391D01*
X25866Y79356D01*
X25875Y79317D01*
X25886Y79276D01*
X25901Y79235D01*
X25917Y79195D01*
X25936Y79156D01*
X25960Y79117D01*
X25986Y79080D01*
X26016Y79045D01*
X26017Y79043D01*
X26023Y79037D01*
X26032Y79028D01*
X26047Y79017D01*
X26064Y79004D01*
X26084Y78989D01*
X26108Y78974D01*
X26134Y78958D01*
X26166Y78941D01*
X26199Y78926D01*
X26236Y78911D01*
X26277Y78898D01*
X26319Y78887D01*
X26366Y78878D01*
X26414Y78872D01*
X26466Y78871D01*
X26479D01*
X26493Y78872D01*
X26512Y78874D01*
X26536Y78876D01*
X26564Y78880D01*
X26595Y78885D01*
X26628Y78893D01*
X26666Y78902D01*
X26701Y78913D01*
X26740Y78928D01*
X26777Y78945D01*
X26816Y78963D01*
X26851Y78987D01*
X26886Y79013D01*
X26919Y79045D01*
X26921Y79046D01*
X26927Y79052D01*
X26934Y79063D01*
X26945Y79076D01*
X26958Y79095D01*
X26973Y79117D01*
X26988Y79141D01*
X27003Y79170D01*
X27019Y79202D01*
X27034Y79239D01*
X27049Y79278D01*
X27062Y79320D01*
X27073Y79367D01*
X27080Y79417D01*
X27086Y79470D01*
X27088Y79526D01*
Y79545D01*
X27086Y79559D01*
Y79576D01*
X27084Y79595D01*
X27082Y79617D01*
X27080Y79641D01*
X27073Y79693D01*
X27064Y79748D01*
X27049Y79804D01*
X27030Y79856D01*
Y79857D01*
X27028Y79859D01*
X27025Y79865D01*
X27023Y79872D01*
X27012Y79891D01*
X26999Y79915D01*
X26982Y79943D01*
X26962Y79970D01*
X26938Y80002D01*
X26912Y80032D01*
X26910Y80033D01*
X26908Y80035D01*
X26899Y80044D01*
X26882Y80059D01*
X26862Y80076D01*
X26838Y80094D01*
X26810Y80115D01*
X26778Y80133D01*
X26745Y80148D01*
X26743D01*
X26740Y80150D01*
X26732Y80154D01*
X26723Y80156D01*
X26712Y80161D01*
X26699Y80165D01*
X26682Y80169D01*
X26666Y80174D01*
X26625Y80183D01*
X26578Y80193D01*
X26525Y80198D01*
X26469Y80200D01*
D02*
G37*
G36*
X25077D02*
X25064D01*
X25049Y80198D01*
X25031D01*
X25006Y80194D01*
X24979Y80191D01*
X24947Y80185D01*
X24914Y80178D01*
X24879Y80169D01*
X24842Y80157D01*
X24805Y80143D01*
X24766Y80126D01*
X24729Y80106D01*
X24692Y80081D01*
X24656Y80054D01*
X24623Y80022D01*
X24621Y80020D01*
X24616Y80015D01*
X24606Y80004D01*
X24597Y79991D01*
X24584Y79972D01*
X24569Y79950D01*
X24555Y79924D01*
X24538Y79894D01*
X24521Y79863D01*
X24506Y79826D01*
X24492Y79785D01*
X24479Y79743D01*
X24468Y79695D01*
X24460Y79645D01*
X24455Y79591D01*
X24453Y79533D01*
Y79520D01*
X24455Y79504D01*
Y79482D01*
X24458Y79456D01*
X24462Y79426D01*
X24468Y79391D01*
X24473Y79356D01*
X24482Y79317D01*
X24494Y79276D01*
X24508Y79235D01*
X24525Y79195D01*
X24544Y79156D01*
X24568Y79117D01*
X24594Y79080D01*
X24623Y79045D01*
X24625Y79043D01*
X24631Y79037D01*
X24640Y79028D01*
X24655Y79017D01*
X24671Y79004D01*
X24692Y78989D01*
X24716Y78974D01*
X24742Y78958D01*
X24773Y78941D01*
X24806Y78926D01*
X24843Y78911D01*
X24884Y78898D01*
X24927Y78887D01*
X24973Y78878D01*
X25021Y78872D01*
X25073Y78871D01*
X25086D01*
X25101Y78872D01*
X25119Y78874D01*
X25143Y78876D01*
X25171Y78880D01*
X25203Y78885D01*
X25236Y78893D01*
X25273Y78902D01*
X25308Y78913D01*
X25347Y78928D01*
X25384Y78945D01*
X25423Y78963D01*
X25458Y78987D01*
X25493Y79013D01*
X25527Y79045D01*
X25529Y79046D01*
X25534Y79052D01*
X25542Y79063D01*
X25553Y79076D01*
X25566Y79095D01*
X25580Y79117D01*
X25595Y79141D01*
X25610Y79170D01*
X25627Y79202D01*
X25642Y79239D01*
X25656Y79278D01*
X25669Y79320D01*
X25680Y79367D01*
X25688Y79417D01*
X25693Y79470D01*
X25695Y79526D01*
Y79545D01*
X25693Y79559D01*
Y79576D01*
X25692Y79595D01*
X25690Y79617D01*
X25688Y79641D01*
X25680Y79693D01*
X25671Y79748D01*
X25656Y79804D01*
X25638Y79856D01*
Y79857D01*
X25636Y79859D01*
X25632Y79865D01*
X25630Y79872D01*
X25619Y79891D01*
X25606Y79915D01*
X25590Y79943D01*
X25569Y79970D01*
X25545Y80002D01*
X25519Y80032D01*
X25517Y80033D01*
X25516Y80035D01*
X25506Y80044D01*
X25490Y80059D01*
X25469Y80076D01*
X25445Y80094D01*
X25417Y80115D01*
X25386Y80133D01*
X25353Y80148D01*
X25351D01*
X25347Y80150D01*
X25340Y80154D01*
X25330Y80156D01*
X25319Y80161D01*
X25306Y80165D01*
X25290Y80169D01*
X25273Y80174D01*
X25232Y80183D01*
X25186Y80193D01*
X25132Y80198D01*
X25077Y80200D01*
D02*
G37*
G36*
X20301D02*
X20288D01*
X20274Y80198D01*
X20255D01*
X20231Y80194D01*
X20203Y80191D01*
X20172Y80185D01*
X20138Y80178D01*
X20103Y80169D01*
X20066Y80157D01*
X20029Y80143D01*
X19990Y80126D01*
X19953Y80106D01*
X19916Y80081D01*
X19881Y80054D01*
X19848Y80022D01*
X19846Y80020D01*
X19840Y80015D01*
X19831Y80004D01*
X19822Y79991D01*
X19809Y79972D01*
X19794Y79950D01*
X19779Y79924D01*
X19763Y79894D01*
X19746Y79863D01*
X19731Y79826D01*
X19716Y79785D01*
X19703Y79743D01*
X19692Y79695D01*
X19685Y79645D01*
X19679Y79591D01*
X19677Y79533D01*
Y79520D01*
X19679Y79504D01*
Y79482D01*
X19683Y79456D01*
X19687Y79426D01*
X19692Y79391D01*
X19698Y79356D01*
X19707Y79317D01*
X19718Y79276D01*
X19733Y79235D01*
X19750Y79195D01*
X19768Y79156D01*
X19792Y79117D01*
X19818Y79080D01*
X19848Y79045D01*
X19850Y79043D01*
X19855Y79037D01*
X19864Y79028D01*
X19879Y79017D01*
X19896Y79004D01*
X19916Y78989D01*
X19940Y78974D01*
X19966Y78958D01*
X19998Y78941D01*
X20031Y78926D01*
X20068Y78911D01*
X20109Y78898D01*
X20151Y78887D01*
X20198Y78878D01*
X20246Y78872D01*
X20298Y78871D01*
X20311D01*
X20325Y78872D01*
X20344Y78874D01*
X20368Y78876D01*
X20396Y78880D01*
X20427Y78885D01*
X20461Y78893D01*
X20498Y78902D01*
X20533Y78913D01*
X20572Y78928D01*
X20609Y78945D01*
X20648Y78963D01*
X20683Y78987D01*
X20718Y79013D01*
X20751Y79045D01*
X20753Y79046D01*
X20759Y79052D01*
X20766Y79063D01*
X20777Y79076D01*
X20790Y79095D01*
X20805Y79117D01*
X20820Y79141D01*
X20835Y79170D01*
X20851Y79202D01*
X20866Y79239D01*
X20881Y79278D01*
X20894Y79320D01*
X20905Y79367D01*
X20912Y79417D01*
X20918Y79470D01*
X20920Y79526D01*
Y79545D01*
X20918Y79559D01*
Y79576D01*
X20916Y79595D01*
X20914Y79617D01*
X20912Y79641D01*
X20905Y79693D01*
X20896Y79748D01*
X20881Y79804D01*
X20862Y79856D01*
Y79857D01*
X20861Y79859D01*
X20857Y79865D01*
X20855Y79872D01*
X20844Y79891D01*
X20831Y79915D01*
X20814Y79943D01*
X20794Y79970D01*
X20770Y80002D01*
X20744Y80032D01*
X20742Y80033D01*
X20740Y80035D01*
X20731Y80044D01*
X20714Y80059D01*
X20694Y80076D01*
X20670Y80094D01*
X20642Y80115D01*
X20611Y80133D01*
X20577Y80148D01*
X20575D01*
X20572Y80150D01*
X20564Y80154D01*
X20555Y80156D01*
X20544Y80161D01*
X20531Y80165D01*
X20514Y80169D01*
X20498Y80174D01*
X20457Y80183D01*
X20411Y80193D01*
X20357Y80198D01*
X20301Y80200D01*
D02*
G37*
G36*
X29471Y78700D02*
X28449D01*
Y78541D01*
X29471D01*
Y78700D01*
D02*
G37*
G36*
X23105D02*
X22083D01*
Y78541D01*
X23105D01*
Y78700D01*
D02*
G37*
%LPD*%
G36*
X33241Y79633D02*
X32989D01*
X32952Y79635D01*
X32913Y79637D01*
X32874Y79639D01*
X32857Y79641D01*
X32843Y79643D01*
X32828Y79646D01*
X32819Y79648D01*
X32817D01*
X32811Y79652D01*
X32802Y79656D01*
X32793Y79661D01*
X32769Y79678D01*
X32757Y79689D01*
X32746Y79702D01*
X32745Y79704D01*
X32743Y79709D01*
X32737Y79717D01*
X32732Y79728D01*
X32728Y79743D01*
X32722Y79759D01*
X32720Y79778D01*
X32719Y79798D01*
Y79802D01*
Y79809D01*
X32720Y79820D01*
X32722Y79835D01*
X32728Y79852D01*
X32733Y79869D01*
X32743Y79887D01*
X32754Y79902D01*
X32756Y79904D01*
X32759Y79909D01*
X32769Y79915D01*
X32780Y79924D01*
X32793Y79933D01*
X32809Y79941D01*
X32830Y79948D01*
X32852Y79954D01*
X32854D01*
X32859Y79956D01*
X32870D01*
X32887Y79957D01*
X32928D01*
X32944Y79959D01*
X33241D01*
Y79633D01*
D02*
G37*
G36*
X30356Y79111D02*
X30128D01*
X30104Y79113D01*
X30078D01*
X30052Y79117D01*
X30028Y79119D01*
X30008Y79122D01*
X30004D01*
X29997Y79126D01*
X29986Y79130D01*
X29971Y79135D01*
X29954Y79143D01*
X29937Y79152D01*
X29921Y79163D01*
X29904Y79176D01*
X29902Y79178D01*
X29897Y79183D01*
X29889Y79193D01*
X29880Y79206D01*
X29871Y79222D01*
X29858Y79243D01*
X29849Y79269D01*
X29837Y79298D01*
Y79300D01*
X29836Y79302D01*
Y79308D01*
X29834Y79315D01*
X29830Y79322D01*
X29828Y79333D01*
X29823Y79361D01*
X29819Y79395D01*
X29813Y79433D01*
X29811Y79482D01*
X29810Y79533D01*
Y79535D01*
Y79541D01*
Y79548D01*
Y79557D01*
Y79570D01*
X29811Y79585D01*
X29813Y79617D01*
X29817Y79654D01*
X29821Y79693D01*
X29828Y79728D01*
X29837Y79761D01*
Y79763D01*
X29839Y79765D01*
X29843Y79774D01*
X29849Y79789D01*
X29856Y79807D01*
X29867Y79826D01*
X29880Y79846D01*
X29895Y79867D01*
X29911Y79885D01*
X29913Y79887D01*
X29919Y79893D01*
X29930Y79900D01*
X29943Y79909D01*
X29961Y79920D01*
X29982Y79930D01*
X30004Y79939D01*
X30030Y79946D01*
X30032D01*
X30041Y79948D01*
X30056Y79950D01*
X30076Y79954D01*
X30089D01*
X30106Y79956D01*
X30123D01*
X30141Y79957D01*
X30163D01*
X30187Y79959D01*
X30356D01*
Y79111D01*
D02*
G37*
G36*
X28067D02*
X27839D01*
X27815Y79113D01*
X27789D01*
X27764Y79117D01*
X27739Y79119D01*
X27719Y79122D01*
X27715D01*
X27708Y79126D01*
X27697Y79130D01*
X27682Y79135D01*
X27665Y79143D01*
X27649Y79152D01*
X27632Y79163D01*
X27615Y79176D01*
X27614Y79178D01*
X27608Y79183D01*
X27601Y79193D01*
X27591Y79206D01*
X27582Y79222D01*
X27569Y79243D01*
X27560Y79269D01*
X27549Y79298D01*
Y79300D01*
X27547Y79302D01*
Y79308D01*
X27545Y79315D01*
X27541Y79322D01*
X27540Y79333D01*
X27534Y79361D01*
X27530Y79395D01*
X27525Y79433D01*
X27523Y79482D01*
X27521Y79533D01*
Y79535D01*
Y79541D01*
Y79548D01*
Y79557D01*
Y79570D01*
X27523Y79585D01*
X27525Y79617D01*
X27528Y79654D01*
X27532Y79693D01*
X27540Y79728D01*
X27549Y79761D01*
Y79763D01*
X27551Y79765D01*
X27554Y79774D01*
X27560Y79789D01*
X27567Y79807D01*
X27578Y79826D01*
X27591Y79846D01*
X27606Y79867D01*
X27623Y79885D01*
X27625Y79887D01*
X27630Y79893D01*
X27641Y79900D01*
X27654Y79909D01*
X27673Y79920D01*
X27693Y79930D01*
X27715Y79939D01*
X27741Y79946D01*
X27743D01*
X27752Y79948D01*
X27767Y79950D01*
X27788Y79954D01*
X27801D01*
X27817Y79956D01*
X27834D01*
X27852Y79957D01*
X27875D01*
X27899Y79959D01*
X28067D01*
Y79111D01*
D02*
G37*
G36*
X23990Y79633D02*
X23738D01*
X23701Y79635D01*
X23662Y79637D01*
X23623Y79639D01*
X23607Y79641D01*
X23592Y79643D01*
X23577Y79646D01*
X23568Y79648D01*
X23566D01*
X23560Y79652D01*
X23551Y79656D01*
X23542Y79661D01*
X23518Y79678D01*
X23507Y79689D01*
X23495Y79702D01*
X23494Y79704D01*
X23492Y79709D01*
X23486Y79717D01*
X23481Y79728D01*
X23477Y79743D01*
X23471Y79759D01*
X23470Y79778D01*
X23468Y79798D01*
Y79802D01*
Y79809D01*
X23470Y79820D01*
X23471Y79835D01*
X23477Y79852D01*
X23483Y79869D01*
X23492Y79887D01*
X23503Y79902D01*
X23505Y79904D01*
X23508Y79909D01*
X23518Y79915D01*
X23529Y79924D01*
X23542Y79933D01*
X23558Y79941D01*
X23579Y79948D01*
X23601Y79954D01*
X23603D01*
X23608Y79956D01*
X23620D01*
X23636Y79957D01*
X23677D01*
X23694Y79959D01*
X23990D01*
Y79633D01*
D02*
G37*
G36*
X26491Y79978D02*
X26506Y79976D01*
X26521Y79974D01*
X26558Y79967D01*
X26599Y79952D01*
X26621Y79944D01*
X26643Y79933D01*
X26664Y79920D01*
X26686Y79906D01*
X26706Y79889D01*
X26725Y79869D01*
X26727Y79867D01*
X26728Y79863D01*
X26734Y79857D01*
X26740Y79848D01*
X26747Y79835D01*
X26754Y79822D01*
X26764Y79806D01*
X26773Y79785D01*
X26782Y79763D01*
X26791Y79739D01*
X26799Y79711D01*
X26806Y79682D01*
X26812Y79648D01*
X26817Y79613D01*
X26819Y79576D01*
X26821Y79535D01*
Y79533D01*
Y79526D01*
Y79515D01*
X26819Y79500D01*
X26817Y79482D01*
X26816Y79459D01*
X26812Y79437D01*
X26808Y79411D01*
X26797Y79357D01*
X26778Y79304D01*
X26767Y79276D01*
X26754Y79250D01*
X26738Y79226D01*
X26721Y79204D01*
X26719Y79202D01*
X26716Y79198D01*
X26710Y79193D01*
X26703Y79187D01*
X26693Y79178D01*
X26680Y79169D01*
X26667Y79158D01*
X26651Y79148D01*
X26616Y79126D01*
X26571Y79109D01*
X26547Y79102D01*
X26521Y79096D01*
X26493Y79093D01*
X26466Y79091D01*
X26451D01*
X26440Y79093D01*
X26427Y79095D01*
X26412Y79096D01*
X26377Y79106D01*
X26336Y79119D01*
X26316Y79128D01*
X26293Y79137D01*
X26273Y79150D01*
X26251Y79165D01*
X26230Y79182D01*
X26212Y79202D01*
X26210Y79204D01*
X26208Y79208D01*
X26203Y79213D01*
X26197Y79222D01*
X26188Y79235D01*
X26180Y79250D01*
X26171Y79267D01*
X26162Y79287D01*
X26153Y79309D01*
X26143Y79333D01*
X26134Y79361D01*
X26127Y79393D01*
X26121Y79424D01*
X26116Y79459D01*
X26114Y79498D01*
X26112Y79539D01*
Y79541D01*
Y79548D01*
Y79559D01*
X26114Y79576D01*
X26116Y79595D01*
X26117Y79615D01*
X26119Y79639D01*
X26125Y79663D01*
X26136Y79717D01*
X26153Y79772D01*
X26164Y79800D01*
X26177Y79824D01*
X26193Y79848D01*
X26210Y79870D01*
X26212Y79872D01*
X26214Y79876D01*
X26219Y79880D01*
X26227Y79887D01*
X26238Y79896D01*
X26249Y79906D01*
X26262Y79915D01*
X26279Y79926D01*
X26295Y79935D01*
X26316Y79944D01*
X26358Y79963D01*
X26382Y79970D01*
X26408Y79974D01*
X26436Y79978D01*
X26466Y79980D01*
X26480D01*
X26491Y79978D01*
D02*
G37*
G36*
X25099D02*
X25114Y79976D01*
X25129Y79974D01*
X25166Y79967D01*
X25206Y79952D01*
X25229Y79944D01*
X25251Y79933D01*
X25271Y79920D01*
X25293Y79906D01*
X25314Y79889D01*
X25332Y79869D01*
X25334Y79867D01*
X25336Y79863D01*
X25342Y79857D01*
X25347Y79848D01*
X25355Y79835D01*
X25362Y79822D01*
X25371Y79806D01*
X25380Y79785D01*
X25390Y79763D01*
X25399Y79739D01*
X25406Y79711D01*
X25414Y79682D01*
X25419Y79648D01*
X25425Y79613D01*
X25427Y79576D01*
X25429Y79535D01*
Y79533D01*
Y79526D01*
Y79515D01*
X25427Y79500D01*
X25425Y79482D01*
X25423Y79459D01*
X25419Y79437D01*
X25416Y79411D01*
X25405Y79357D01*
X25386Y79304D01*
X25375Y79276D01*
X25362Y79250D01*
X25345Y79226D01*
X25329Y79204D01*
X25327Y79202D01*
X25323Y79198D01*
X25318Y79193D01*
X25310Y79187D01*
X25301Y79178D01*
X25288Y79169D01*
X25275Y79158D01*
X25258Y79148D01*
X25223Y79126D01*
X25179Y79109D01*
X25155Y79102D01*
X25129Y79096D01*
X25101Y79093D01*
X25073Y79091D01*
X25058D01*
X25047Y79093D01*
X25034Y79095D01*
X25019Y79096D01*
X24984Y79106D01*
X24943Y79119D01*
X24923Y79128D01*
X24901Y79137D01*
X24881Y79150D01*
X24858Y79165D01*
X24838Y79182D01*
X24819Y79202D01*
X24818Y79204D01*
X24816Y79208D01*
X24810Y79213D01*
X24805Y79222D01*
X24795Y79235D01*
X24788Y79250D01*
X24779Y79267D01*
X24769Y79287D01*
X24760Y79309D01*
X24751Y79333D01*
X24742Y79361D01*
X24734Y79393D01*
X24729Y79424D01*
X24723Y79459D01*
X24721Y79498D01*
X24719Y79539D01*
Y79541D01*
Y79548D01*
Y79559D01*
X24721Y79576D01*
X24723Y79595D01*
X24725Y79615D01*
X24727Y79639D01*
X24732Y79663D01*
X24743Y79717D01*
X24760Y79772D01*
X24771Y79800D01*
X24784Y79824D01*
X24801Y79848D01*
X24818Y79870D01*
X24819Y79872D01*
X24821Y79876D01*
X24827Y79880D01*
X24834Y79887D01*
X24845Y79896D01*
X24856Y79906D01*
X24869Y79915D01*
X24886Y79926D01*
X24903Y79935D01*
X24923Y79944D01*
X24966Y79963D01*
X24990Y79970D01*
X25016Y79974D01*
X25043Y79978D01*
X25073Y79980D01*
X25088D01*
X25099Y79978D01*
D02*
G37*
G36*
X20324D02*
X20338Y79976D01*
X20353Y79974D01*
X20390Y79967D01*
X20431Y79952D01*
X20453Y79944D01*
X20475Y79933D01*
X20496Y79920D01*
X20518Y79906D01*
X20538Y79889D01*
X20557Y79869D01*
X20559Y79867D01*
X20561Y79863D01*
X20566Y79857D01*
X20572Y79848D01*
X20579Y79835D01*
X20587Y79822D01*
X20596Y79806D01*
X20605Y79785D01*
X20614Y79763D01*
X20624Y79739D01*
X20631Y79711D01*
X20638Y79682D01*
X20644Y79648D01*
X20649Y79613D01*
X20651Y79576D01*
X20653Y79535D01*
Y79533D01*
Y79526D01*
Y79515D01*
X20651Y79500D01*
X20649Y79482D01*
X20648Y79459D01*
X20644Y79437D01*
X20640Y79411D01*
X20629Y79357D01*
X20611Y79304D01*
X20599Y79276D01*
X20587Y79250D01*
X20570Y79226D01*
X20553Y79204D01*
X20551Y79202D01*
X20548Y79198D01*
X20542Y79193D01*
X20535Y79187D01*
X20525Y79178D01*
X20512Y79169D01*
X20499Y79158D01*
X20483Y79148D01*
X20448Y79126D01*
X20403Y79109D01*
X20379Y79102D01*
X20353Y79096D01*
X20325Y79093D01*
X20298Y79091D01*
X20283D01*
X20272Y79093D01*
X20259Y79095D01*
X20244Y79096D01*
X20209Y79106D01*
X20168Y79119D01*
X20148Y79128D01*
X20125Y79137D01*
X20105Y79150D01*
X20083Y79165D01*
X20062Y79182D01*
X20044Y79202D01*
X20042Y79204D01*
X20040Y79208D01*
X20035Y79213D01*
X20029Y79222D01*
X20020Y79235D01*
X20013Y79250D01*
X20003Y79267D01*
X19994Y79287D01*
X19985Y79309D01*
X19975Y79333D01*
X19966Y79361D01*
X19959Y79393D01*
X19953Y79424D01*
X19948Y79459D01*
X19946Y79498D01*
X19944Y79539D01*
Y79541D01*
Y79548D01*
Y79559D01*
X19946Y79576D01*
X19948Y79595D01*
X19950Y79615D01*
X19951Y79639D01*
X19957Y79663D01*
X19968Y79717D01*
X19985Y79772D01*
X19996Y79800D01*
X20009Y79824D01*
X20025Y79848D01*
X20042Y79870D01*
X20044Y79872D01*
X20046Y79876D01*
X20051Y79880D01*
X20059Y79887D01*
X20070Y79896D01*
X20081Y79906D01*
X20094Y79915D01*
X20111Y79926D01*
X20127Y79935D01*
X20148Y79944D01*
X20190Y79963D01*
X20214Y79970D01*
X20240Y79974D01*
X20268Y79978D01*
X20298Y79980D01*
X20312D01*
X20324Y79978D01*
D02*
G37*
D14*
X40150Y73850D02*
Y72950D01*
X39700D01*
X39550Y73100D01*
Y73700D01*
X39700Y73850D01*
X40150D01*
X38800Y72950D02*
X39100D01*
X39250Y73100D01*
Y73400D01*
X39100Y73550D01*
X38800D01*
X38650Y73400D01*
Y73250D01*
X39250D01*
X38351Y72950D02*
X37901D01*
X37751Y73100D01*
X37901Y73250D01*
X38201D01*
X38351Y73400D01*
X38201Y73550D01*
X37751D01*
X37451Y72950D02*
X37151D01*
X37301D01*
Y73550D01*
X37451D01*
X36401Y72650D02*
X36251D01*
X36101Y72800D01*
Y73550D01*
X36551D01*
X36701Y73400D01*
Y73100D01*
X36551Y72950D01*
X36101D01*
X35801D02*
Y73550D01*
X35352D01*
X35202Y73400D01*
Y72950D01*
X34452D02*
X34752D01*
X34902Y73100D01*
Y73400D01*
X34752Y73550D01*
X34452D01*
X34302Y73400D01*
Y73250D01*
X34902D01*
X33402Y73850D02*
Y72950D01*
X33852D01*
X34002Y73100D01*
Y73400D01*
X33852Y73550D01*
X33402D01*
X32203Y73850D02*
Y72950D01*
X31753D01*
X31603Y73100D01*
Y73250D01*
Y73400D01*
X31753Y73550D01*
X32203D01*
X31303D02*
Y73100D01*
X31153Y72950D01*
X30703D01*
Y72800D01*
X30853Y72650D01*
X31003D01*
X30703Y72950D02*
Y73550D01*
X29503Y72950D02*
Y73850D01*
X29054D01*
X28904Y73700D01*
Y73400D01*
X29054Y73250D01*
X29503D01*
X28604Y73850D02*
Y72950D01*
Y73400D01*
X28454Y73550D01*
X28154D01*
X28004Y73400D01*
Y72950D01*
X27704Y73550D02*
Y73100D01*
X27554Y72950D01*
X27104D01*
Y73550D01*
X25305Y73100D02*
Y73700D01*
X25455Y73850D01*
X25755D01*
X25905Y73700D01*
Y73100D01*
X25755Y72950D01*
X25455D01*
X25605Y73250D02*
X25305Y72950D01*
X25455D02*
X25305Y73100D01*
X25005Y73550D02*
Y73100D01*
X24855Y72950D01*
X24405D01*
Y73550D01*
X24105D02*
Y73100D01*
X23955Y72950D01*
X23505D01*
Y72800D01*
X23655Y72650D01*
X23805D01*
X23505Y72950D02*
Y73550D01*
X22156D02*
X21856D01*
X21706Y73400D01*
Y72950D01*
X22156D01*
X22306Y73100D01*
X22156Y73250D01*
X21706D01*
X21406Y72950D02*
Y73550D01*
X20956D01*
X20806Y73400D01*
Y72950D01*
X19907Y73850D02*
Y72950D01*
X20356D01*
X20506Y73100D01*
Y73400D01*
X20356Y73550D01*
X19907D01*
X18707Y73850D02*
X18107D01*
X18407D01*
Y72950D01*
X17807Y73850D02*
Y72950D01*
Y73400D01*
X17657Y73550D01*
X17357D01*
X17207Y73400D01*
Y72950D01*
X16908D02*
X16608D01*
X16758D01*
Y73550D01*
X16908D01*
X15708Y72950D02*
X16008D01*
X16158Y73100D01*
Y73400D01*
X16008Y73550D01*
X15708D01*
X15558Y73400D01*
Y73250D01*
X16158D01*
X15258Y72950D02*
Y73550D01*
X14808D01*
X14658Y73400D01*
Y72950D01*
X13459D02*
Y73850D01*
X13009D01*
X12859Y73700D01*
Y73400D01*
X13009Y73250D01*
X13459D01*
X12559Y73850D02*
Y72950D01*
Y73400D01*
X12409Y73550D01*
X12109D01*
X11959Y73400D01*
Y72950D01*
X11659Y73550D02*
Y73100D01*
X11509Y72950D01*
X11059D01*
Y73550D01*
D90*
X11613Y91145D02*
X25252D01*
X11613Y91119D02*
X25405D01*
X11613Y91094D02*
X25481D01*
X11613Y91069D02*
X25557D01*
X11613Y91043D02*
X25633D01*
X11613Y91018D02*
X25684D01*
X11613Y90992D02*
X25735D01*
X11613Y90967D02*
X25786D01*
X11613Y90942D02*
X25837D01*
X11613Y90916D02*
X25887D01*
X11613Y90891D02*
X25913D01*
X11613Y90865D02*
X25964D01*
X11613Y90840D02*
X25989D01*
X11613Y90815D02*
X26014D01*
X11613Y90789D02*
X26040D01*
X11613Y90764D02*
X26091D01*
X11613Y90738D02*
X26116D01*
X11613Y90713D02*
X26141D01*
X11613Y90688D02*
X26167D01*
X11613Y90662D02*
X26192D01*
X11613Y90637D02*
X26218D01*
X11613Y90611D02*
X26218D01*
X11613Y90586D02*
X26243D01*
X11613Y90561D02*
X26268D01*
X11613Y90535D02*
X26294D01*
X11613Y90510D02*
X26319D01*
X11613Y90484D02*
X26319D01*
X11613Y90459D02*
X26345D01*
X11613Y90434D02*
X26370D01*
X11613Y90408D02*
X26395D01*
X11613Y90383D02*
X26395D01*
X11613Y90357D02*
X26421D01*
X11613Y90332D02*
X26421D01*
X11613Y90307D02*
X26446D01*
X11613Y90281D02*
X26472D01*
X11613Y90256D02*
X26472D01*
X11613Y90230D02*
X26472D01*
X11613Y90205D02*
X26497D01*
X11613Y90180D02*
X26497D01*
X11613Y90154D02*
X26522D01*
X11613Y90129D02*
X26522D01*
X11613Y90103D02*
X26548D01*
X11613Y90078D02*
X26548D01*
X11613Y90053D02*
X26548D01*
X11613Y90027D02*
X26573D01*
X11613Y90002D02*
X26573D01*
X11613Y89976D02*
X26573D01*
X11613Y89951D02*
X26573D01*
X11613Y89926D02*
X26599D01*
X23449Y89900D02*
X26599D01*
X21950D02*
X22916D01*
X11613D02*
X21163D01*
X23601Y89875D02*
X26599D01*
X21976D02*
X22916D01*
X20807D02*
X21188D01*
X11613D02*
X20020D01*
X23678Y89849D02*
X26599D01*
X21976D02*
X22916D01*
X20807D02*
X21188D01*
X11613D02*
X20045D01*
X23754Y89824D02*
X26599D01*
X21976D02*
X22916D01*
X20833D02*
X21188D01*
X11613D02*
X20045D01*
X23805Y89799D02*
X26599D01*
X21976D02*
X22916D01*
X20833D02*
X21188D01*
X11613D02*
X20045D01*
X23855Y89773D02*
X26599D01*
X22001D02*
X22916D01*
X20833D02*
X21214D01*
X11613D02*
X20045D01*
X23906Y89748D02*
X26599D01*
X22001D02*
X22916D01*
X20833D02*
X21214D01*
X11613D02*
X20071D01*
X23932Y89722D02*
X26599D01*
X22001D02*
X22890D01*
X20858D02*
X21214D01*
X11613D02*
X20071D01*
X23982Y89697D02*
X26599D01*
X22001D02*
X22890D01*
X20858D02*
X21214D01*
X11613D02*
X20071D01*
X24008Y89672D02*
X26599D01*
X22027D02*
X22890D01*
X20858D02*
X21239D01*
X11613D02*
X20071D01*
X24033Y89646D02*
X26599D01*
X22027D02*
X22890D01*
X20858D02*
X21239D01*
X11613D02*
X20096D01*
X24059Y89621D02*
X26599D01*
X22027D02*
X22890D01*
X20884D02*
X21239D01*
X11613D02*
X20096D01*
X24084Y89595D02*
X26599D01*
X22027D02*
X22890D01*
X20884D02*
X21239D01*
X11613D02*
X20096D01*
X24109Y89570D02*
X26599D01*
X22052D02*
X22890D01*
X20884D02*
X21265D01*
X11613D02*
X20096D01*
X24135Y89545D02*
X26599D01*
X22052D02*
X22890D01*
X20884D02*
X21265D01*
X11613D02*
X20122D01*
X24160Y89519D02*
X26599D01*
X22052D02*
X22890D01*
X20909D02*
X21265D01*
X11613D02*
X20122D01*
X24186Y89494D02*
X26599D01*
X22052D02*
X22890D01*
X20909D02*
X21265D01*
X11613D02*
X20122D01*
X24211Y89468D02*
X26599D01*
X22077D02*
X22890D01*
X20909D02*
X21290D01*
X11613D02*
X20147D01*
X24211Y89443D02*
X26599D01*
X22077D02*
X22890D01*
X20909D02*
X21290D01*
X11613D02*
X20147D01*
X24236Y89418D02*
X26599D01*
X22077D02*
X22890D01*
X20934D02*
X21290D01*
X11613D02*
X20147D01*
X24262Y89392D02*
X26599D01*
X22077D02*
X22890D01*
X20934D02*
X21290D01*
X11613D02*
X20147D01*
X24262Y89367D02*
X26599D01*
X22077D02*
X22890D01*
X20934D02*
X21315D01*
X11613D02*
X20172D01*
X24287Y89341D02*
X26599D01*
X22103D02*
X22890D01*
X20934D02*
X21315D01*
X11613D02*
X20172D01*
X24287Y89316D02*
X26599D01*
X22103D02*
X22890D01*
X20960D02*
X21315D01*
X11613D02*
X20172D01*
X24313Y89291D02*
X26599D01*
X22103D02*
X22890D01*
X20960D02*
X21315D01*
X14788D02*
X20172D01*
X13568D02*
X14508D01*
X11613D02*
X13314D01*
X24313Y89265D02*
X26599D01*
X22103D02*
X22890D01*
X20960D02*
X21341D01*
X14940D02*
X20198D01*
X13721D02*
X14407D01*
X11613D02*
X13187D01*
X24338Y89240D02*
X26599D01*
X22128D02*
X22890D01*
X20960D02*
X21341D01*
X15016D02*
X19868D01*
X13797D02*
X14330D01*
X11613D02*
X13137D01*
X24338Y89214D02*
X26599D01*
X23601D02*
X23627D01*
X22128D02*
X22890D01*
X20985D02*
X21341D01*
X19588D02*
X19868D01*
X18471D02*
X18801D01*
X17251D02*
X17683D01*
X16083D02*
X16464D01*
X15067D02*
X15296D01*
X13848D02*
X14305D01*
X11613D02*
X13086D01*
X24363Y89189D02*
X26599D01*
X23601D02*
X23627D01*
X22128D02*
X22890D01*
X20985D02*
X21341D01*
X19588D02*
X19893D01*
X18471D02*
X18826D01*
X17251D02*
X17683D01*
X16083D02*
X16464D01*
X15118D02*
X15296D01*
X13899D02*
X14254D01*
X11613D02*
X13035D01*
X24363Y89164D02*
X26599D01*
X23601D02*
X23652D01*
X22128D02*
X22890D01*
X20985D02*
X21366D01*
X19614D02*
X19893D01*
X18471D02*
X18826D01*
X17251D02*
X17683D01*
X16083D02*
X16464D01*
X15143D02*
X15296D01*
X13949D02*
X14229D01*
X11613D02*
X13010D01*
X24389Y89138D02*
X26599D01*
X23601D02*
X23652D01*
X22154D02*
X22890D01*
X20985D02*
X21366D01*
X19614D02*
X19893D01*
X18471D02*
X18826D01*
X17251D02*
X17709D01*
X16108D02*
X16489D01*
X15194D02*
X15321D01*
X14000D02*
X14229D01*
X11613D02*
X12984D01*
X24389Y89113D02*
X26599D01*
X23601D02*
X23678D01*
X22154D02*
X22890D01*
X21011D02*
X21366D01*
X19614D02*
X19893D01*
X18496D02*
X18826D01*
X17277D02*
X17709D01*
X16108D02*
X16489D01*
X15219D02*
X15321D01*
X14026D02*
X14203D01*
X11613D02*
X12984D01*
X24414Y89087D02*
X26599D01*
X23601D02*
X23678D01*
X22154D02*
X22890D01*
X21011D02*
X21392D01*
X19614D02*
X19918D01*
X18496D02*
X18852D01*
X17277D02*
X17709D01*
X16108D02*
X16489D01*
X15245D02*
X15321D01*
X14051D02*
X14178D01*
X11613D02*
X12959D01*
X24440Y89062D02*
X26599D01*
X23601D02*
X23703D01*
X22154D02*
X22865D01*
X21011D02*
X21392D01*
X19639D02*
X19918D01*
X18496D02*
X18852D01*
X17277D02*
X17709D01*
X16108D02*
X16489D01*
X15270D02*
X15321D01*
X14076D02*
X14178D01*
X11613D02*
X12959D01*
X24440Y89037D02*
X26599D01*
X23601D02*
X23703D01*
X22179D02*
X22865D01*
X21011D02*
X21392D01*
X19639D02*
X19918D01*
X18496D02*
X18852D01*
X17277D02*
X17734D01*
X16134D02*
X16515D01*
X15296D02*
X15346D01*
X14102D02*
X14178D01*
X11613D02*
X12959D01*
X24465Y89011D02*
X26599D01*
X23601D02*
X23728D01*
X22179D02*
X22865D01*
X21036D02*
X21392D01*
X19639D02*
X19918D01*
X18521D02*
X18852D01*
X17302D02*
X17734D01*
X16134D02*
X16515D01*
X15321D02*
X15346D01*
X14127D02*
X14153D01*
X11613D02*
X12959D01*
X24465Y88986D02*
X26599D01*
X23601D02*
X23728D01*
X22179D02*
X22865D01*
X21036D02*
X21417D01*
X19639D02*
X19944D01*
X18521D02*
X18877D01*
X17302D02*
X17734D01*
X16134D02*
X16515D01*
X11613D02*
X12933D01*
X24490Y88960D02*
X26599D01*
X23601D02*
X23754D01*
X22179D02*
X22865D01*
X21036D02*
X21417D01*
X19664D02*
X19944D01*
X18521D02*
X18877D01*
X17302D02*
X17734D01*
X16134D02*
X16515D01*
X11613D02*
X12933D01*
X24490Y88935D02*
X26599D01*
X23601D02*
X23754D01*
X22204D02*
X22865D01*
X21036D02*
X21417D01*
X19664D02*
X19944D01*
X18521D02*
X18877D01*
X17302D02*
X17759D01*
X16159D02*
X16540D01*
X11613D02*
X12933D01*
X24516Y88910D02*
X26599D01*
X23601D02*
X23754D01*
X22204D02*
X22865D01*
X21061D02*
X21417D01*
X19664D02*
X19944D01*
X18547D02*
X18877D01*
X17328D02*
X17759D01*
X16159D02*
X16540D01*
X11613D02*
X12933D01*
X24516Y88884D02*
X26599D01*
X23601D02*
X23779D01*
X22204D02*
X22865D01*
X21061D02*
X21442D01*
X19664D02*
X19969D01*
X18547D02*
X18902D01*
X17328D02*
X17759D01*
X16159D02*
X16540D01*
X11613D02*
X12933D01*
X24541Y88859D02*
X26599D01*
X23601D02*
X23779D01*
X22204D02*
X22865D01*
X21061D02*
X21442D01*
X19690D02*
X19969D01*
X18547D02*
X18902D01*
X17328D02*
X17759D01*
X16159D02*
X16540D01*
X11613D02*
X12933D01*
X24541Y88833D02*
X26599D01*
X23601D02*
X23805D01*
X22230D02*
X22865D01*
X21061D02*
X21442D01*
X19690D02*
X19969D01*
X18547D02*
X18902D01*
X17328D02*
X17785D01*
X16185D02*
X16566D01*
X11613D02*
X12959D01*
X24567Y88808D02*
X26599D01*
X23601D02*
X23805D01*
X22230D02*
X22865D01*
X21087D02*
X21442D01*
X19690D02*
X19969D01*
X18572D02*
X18902D01*
X17353D02*
X17785D01*
X16185D02*
X16566D01*
X11613D02*
X12959D01*
X24567Y88783D02*
X26599D01*
X23627D02*
X23830D01*
X22230D02*
X22865D01*
X21087D02*
X21468D01*
X19690D02*
X19995D01*
X18572D02*
X18928D01*
X17353D02*
X17785D01*
X16185D02*
X16566D01*
X11613D02*
X12959D01*
X24592Y88757D02*
X26599D01*
X23627D02*
X23830D01*
X22230D02*
X22865D01*
X21087D02*
X21468D01*
X19715D02*
X20325D01*
X18572D02*
X18928D01*
X17353D02*
X17785D01*
X16185D02*
X16566D01*
X15067D02*
X15296D01*
X13848D02*
X14076D01*
X11613D02*
X12959D01*
X24617Y88732D02*
X26599D01*
X23627D02*
X23855D01*
X22255D02*
X22865D01*
X21087D02*
X21468D01*
X19715D02*
X20325D01*
X18572D02*
X18928D01*
X17353D02*
X17810D01*
X16210D02*
X16591D01*
X15042D02*
X15346D01*
X13822D02*
X14127D01*
X11613D02*
X12959D01*
X24617Y88706D02*
X26599D01*
X23627D02*
X23855D01*
X22255D02*
X22865D01*
X21112D02*
X21468D01*
X19715D02*
X20325D01*
X18598D02*
X18928D01*
X17378D02*
X17810D01*
X16210D02*
X16591D01*
X15016D02*
X15372D01*
X13797D02*
X14153D01*
X11613D02*
X12984D01*
X24643Y88681D02*
X26599D01*
X23627D02*
X23881D01*
X22255D02*
X22865D01*
X21112D02*
X21493D01*
X19715D02*
X20325D01*
X18598D02*
X18953D01*
X17378D02*
X17810D01*
X16210D02*
X16591D01*
X15016D02*
X15397D01*
X13797D02*
X14178D01*
X11613D02*
X12984D01*
X24643Y88656D02*
X26599D01*
X23627D02*
X23881D01*
X22255D02*
X22865D01*
X21112D02*
X21493D01*
X19741D02*
X20350D01*
X18598D02*
X18953D01*
X17378D02*
X17810D01*
X16210D02*
X16591D01*
X15016D02*
X15423D01*
X13797D02*
X14203D01*
X11613D02*
X12984D01*
X24668Y88630D02*
X26599D01*
X23627D02*
X23881D01*
X22281D02*
X22865D01*
X21112D02*
X21493D01*
X19741D02*
X20350D01*
X18598D02*
X18953D01*
X17378D02*
X17836D01*
X16235D02*
X16616D01*
X15016D02*
X15423D01*
X13772D02*
X14203D01*
X11613D02*
X12984D01*
X24668Y88605D02*
X26599D01*
X23627D02*
X23906D01*
X22281D02*
X22865D01*
X21138D02*
X21493D01*
X19741D02*
X20350D01*
X18623D02*
X18953D01*
X17404D02*
X17836D01*
X16235D02*
X16616D01*
X15016D02*
X15448D01*
X13797D02*
X14229D01*
X11613D02*
X13010D01*
X24694Y88579D02*
X26599D01*
X23627D02*
X23906D01*
X22281D02*
X22865D01*
X21138D02*
X21519D01*
X19741D02*
X20350D01*
X18623D02*
X18979D01*
X17404D02*
X17836D01*
X16235D02*
X16616D01*
X15016D02*
X15448D01*
X13797D02*
X14229D01*
X11613D02*
X13010D01*
X24694Y88554D02*
X26599D01*
X23627D02*
X23932D01*
X22281D02*
X22865D01*
X21138D02*
X21519D01*
X19766D02*
X20376D01*
X18623D02*
X18979D01*
X17404D02*
X17836D01*
X16235D02*
X16616D01*
X15016D02*
X15473D01*
X13797D02*
X14229D01*
X11613D02*
X13010D01*
X24719Y88529D02*
X26599D01*
X23627D02*
X23932D01*
X22306D02*
X22865D01*
X21138D02*
X21519D01*
X19766D02*
X20376D01*
X18623D02*
X18979D01*
X17404D02*
X17861D01*
X16261D02*
X16642D01*
X15016D02*
X15473D01*
X13797D02*
X14254D01*
X11613D02*
X13010D01*
X24719Y88503D02*
X26599D01*
X23627D02*
X23957D01*
X22306D02*
X22865D01*
X21163D02*
X21519D01*
X19766D02*
X20376D01*
X18648D02*
X18979D01*
X17429D02*
X17861D01*
X16261D02*
X16642D01*
X15042D02*
X15473D01*
X13797D02*
X14254D01*
X11613D02*
X13035D01*
X24744Y88478D02*
X26599D01*
X23627D02*
X23957D01*
X22306D02*
X22865D01*
X21163D02*
X21544D01*
X19766D02*
X20376D01*
X18648D02*
X19004D01*
X17429D02*
X17861D01*
X16261D02*
X16642D01*
X15042D02*
X15473D01*
X13822D02*
X14254D01*
X11613D02*
X13035D01*
X24744Y88452D02*
X26599D01*
X23627D02*
X23982D01*
X22306D02*
X22865D01*
X21163D02*
X21544D01*
X19791D02*
X20401D01*
X18648D02*
X19004D01*
X17429D02*
X17861D01*
X16261D02*
X16642D01*
X15042D02*
X15499D01*
X13822D02*
X14280D01*
X11613D02*
X13035D01*
X24770Y88427D02*
X26599D01*
X23627D02*
X23982D01*
X22331D02*
X22865D01*
X21188D02*
X21544D01*
X19791D02*
X20401D01*
X18648D02*
X19004D01*
X17429D02*
X17886D01*
X16286D02*
X16667D01*
X15042D02*
X15499D01*
X13822D02*
X14280D01*
X11613D02*
X13035D01*
X24770Y88402D02*
X26599D01*
X23627D02*
X24008D01*
X22331D02*
X22865D01*
X21188D02*
X21544D01*
X19791D02*
X20401D01*
X18674D02*
X19004D01*
X17455D02*
X17886D01*
X16286D02*
X16667D01*
X15067D02*
X15499D01*
X13822D02*
X14280D01*
X11613D02*
X13060D01*
X24795Y88376D02*
X26599D01*
X23627D02*
X24008D01*
X22331D02*
X22839D01*
X21188D02*
X21569D01*
X19791D02*
X20401D01*
X18674D02*
X19029D01*
X17455D02*
X17886D01*
X16286D02*
X16667D01*
X15067D02*
X15499D01*
X13848D02*
X14280D01*
X11613D02*
X13060D01*
X24821Y88351D02*
X26599D01*
X23627D02*
X24033D01*
X22331D02*
X22839D01*
X21188D02*
X21569D01*
X19817D02*
X20426D01*
X18674D02*
X19029D01*
X17455D02*
X17886D01*
X16286D02*
X16667D01*
X15067D02*
X15524D01*
X13848D02*
X14305D01*
X11613D02*
X13060D01*
X24821Y88325D02*
X26599D01*
X23652D02*
X24033D01*
X22357D02*
X22839D01*
X21214D02*
X21569D01*
X19817D02*
X20426D01*
X18674D02*
X19029D01*
X17455D02*
X17912D01*
X16312D02*
X16693D01*
X15067D02*
X15524D01*
X13848D02*
X14305D01*
X11613D02*
X13060D01*
X24846Y88300D02*
X26599D01*
X23652D02*
X24033D01*
X22357D02*
X22839D01*
X21214D02*
X21569D01*
X19817D02*
X20426D01*
X18699D02*
X19029D01*
X17480D02*
X17912D01*
X16312D02*
X16693D01*
X15092D02*
X15524D01*
X13848D02*
X14305D01*
X11613D02*
X13086D01*
X24846Y88275D02*
X26599D01*
X23652D02*
X24059D01*
X22357D02*
X22839D01*
X21214D02*
X21595D01*
X19817D02*
X20426D01*
X18699D02*
X19055D01*
X17480D02*
X17912D01*
X16312D02*
X16693D01*
X15092D02*
X15524D01*
X13873D02*
X14305D01*
X11613D02*
X13086D01*
X24871Y88249D02*
X26599D01*
X23652D02*
X24059D01*
X22357D02*
X22839D01*
X21214D02*
X21595D01*
X19842D02*
X20452D01*
X18699D02*
X19055D01*
X17480D02*
X17912D01*
X16312D02*
X16693D01*
X15092D02*
X15550D01*
X13873D02*
X14330D01*
X11613D02*
X13086D01*
X24871Y88224D02*
X26599D01*
X23652D02*
X24084D01*
X22382D02*
X22839D01*
X21239D02*
X21595D01*
X19842D02*
X20452D01*
X18699D02*
X19055D01*
X17480D02*
X17937D01*
X16337D02*
X16718D01*
X15092D02*
X15550D01*
X13873D02*
X14330D01*
X11613D02*
X13086D01*
X24897Y88198D02*
X26599D01*
X23652D02*
X24084D01*
X22382D02*
X22839D01*
X21239D02*
X21595D01*
X19842D02*
X20452D01*
X18725D02*
X19055D01*
X17505D02*
X17937D01*
X16337D02*
X16718D01*
X15118D02*
X15550D01*
X13873D02*
X14330D01*
X11613D02*
X13111D01*
X24897Y88173D02*
X26599D01*
X23652D02*
X24109D01*
X22382D02*
X22839D01*
X21239D02*
X21620D01*
X19842D02*
X20452D01*
X18725D02*
X19080D01*
X17505D02*
X17937D01*
X16337D02*
X16718D01*
X15118D02*
X15550D01*
X13899D02*
X14330D01*
X11613D02*
X13111D01*
X24922Y88148D02*
X26599D01*
X22382D02*
X22839D01*
X21239D02*
X21620D01*
X19868D02*
X20477D01*
X18725D02*
X19080D01*
X17505D02*
X17937D01*
X16337D02*
X16718D01*
X15118D02*
X15575D01*
X13899D02*
X14356D01*
X11613D02*
X13111D01*
X24922Y88122D02*
X26599D01*
X22408D02*
X22839D01*
X21265D02*
X21620D01*
X19868D02*
X20477D01*
X18725D02*
X19080D01*
X17505D02*
X17963D01*
X16362D02*
X16743D01*
X15118D02*
X15575D01*
X13899D02*
X14356D01*
X11613D02*
X13111D01*
X24948Y88097D02*
X26599D01*
X22408D02*
X22839D01*
X21265D02*
X21620D01*
X19868D02*
X20477D01*
X18750D02*
X19080D01*
X17531D02*
X17963D01*
X16362D02*
X16743D01*
X15143D02*
X15575D01*
X13899D02*
X14356D01*
X11613D02*
X13137D01*
X24948Y88071D02*
X26599D01*
X22408D02*
X22839D01*
X21265D02*
X21646D01*
X19868D02*
X20477D01*
X18750D02*
X19106D01*
X17531D02*
X17963D01*
X16362D02*
X16743D01*
X15143D02*
X15575D01*
X13924D02*
X14356D01*
X11613D02*
X13137D01*
X24973Y88046D02*
X26599D01*
X22408D02*
X22839D01*
X21265D02*
X21646D01*
X19893D02*
X20503D01*
X18750D02*
X19106D01*
X17531D02*
X17963D01*
X16362D02*
X16743D01*
X15143D02*
X15600D01*
X13924D02*
X14381D01*
X11613D02*
X13137D01*
X24998Y88021D02*
X26599D01*
X22433D02*
X22839D01*
X21290D02*
X21646D01*
X19893D02*
X20503D01*
X18750D02*
X19106D01*
X17531D02*
X17988D01*
X16388D02*
X16769D01*
X15143D02*
X15600D01*
X13924D02*
X14381D01*
X11613D02*
X13137D01*
X24998Y87995D02*
X26599D01*
X22433D02*
X22839D01*
X21290D02*
X21646D01*
X19893D02*
X20503D01*
X18775D02*
X19106D01*
X17556D02*
X17988D01*
X16388D02*
X16769D01*
X15169D02*
X15600D01*
X13924D02*
X14381D01*
X11613D02*
X13162D01*
X25024Y87970D02*
X26599D01*
X22433D02*
X22839D01*
X21290D02*
X21671D01*
X19893D02*
X20503D01*
X18775D02*
X19131D01*
X17556D02*
X17988D01*
X16388D02*
X16769D01*
X15169D02*
X15600D01*
X13949D02*
X14381D01*
X11613D02*
X13162D01*
X25024Y87944D02*
X26599D01*
X22433D02*
X22839D01*
X21290D02*
X21671D01*
X19918D02*
X20528D01*
X18775D02*
X19131D01*
X17556D02*
X17988D01*
X16388D02*
X16769D01*
X15169D02*
X15626D01*
X13949D02*
X14407D01*
X11613D02*
X13162D01*
X25049Y87919D02*
X26599D01*
X22458D02*
X22839D01*
X21315D02*
X21671D01*
X19918D02*
X20528D01*
X18775D02*
X19131D01*
X17556D02*
X18013D01*
X16413D02*
X16794D01*
X15169D02*
X15626D01*
X13949D02*
X14407D01*
X11613D02*
X13162D01*
X25049Y87894D02*
X26599D01*
X22458D02*
X22839D01*
X21315D02*
X21671D01*
X19918D02*
X20528D01*
X18801D02*
X19131D01*
X17582D02*
X18013D01*
X16413D02*
X16794D01*
X15194D02*
X15626D01*
X13949D02*
X14407D01*
X11613D02*
X13187D01*
X25075Y87868D02*
X26599D01*
X22458D02*
X22839D01*
X21315D02*
X21696D01*
X19918D02*
X20528D01*
X18801D02*
X19156D01*
X17582D02*
X18013D01*
X16413D02*
X16794D01*
X15194D02*
X15626D01*
X13975D02*
X14407D01*
X11613D02*
X13187D01*
X25075Y87843D02*
X26599D01*
X22458D02*
X22839D01*
X21315D02*
X21696D01*
X19944D02*
X20553D01*
X18801D02*
X19156D01*
X17582D02*
X18013D01*
X16413D02*
X16794D01*
X15194D02*
X15651D01*
X13975D02*
X14432D01*
X11613D02*
X13187D01*
X25100Y87817D02*
X26599D01*
X22484D02*
X22839D01*
X21341D02*
X21696D01*
X19944D02*
X20553D01*
X18801D02*
X19156D01*
X17582D02*
X18039D01*
X16439D02*
X16820D01*
X15194D02*
X15651D01*
X13975D02*
X14432D01*
X11613D02*
X13187D01*
X25100Y87792D02*
X26599D01*
X22484D02*
X22839D01*
X21341D02*
X21696D01*
X19944D02*
X20553D01*
X18826D02*
X19156D01*
X17607D02*
X18039D01*
X16439D02*
X16820D01*
X15219D02*
X15651D01*
X13975D02*
X14432D01*
X11613D02*
X13213D01*
X25125Y87767D02*
X26599D01*
X22484D02*
X22839D01*
X21341D02*
X21722D01*
X19944D02*
X20553D01*
X18826D02*
X19182D01*
X17607D02*
X18039D01*
X16439D02*
X16820D01*
X15219D02*
X15651D01*
X14000D02*
X14432D01*
X11613D02*
X13213D01*
X25125Y87741D02*
X26599D01*
X22484D02*
X22839D01*
X21341D02*
X21722D01*
X19969D02*
X20553D01*
X18826D02*
X19182D01*
X17632D02*
X18039D01*
X16439D02*
X16820D01*
X15219D02*
X15677D01*
X14000D02*
X14457D01*
X11613D02*
X13213D01*
X25151Y87716D02*
X26599D01*
X22509D02*
X22814D01*
X21366D02*
X21722D01*
X19969D02*
X20579D01*
X18826D02*
X19182D01*
X17632D02*
X18039D01*
X16464D02*
X16845D01*
X15219D02*
X15677D01*
X14000D02*
X14457D01*
X11613D02*
X13213D01*
X25151Y87690D02*
X26599D01*
X22509D02*
X22814D01*
X21366D02*
X21722D01*
X19969D02*
X20553D01*
X18852D02*
X19182D01*
X17658D02*
X18013D01*
X16464D02*
X16845D01*
X15245D02*
X15677D01*
X14000D02*
X14457D01*
X11613D02*
X13238D01*
X25176Y87665D02*
X26599D01*
X22509D02*
X22814D01*
X21366D02*
X21747D01*
X19969D02*
X20553D01*
X18852D02*
X19207D01*
X17683D02*
X18013D01*
X16464D02*
X16845D01*
X15245D02*
X15677D01*
X14026D02*
X14457D01*
X11613D02*
X13238D01*
X25202Y87640D02*
X26599D01*
X22509D02*
X22814D01*
X21366D02*
X21747D01*
X19995D02*
X20528D01*
X18852D02*
X19207D01*
X17734D02*
X17988D01*
X16464D02*
X16845D01*
X15245D02*
X15702D01*
X14026D02*
X14483D01*
X11613D02*
X13238D01*
X25202Y87614D02*
X26599D01*
X23678D02*
X24338D01*
X22535D02*
X22814D01*
X21392D02*
X21747D01*
X19995D02*
X20274D01*
X18852D02*
X19207D01*
X16489D02*
X16870D01*
X15245D02*
X15702D01*
X14026D02*
X14483D01*
X11613D02*
X13238D01*
X25227Y87589D02*
X26599D01*
X23678D02*
X24363D01*
X22535D02*
X22814D01*
X21392D02*
X21747D01*
X19995D02*
X20274D01*
X18877D02*
X19207D01*
X16489D02*
X16870D01*
X15270D02*
X15702D01*
X14026D02*
X14483D01*
X11613D02*
X13264D01*
X25227Y87563D02*
X26599D01*
X23678D02*
X24363D01*
X22535D02*
X22814D01*
X21392D02*
X21773D01*
X19995D02*
X20299D01*
X18877D02*
X19233D01*
X16489D02*
X16870D01*
X15270D02*
X15702D01*
X14051D02*
X14483D01*
X11613D02*
X13264D01*
X25252Y87538D02*
X26599D01*
X23678D02*
X24389D01*
X22535D02*
X22814D01*
X21392D02*
X21773D01*
X20020D02*
X20299D01*
X18877D02*
X19233D01*
X16489D02*
X16870D01*
X15270D02*
X15727D01*
X14051D02*
X14508D01*
X11613D02*
X13264D01*
X25252Y87513D02*
X26599D01*
X23678D02*
X24389D01*
X22560D02*
X22814D01*
X21392D02*
X21773D01*
X20020D02*
X20299D01*
X18877D02*
X19233D01*
X16515D02*
X16896D01*
X15270D02*
X15727D01*
X14051D02*
X14508D01*
X11613D02*
X13264D01*
X25278Y87487D02*
X26599D01*
X23678D02*
X24414D01*
X22560D02*
X22814D01*
X21392D02*
X21773D01*
X20020D02*
X20299D01*
X18877D02*
X19233D01*
X16515D02*
X16896D01*
X15296D02*
X15727D01*
X14051D02*
X14508D01*
X11613D02*
X13289D01*
X25278Y87462D02*
X26599D01*
X23678D02*
X24414D01*
X22560D02*
X22814D01*
X21392D02*
X21798D01*
X20020D02*
X20325D01*
X18877D02*
X19258D01*
X16515D02*
X16896D01*
X15296D02*
X15727D01*
X14076D02*
X14508D01*
X11613D02*
X13289D01*
X25303Y87436D02*
X26599D01*
X23678D02*
X24440D01*
X22560D02*
X22814D01*
X21392D02*
X21798D01*
X20045D02*
X20325D01*
X18877D02*
X19258D01*
X16515D02*
X16896D01*
X15296D02*
X15753D01*
X14076D02*
X14534D01*
X11613D02*
X13314D01*
X25303Y87411D02*
X26599D01*
X23678D02*
X24440D01*
X22585D02*
X22814D01*
X21392D02*
X21798D01*
X20045D02*
X20325D01*
X18877D02*
X19258D01*
X16540D02*
X16921D01*
X15296D02*
X15753D01*
X14076D02*
X14534D01*
X11613D02*
X13314D01*
X25329Y87386D02*
X26599D01*
X23703D02*
X24440D01*
X22585D02*
X22814D01*
X21392D02*
X21798D01*
X20045D02*
X20325D01*
X18877D02*
X19258D01*
X16540D02*
X16921D01*
X15321D02*
X15753D01*
X14076D02*
X14534D01*
X11613D02*
X13340D01*
X25329Y87360D02*
X26599D01*
X23703D02*
X24465D01*
X22585D02*
X22814D01*
X21392D02*
X21823D01*
X20045D02*
X20350D01*
X18852D02*
X19283D01*
X17709D02*
X17734D01*
X16540D02*
X16921D01*
X15321D02*
X15753D01*
X14102D02*
X14534D01*
X13111D02*
X13365D01*
X12908D02*
X12933D01*
X12705D02*
X12832D01*
X11613D02*
X12654D01*
X25354Y87335D02*
X26599D01*
X23703D02*
X24465D01*
X22585D02*
X22814D01*
X21392D02*
X21823D01*
X20071D02*
X20350D01*
X18852D02*
X19283D01*
X17709D02*
X17759D01*
X16540D02*
X16921D01*
X15321D02*
X15778D01*
X14102D02*
X14559D01*
X13060D02*
X13365D01*
X12908D02*
X13010D01*
X12730D02*
X12832D01*
X11613D02*
X12654D01*
X25379Y87309D02*
X26599D01*
X23703D02*
X24490D01*
X22611D02*
X22814D01*
X21392D02*
X21823D01*
X20071D02*
X20350D01*
X18852D02*
X19283D01*
X17709D02*
X17785D01*
X16566D02*
X16947D01*
X15321D02*
X15778D01*
X14102D02*
X14559D01*
X13060D02*
X13391D01*
X12908D02*
X13010D01*
X12730D02*
X12806D01*
X11613D02*
X12654D01*
X25379Y87284D02*
X26599D01*
X23703D02*
X24490D01*
X22611D02*
X22814D01*
X21366D02*
X21823D01*
X20071D02*
X20350D01*
X18826D02*
X19283D01*
X17709D02*
X17810D01*
X16566D02*
X16947D01*
X15346D02*
X15778D01*
X14102D02*
X14559D01*
X13060D02*
X13416D01*
X12908D02*
X13010D01*
X12730D02*
X12806D01*
X12679D02*
X12705D01*
X11613D02*
X12654D01*
X25405Y87259D02*
X26599D01*
X23703D02*
X24516D01*
X22611D02*
X22814D01*
X21366D02*
X21849D01*
X20071D02*
X20376D01*
X18826D02*
X19309D01*
X17734D02*
X17836D01*
X16566D02*
X16947D01*
X15346D02*
X15778D01*
X14127D02*
X14559D01*
X13060D02*
X13467D01*
X12908D02*
X13010D01*
X12832D02*
X12857D01*
X12756D02*
X12806D01*
X12679D02*
X12705D01*
X11613D02*
X12654D01*
X25405Y87233D02*
X26599D01*
X23703D02*
X24516D01*
X22611D02*
X22814D01*
X21341D02*
X21849D01*
X20096D02*
X20376D01*
X18801D02*
X19309D01*
X17734D02*
X17886D01*
X16566D02*
X16947D01*
X15346D02*
X15804D01*
X14127D02*
X14584D01*
X13060D02*
X13492D01*
X12908D02*
X13010D01*
X12832D02*
X12857D01*
X12756D02*
X12781D01*
X12679D02*
X12730D01*
X11613D02*
X12654D01*
X25430Y87208D02*
X26599D01*
X23703D02*
X24516D01*
X22636D02*
X22814D01*
X21290D02*
X21849D01*
X20096D02*
X20376D01*
X18775D02*
X19309D01*
X17734D02*
X17912D01*
X16591D02*
X16972D01*
X15346D02*
X15804D01*
X14127D02*
X14584D01*
X13060D02*
X13543D01*
X12908D02*
X13010D01*
X12806D02*
X12857D01*
X12679D02*
X12730D01*
X11613D02*
X12654D01*
X25430Y87182D02*
X26599D01*
X23703D02*
X24541D01*
X22636D02*
X22814D01*
X21239D02*
X21849D01*
X20096D02*
X20376D01*
X18725D02*
X19309D01*
X17734D02*
X17963D01*
X16591D02*
X16972D01*
X15372D02*
X15804D01*
X14127D02*
X14584D01*
X13060D02*
X13594D01*
X12908D02*
X13010D01*
X12806D02*
X12857D01*
X12679D02*
X12730D01*
X11613D02*
X12654D01*
X25456Y87157D02*
X26599D01*
X23703D02*
X24541D01*
X22636D02*
X22814D01*
X21163D02*
X21874D01*
X20096D02*
X20401D01*
X18674D02*
X19334D01*
X17759D02*
X18013D01*
X16591D02*
X16972D01*
X15372D02*
X15804D01*
X14153D02*
X14584D01*
X13060D02*
X13695D01*
X12908D02*
X13010D01*
X12806D02*
X12857D01*
X12679D02*
X12756D01*
X11613D02*
X12654D01*
X20934Y87132D02*
X26599D01*
X18623D02*
X20630D01*
X11613D02*
X18090D01*
X18496Y87106D02*
X26599D01*
X11613D02*
X18217D01*
X11613Y87081D02*
X26599D01*
X11613Y87055D02*
X26599D01*
X11613Y87030D02*
X26599D01*
X11613Y87005D02*
X26599D01*
X11613Y86979D02*
X26599D01*
X11613Y86954D02*
X26599D01*
X11613Y86928D02*
X26599D01*
X11613Y86903D02*
X26599D01*
X11613Y86878D02*
X26599D01*
X11613Y86852D02*
X26599D01*
X11613Y86827D02*
X26599D01*
X11613Y86801D02*
X26599D01*
X11613Y86776D02*
X26599D01*
X11613Y86751D02*
X26599D01*
X11613Y86725D02*
X26599D01*
X11613Y86700D02*
X26599D01*
X11613Y86674D02*
X26599D01*
X11613Y86649D02*
X26599D01*
X11613Y86624D02*
X26599D01*
X11613Y86598D02*
X26599D01*
X11613Y86573D02*
X26599D01*
X24338Y86547D02*
X26599D01*
X22027D02*
X24236D01*
X13111D02*
X21925D01*
X12908D02*
X12933D01*
X12705D02*
X12832D01*
X11613D02*
X12654D01*
X24338Y86522D02*
X26599D01*
X23906D02*
X24236D01*
X22027D02*
X23805D01*
X19410D02*
X21925D01*
X16845D02*
X19309D01*
X14178D02*
X16743D01*
X13035D02*
X14076D01*
X12908D02*
X13010D01*
X12730D02*
X12832D01*
X11613D02*
X12654D01*
X25481Y86497D02*
X26599D01*
X25100D02*
X25329D01*
X24338D02*
X24922D01*
X23906D02*
X24236D01*
X22458D02*
X23805D01*
X22027D02*
X22154D01*
X19410D02*
X21925D01*
X18191D02*
X19309D01*
X16845D02*
X17937D01*
X15423D02*
X16743D01*
X14178D02*
X15118D01*
X13035D02*
X14076D01*
X12908D02*
X13010D01*
X12730D02*
X12806D01*
X11613D02*
X12654D01*
X25481Y86471D02*
X26599D01*
X25100D02*
X25303D01*
X24338D02*
X24922D01*
X23906D02*
X24236D01*
X22458D02*
X23805D01*
X22027D02*
X22154D01*
X20909D02*
X21925D01*
X19410D02*
X20858D01*
X18191D02*
X19309D01*
X16845D02*
X17861D01*
X15423D02*
X16743D01*
X14178D02*
X15118D01*
X13035D02*
X14076D01*
X12908D02*
X13010D01*
X12756D02*
X12806D01*
X12679D02*
X12705D01*
X11613D02*
X12654D01*
X25481Y86446D02*
X26599D01*
X25100D02*
X25303D01*
X24338D02*
X24922D01*
X22458D02*
X24236D01*
X22027D02*
X22154D01*
X20960D02*
X21925D01*
X18191D02*
X20858D01*
X15423D02*
X17836D01*
X13035D02*
X15118D01*
X12908D02*
X13010D01*
X12832D02*
X12857D01*
X12756D02*
X12781D01*
X12679D02*
X12705D01*
X11613D02*
X12654D01*
X25481Y86420D02*
X26599D01*
X25125D02*
X25303D01*
X24338D02*
X24922D01*
X22458D02*
X24236D01*
X22027D02*
X22357D01*
X20960D02*
X21925D01*
X18191D02*
X20858D01*
X17988D02*
X18090D01*
X15423D02*
X17810D01*
X13035D02*
X15296D01*
X12908D02*
X13010D01*
X12832D02*
X12857D01*
X12679D02*
X12730D01*
X11613D02*
X12654D01*
X25481Y86395D02*
X26599D01*
X25125D02*
X25278D01*
X24338D02*
X24922D01*
X22458D02*
X24236D01*
X22027D02*
X22357D01*
X20960D02*
X21925D01*
X18191D02*
X20858D01*
X17937D02*
X18090D01*
X15423D02*
X17810D01*
X13035D02*
X15296D01*
X12908D02*
X13010D01*
X12806D02*
X12857D01*
X12679D02*
X12730D01*
X11613D02*
X12654D01*
X25481Y86370D02*
X26599D01*
X25125D02*
X25278D01*
X24744D02*
X24922D01*
X24338D02*
X24516D01*
X24135D02*
X24236D01*
X23906D02*
X24008D01*
X23652D02*
X23805D01*
X23525D02*
X23576D01*
X23119D02*
X23373D01*
X22941D02*
X22966D01*
X22458D02*
X22839D01*
X22027D02*
X22357D01*
X21722D02*
X21925D01*
X21265D02*
X21544D01*
X21036D02*
X21087D01*
X20655D02*
X20782D01*
X20528D02*
X20579D01*
X20274D02*
X20452D01*
X19893D02*
X20096D01*
X19741D02*
X19791D01*
X19410D02*
X19588D01*
X19106D02*
X19309D01*
X18775D02*
X18902D01*
X18191D02*
X18572D01*
X17912D02*
X18090D01*
X17582D02*
X17785D01*
X17175D02*
X17404D01*
X16845D02*
X16972D01*
X16566D02*
X16743D01*
X16362D02*
X16413D01*
X16134D02*
X16261D01*
X16007D02*
X16032D01*
X15423D02*
X15854D01*
X14940D02*
X15296D01*
X14508D02*
X14737D01*
X14178D02*
X14305D01*
X13873D02*
X14076D01*
X13492D02*
X13695D01*
X13365D02*
X13416D01*
X13035D02*
X13289D01*
X12908D02*
X13010D01*
X12806D02*
X12857D01*
X12679D02*
X12756D01*
X11613D02*
X12654D01*
X25481Y86344D02*
X26599D01*
X25151D02*
X25278D01*
X25024D02*
X25049D01*
X24770D02*
X24922D01*
X24338D02*
X24490D01*
X24160D02*
X24236D01*
X23906D02*
X24033D01*
X23652D02*
X23805D01*
X23144D02*
X23347D01*
X22458D02*
X22839D01*
X22027D02*
X22357D01*
X21747D02*
X21925D01*
X21315D02*
X21519D01*
X21036D02*
X21087D01*
X20655D02*
X20782D01*
X20553D02*
X20579D01*
X20325D02*
X20452D01*
X19893D02*
X20045D01*
X19410D02*
X19563D01*
X19131D02*
X19309D01*
X18801D02*
X18928D01*
X18191D02*
X18572D01*
X17912D02*
X18090D01*
X17632D02*
X17785D01*
X17201D02*
X17378D01*
X16845D02*
X16972D01*
X16591D02*
X16743D01*
X16134D02*
X16261D01*
X15423D02*
X15829D01*
X14965D02*
X15296D01*
X14534D02*
X14711D01*
X14178D02*
X14305D01*
X13899D02*
X14076D01*
X13492D02*
X13670D01*
X13391D02*
X13416D01*
X11613D02*
X13289D01*
X25481Y86319D02*
X26599D01*
X25354D02*
X25379D01*
X25151D02*
X25252D01*
X25024D02*
X25049D01*
X24770D02*
X24922D01*
X24338D02*
X24490D01*
X24160D02*
X24236D01*
X23906D02*
X24059D01*
X23652D02*
X23805D01*
X23170D02*
X23322D01*
X22458D02*
X22839D01*
X22027D02*
X22357D01*
X21773D02*
X21925D01*
X21341D02*
X21493D01*
X21036D02*
X21087D01*
X20655D02*
X20782D01*
X20350D02*
X20452D01*
X19893D02*
X20045D01*
X19410D02*
X19563D01*
X19156D02*
X19309D01*
X18826D02*
X18928D01*
X18191D02*
X18572D01*
X17886D02*
X18090D01*
X17632D02*
X17785D01*
X17226D02*
X17353D01*
X16845D02*
X16997D01*
X16616D02*
X16743D01*
X16134D02*
X16261D01*
X15423D02*
X15804D01*
X14965D02*
X15296D01*
X14559D02*
X14686D01*
X14178D02*
X14305D01*
X13924D02*
X14076D01*
X13492D02*
X13645D01*
X11613D02*
X13289D01*
X25481Y86293D02*
X26599D01*
X25354D02*
X25379D01*
X25151D02*
X25252D01*
X25024D02*
X25049D01*
X24770D02*
X24922D01*
X24567D02*
X24719D01*
X24338D02*
X24465D01*
X24186D02*
X24236D01*
X23906D02*
X24084D01*
X23652D02*
X23805D01*
X23424D02*
X23525D01*
X23195D02*
X23322D01*
X22966D02*
X23068D01*
X22458D02*
X22839D01*
X22027D02*
X22179D01*
X21798D02*
X21925D01*
X21569D02*
X21696D01*
X21341D02*
X21468D01*
X20960D02*
X21214D01*
X20655D02*
X20858D01*
X20376D02*
X20452D01*
X20147D02*
X20249D01*
X19893D02*
X20020D01*
X19664D02*
X19741D01*
X19410D02*
X19537D01*
X19182D02*
X19309D01*
X18826D02*
X19055D01*
X18191D02*
X18725D01*
X17886D02*
X18090D01*
X17658D02*
X17759D01*
X17429D02*
X17556D01*
X17226D02*
X17353D01*
X16845D02*
X17124D01*
X16616D02*
X16743D01*
X16413D02*
X16489D01*
X16134D02*
X16261D01*
X15905D02*
X16007D01*
X15423D02*
X15804D01*
X14965D02*
X15118D01*
X14788D02*
X14915D01*
X14559D02*
X14686D01*
X14178D02*
X14457D01*
X13949D02*
X14076D01*
X13721D02*
X13848D01*
X13492D02*
X13645D01*
X11613D02*
X13289D01*
X25481Y86268D02*
X26599D01*
X25329D02*
X25379D01*
X25151D02*
X25252D01*
X25024D02*
X25075D01*
X24567D02*
X24922D01*
X24338D02*
X24465D01*
X24211D02*
X24236D01*
X23906D02*
X24084D01*
X23652D02*
X23805D01*
X23424D02*
X23551D01*
X23195D02*
X23322D01*
X22941D02*
X23093D01*
X22458D02*
X22839D01*
X22027D02*
X22179D01*
X21798D02*
X21925D01*
X21569D02*
X21696D01*
X21366D02*
X21468D01*
X20960D02*
X21239D01*
X20655D02*
X20858D01*
X20376D02*
X20553D01*
X20122D02*
X20274D01*
X19893D02*
X19995D01*
X19639D02*
X19766D01*
X19410D02*
X19537D01*
X19182D02*
X19309D01*
X18826D02*
X19055D01*
X18191D02*
X18725D01*
X17886D02*
X18090D01*
X17658D02*
X17759D01*
X17429D02*
X17582D01*
X17226D02*
X17328D01*
X16845D02*
X17124D01*
X16642D02*
X16743D01*
X16388D02*
X16515D01*
X16134D02*
X16261D01*
X15905D02*
X16007D01*
X15423D02*
X15804D01*
X14762D02*
X15118D01*
X14559D02*
X14661D01*
X14178D02*
X14457D01*
X13949D02*
X14076D01*
X13721D02*
X13873D01*
X13492D02*
X13619D01*
X11613D02*
X13365D01*
X25481Y86243D02*
X26599D01*
X25329D02*
X25379D01*
X25176D02*
X25227D01*
X25024D02*
X25075D01*
X24567D02*
X24922D01*
X24338D02*
X24465D01*
X23906D02*
X24109D01*
X23652D02*
X23805D01*
X23424D02*
X23551D01*
X23195D02*
X23322D01*
X22941D02*
X23093D01*
X22458D02*
X22839D01*
X22027D02*
X22179D01*
X21798D02*
X21925D01*
X21544D02*
X21722D01*
X21366D02*
X21468D01*
X20960D02*
X21265D01*
X20655D02*
X20858D01*
X20376D02*
X20553D01*
X20096D02*
X20274D01*
X19893D02*
X19995D01*
X19639D02*
X19766D01*
X19410D02*
X19537D01*
X19182D02*
X19309D01*
X18826D02*
X19080D01*
X18191D02*
X18699D01*
X17886D02*
X18090D01*
X17683D02*
X17759D01*
X17429D02*
X17582D01*
X17226D02*
X17328D01*
X16845D02*
X17099D01*
X16642D02*
X16743D01*
X16388D02*
X16540D01*
X16134D02*
X16261D01*
X15905D02*
X16032D01*
X15423D02*
X15804D01*
X14762D02*
X15118D01*
X14559D02*
X14661D01*
X14178D02*
X14432D01*
X13975D02*
X14076D01*
X13721D02*
X13873D01*
X13492D02*
X13619D01*
X11613D02*
X13391D01*
X25481Y86217D02*
X26599D01*
X25329D02*
X25379D01*
X25176D02*
X25227D01*
X25024D02*
X25075D01*
X24744D02*
X24922D01*
X24338D02*
X24465D01*
X23906D02*
X24135D01*
X23652D02*
X23805D01*
X23424D02*
X23551D01*
X23195D02*
X23322D01*
X22941D02*
X23093D01*
X22458D02*
X22839D01*
X22027D02*
X22357D01*
X21798D02*
X21925D01*
X21366D02*
X21468D01*
X20960D02*
X21265D01*
X20655D02*
X20858D01*
X20376D02*
X20553D01*
X20096D02*
X20274D01*
X19893D02*
X19995D01*
X19639D02*
X19791D01*
X19410D02*
X19537D01*
X19182D02*
X19309D01*
X18826D02*
X19080D01*
X18191D02*
X18623D01*
X17886D02*
X18090D01*
X17683D02*
X17759D01*
X17226D02*
X17328D01*
X16845D02*
X17023D01*
X16642D02*
X16743D01*
X16362D02*
X16540D01*
X16134D02*
X16261D01*
X15880D02*
X16032D01*
X15423D02*
X15804D01*
X14940D02*
X15296D01*
X14559D02*
X14661D01*
X14178D02*
X14356D01*
X13975D02*
X14076D01*
X13492D02*
X13619D01*
X11613D02*
X13391D01*
X25481Y86192D02*
X26599D01*
X25329D02*
X25379D01*
X25176D02*
X25227D01*
X25024D02*
X25100D01*
X24770D02*
X24922D01*
X24338D02*
X24465D01*
X23906D02*
X24135D01*
X23652D02*
X23805D01*
X23424D02*
X23551D01*
X23195D02*
X23322D01*
X22941D02*
X23093D01*
X22458D02*
X22839D01*
X22027D02*
X22357D01*
X21798D02*
X21925D01*
X21366D02*
X21468D01*
X20960D02*
X21265D01*
X20655D02*
X20858D01*
X20376D02*
X20553D01*
X20096D02*
X20274D01*
X19893D02*
X19995D01*
X19639D02*
X19791D01*
X19410D02*
X19537D01*
X19182D02*
X19309D01*
X18801D02*
X19080D01*
X18191D02*
X18572D01*
X17886D02*
X18090D01*
X17683D02*
X17785D01*
X17201D02*
X17328D01*
X16845D02*
X16997D01*
X16642D02*
X16743D01*
X16362D02*
X16540D01*
X16134D02*
X16261D01*
X15880D02*
X16032D01*
X15423D02*
X15804D01*
X14965D02*
X15296D01*
X14534D02*
X14661D01*
X14178D02*
X14305D01*
X13975D02*
X14076D01*
X13492D02*
X13619D01*
X11613D02*
X13391D01*
X25481Y86166D02*
X26599D01*
X25303D02*
X25379D01*
X25202D02*
X25227D01*
X25024D02*
X25100D01*
X24795D02*
X24922D01*
X24567D02*
X24668D01*
X24338D02*
X24465D01*
X23906D02*
X24109D01*
X23652D02*
X23805D01*
X23424D02*
X23551D01*
X23195D02*
X23322D01*
X22941D02*
X23093D01*
X22458D02*
X22839D01*
X22027D02*
X22357D01*
X21798D02*
X21925D01*
X21366D02*
X21468D01*
X20960D02*
X21265D01*
X20655D02*
X20858D01*
X20376D02*
X20579D01*
X20096D02*
X20274D01*
X19893D02*
X19995D01*
X19639D02*
X19791D01*
X19410D02*
X19537D01*
X19182D02*
X19309D01*
X18750D02*
X19080D01*
X18191D02*
X18572D01*
X17912D02*
X18090D01*
X17683D02*
X17785D01*
X17150D02*
X17328D01*
X16845D02*
X16972D01*
X16642D02*
X16743D01*
X16362D02*
X16540D01*
X16134D02*
X16261D01*
X15880D02*
X16032D01*
X15423D02*
X15804D01*
X14991D02*
X15296D01*
X14762D02*
X14864D01*
X14457D02*
X14661D01*
X14178D02*
X14305D01*
X13975D02*
X14076D01*
X13492D02*
X13619D01*
X11613D02*
X13391D01*
X25481Y86141D02*
X26599D01*
X25303D02*
X25379D01*
X25024D02*
X25100D01*
X24795D02*
X24922D01*
X24567D02*
X24694D01*
X24338D02*
X24465D01*
X24211D02*
X24236D01*
X23906D02*
X24084D01*
X23652D02*
X23805D01*
X23424D02*
X23551D01*
X23195D02*
X23322D01*
X22941D02*
X23093D01*
X22458D02*
X22839D01*
X22027D02*
X22357D01*
X21798D02*
X21925D01*
X21366D02*
X21722D01*
X20960D02*
X21265D01*
X20655D02*
X20858D01*
X20376D02*
X20579D01*
X20096D02*
X20274D01*
X19893D02*
X19995D01*
X19639D02*
X19791D01*
X19410D02*
X19537D01*
X19182D02*
X19309D01*
X18674D02*
X19080D01*
X18191D02*
X18572D01*
X17912D02*
X18090D01*
X17683D02*
X17785D01*
X17074D02*
X17582D01*
X16845D02*
X16972D01*
X16642D02*
X16743D01*
X16388D02*
X16515D01*
X16134D02*
X16261D01*
X15880D02*
X16032D01*
X15423D02*
X15804D01*
X14991D02*
X15296D01*
X14762D02*
X14889D01*
X14407D02*
X14661D01*
X14178D02*
X14305D01*
X13975D02*
X14076D01*
X13492D02*
X13873D01*
X11613D02*
X13391D01*
X25481Y86116D02*
X26599D01*
X25303D02*
X25379D01*
X25024D02*
X25125D01*
X24795D02*
X24922D01*
X24567D02*
X24694D01*
X24338D02*
X24465D01*
X24186D02*
X24236D01*
X23906D02*
X24059D01*
X23652D02*
X23805D01*
X23424D02*
X23551D01*
X23195D02*
X23322D01*
X22966D02*
X23068D01*
X22458D02*
X22839D01*
X22027D02*
X22357D01*
X21798D02*
X21925D01*
X21366D02*
X21696D01*
X20960D02*
X21239D01*
X20655D02*
X20858D01*
X20376D02*
X20579D01*
X20122D02*
X20274D01*
X19893D02*
X19995D01*
X19639D02*
X19791D01*
X19410D02*
X19537D01*
X19182D02*
X19309D01*
X18674D02*
X19055D01*
X18191D02*
X18572D01*
X17963D02*
X18090D01*
X17658D02*
X17810D01*
X17074D02*
X17556D01*
X16845D02*
X16972D01*
X16642D02*
X16743D01*
X16388D02*
X16515D01*
X16134D02*
X16261D01*
X15880D02*
X16032D01*
X15423D02*
X15804D01*
X14991D02*
X15296D01*
X14762D02*
X14915D01*
X14407D02*
X14661D01*
X14178D02*
X14280D01*
X13949D02*
X14076D01*
X13492D02*
X13848D01*
X11613D02*
X13391D01*
X25481Y86090D02*
X26599D01*
X25278D02*
X25379D01*
X25024D02*
X25125D01*
X24795D02*
X24922D01*
X24592D02*
X24694D01*
X24338D02*
X24465D01*
X24160D02*
X24236D01*
X23906D02*
X24059D01*
X23652D02*
X23805D01*
X23424D02*
X23551D01*
X23195D02*
X23322D01*
X22992D02*
X23043D01*
X22458D02*
X22839D01*
X22027D02*
X22357D01*
X21798D02*
X21925D01*
X21519D02*
X21671D01*
X21341D02*
X21493D01*
X20960D02*
X21214D01*
X20655D02*
X20833D01*
X20376D02*
X20579D01*
X20147D02*
X20249D01*
X19893D02*
X20020D01*
X19639D02*
X19791D01*
X19410D02*
X19537D01*
X19182D02*
X19309D01*
X18674D02*
X19029D01*
X18191D02*
X18572D01*
X18013D02*
X18090D01*
X17658D02*
X17810D01*
X17378D02*
X17531D01*
X17074D02*
X17353D01*
X16845D02*
X16972D01*
X16616D02*
X16743D01*
X16413D02*
X16489D01*
X16134D02*
X16261D01*
X15880D02*
X16032D01*
X15423D02*
X15804D01*
X14991D02*
X15296D01*
X14788D02*
X14889D01*
X14407D02*
X14661D01*
X14178D02*
X14305D01*
X13949D02*
X14076D01*
X13670D02*
X13822D01*
X13492D02*
X13645D01*
X11613D02*
X13391D01*
X25481Y86065D02*
X26599D01*
X25278D02*
X25379D01*
X25024D02*
X25125D01*
X24795D02*
X24922D01*
X24338D02*
X24465D01*
X24160D02*
X24236D01*
X23906D02*
X24033D01*
X23652D02*
X23805D01*
X23424D02*
X23551D01*
X23170D02*
X23322D01*
X22458D02*
X22839D01*
X22027D02*
X22154D01*
X21773D02*
X21925D01*
X21341D02*
X21493D01*
X20960D02*
X21087D01*
X20655D02*
X20757D01*
X20350D02*
X20579D01*
X19893D02*
X20045D01*
X19639D02*
X19791D01*
X19410D02*
X19537D01*
X19156D02*
X19309D01*
X18826D02*
X18902D01*
X18191D02*
X18572D01*
X17632D02*
X17836D01*
X17226D02*
X17353D01*
X16845D02*
X16972D01*
X16616D02*
X16743D01*
X16134D02*
X16261D01*
X15880D02*
X16032D01*
X15423D02*
X15804D01*
X14991D02*
X15118D01*
X14559D02*
X14661D01*
X14178D02*
X14305D01*
X13924D02*
X14076D01*
X13492D02*
X13645D01*
X11613D02*
X13391D01*
X25481Y86039D02*
X26599D01*
X25278D02*
X25379D01*
X25024D02*
X25151D01*
X24770D02*
X24922D01*
X24338D02*
X24465D01*
X24135D02*
X24236D01*
X23906D02*
X24008D01*
X23652D02*
X23805D01*
X23424D02*
X23551D01*
X23144D02*
X23322D01*
X22458D02*
X22839D01*
X22027D02*
X22154D01*
X21747D02*
X21925D01*
X21315D02*
X21493D01*
X20934D02*
X21087D01*
X20655D02*
X20757D01*
X20325D02*
X20579D01*
X19893D02*
X20045D01*
X19639D02*
X19791D01*
X19410D02*
X19537D01*
X19131D02*
X19309D01*
X18826D02*
X18902D01*
X18191D02*
X18598D01*
X17607D02*
X17886D01*
X17226D02*
X17353D01*
X16845D02*
X16997D01*
X16591D02*
X16743D01*
X16362D02*
X16388D01*
X16134D02*
X16261D01*
X15880D02*
X16032D01*
X15423D02*
X15804D01*
X14991D02*
X15118D01*
X14559D02*
X14661D01*
X14178D02*
X14330D01*
X13899D02*
X14076D01*
X13492D02*
X13645D01*
X11613D02*
X13391D01*
X25481Y86014D02*
X26599D01*
X25252D02*
X25379D01*
X25024D02*
X25151D01*
X24744D02*
X24922D01*
X24541D02*
X24592D01*
X24338D02*
X24465D01*
X24109D02*
X24236D01*
X23906D02*
X23982D01*
X23652D02*
X23805D01*
X23424D02*
X23551D01*
X23119D02*
X23322D01*
X22941D02*
X22992D01*
X22458D02*
X22839D01*
X22027D02*
X22154D01*
X21696D02*
X21925D01*
X21265D02*
X21493D01*
X20909D02*
X21087D01*
X20655D02*
X20757D01*
X20274D02*
X20579D01*
X19893D02*
X20096D01*
X19639D02*
X19791D01*
X19410D02*
X19537D01*
X19080D02*
X19309D01*
X18826D02*
X18902D01*
X18191D02*
X18623D01*
X17582D02*
X17937D01*
X17226D02*
X17378D01*
X16845D02*
X17023D01*
X16540D02*
X16743D01*
X16362D02*
X16439D01*
X16134D02*
X16261D01*
X15880D02*
X16032D01*
X15423D02*
X15804D01*
X14940D02*
X15118D01*
X14762D02*
X14788D01*
X14559D02*
X14661D01*
X14178D02*
X14356D01*
X13873D02*
X14076D01*
X13492D02*
X13670D01*
X11613D02*
X13391D01*
X22941Y85989D02*
X26599D01*
X16388D02*
X22839D01*
X11613D02*
X16286D01*
X22966Y85963D02*
X26599D01*
X16388D02*
X22839D01*
X11613D02*
X16286D01*
X23170Y85938D02*
X26599D01*
X22992D02*
X23119D01*
X16591D02*
X22865D01*
X16413D02*
X16540D01*
X11613D02*
X16286D01*
X23170Y85912D02*
X26599D01*
X16591D02*
X22865D01*
X11613D02*
X16312D01*
X23170Y85887D02*
X26599D01*
X16591D02*
X22890D01*
X11613D02*
X16337D01*
X23144Y85862D02*
X26599D01*
X16566D02*
X22916D01*
X11613D02*
X16362D01*
X11613Y85836D02*
X26599D01*
X11613Y85811D02*
X26599D01*
X11613Y85785D02*
X26599D01*
X11613Y85760D02*
X26599D01*
X11613Y85735D02*
X26599D01*
X11613Y85709D02*
X26599D01*
X11613Y85684D02*
X26599D01*
X11613Y85658D02*
X26599D01*
X11613Y85633D02*
X26599D01*
X11613Y85608D02*
X26599D01*
X11613Y85582D02*
X26599D01*
X11613Y85557D02*
X26599D01*
X11613Y85531D02*
X26599D01*
X11613Y85506D02*
X26599D01*
X11638Y85481D02*
X26599D01*
X11638Y85455D02*
X26599D01*
X11638Y85430D02*
X26599D01*
X11663Y85404D02*
X26599D01*
X11663Y85379D02*
X26599D01*
X11663Y85354D02*
X26599D01*
X11689Y85328D02*
X26599D01*
X11689Y85303D02*
X26599D01*
X11714Y85277D02*
X26599D01*
X11714Y85252D02*
X26599D01*
X11740Y85227D02*
X26599D01*
X11765Y85201D02*
X26599D01*
X11765Y85176D02*
X26599D01*
X11790Y85150D02*
X26599D01*
X11816Y85125D02*
X26599D01*
X11841Y85100D02*
X26599D01*
X11867Y85074D02*
X26599D01*
X11892Y85049D02*
X26599D01*
X11917Y85023D02*
X26599D01*
X11943Y84998D02*
X26599D01*
X11968Y84973D02*
X26599D01*
X11994Y84947D02*
X26599D01*
X12019Y84922D02*
X26599D01*
X12070Y84896D02*
X26599D01*
X12095Y84871D02*
X26599D01*
X12146Y84846D02*
X26599D01*
X12197Y84820D02*
X26599D01*
X12248Y84795D02*
X26599D01*
X36131Y92280D02*
X36258D01*
X36105Y92254D02*
X36309D01*
X36055Y92229D02*
X36359D01*
X36258Y92204D02*
X36410D01*
X36004D02*
X36156D01*
X36283Y92178D02*
X36436D01*
X35978D02*
X36131D01*
X36334Y92153D02*
X36486D01*
X35928D02*
X36080D01*
X36385Y92127D02*
X36537D01*
X35877D02*
X36029D01*
X36436Y92102D02*
X36588D01*
X35826D02*
X35978D01*
X36461Y92077D02*
X36613D01*
X35801D02*
X35953D01*
X36512Y92051D02*
X36664D01*
X36156D02*
X36258D01*
X35750D02*
X35902D01*
X36563Y92026D02*
X36715D01*
X36105D02*
X36283D01*
X35699D02*
X35851D01*
X36588Y92000D02*
X36740D01*
X36080D02*
X36334D01*
X35648D02*
X35801D01*
X36639Y91975D02*
X36791D01*
X36029D02*
X36385D01*
X35623D02*
X35775D01*
X36690Y91950D02*
X36842D01*
X36182D02*
X36436D01*
X35978D02*
X36131D01*
X35572D02*
X35724D01*
X36740Y91924D02*
X36893D01*
X36182D02*
X36486D01*
X35928D02*
X36080D01*
X35521D02*
X35674D01*
X36766Y91899D02*
X36918D01*
X36182D02*
X36512D01*
X35902D02*
X36055D01*
X35496D02*
X35623D01*
X36817Y91873D02*
X36969D01*
X36182D02*
X36563D01*
X35851D02*
X36004D01*
X35445D02*
X35597D01*
X36867Y91848D02*
X37020D01*
X36182D02*
X36613D01*
X35801D02*
X35953D01*
X35394D02*
X35547D01*
X36918Y91823D02*
X37071D01*
X36182D02*
X36639D01*
X35750D02*
X35902D01*
X35343D02*
X35496D01*
X36944Y91797D02*
X37096D01*
X36182D02*
X36690D01*
X35724D02*
X35877D01*
X35318D02*
X35470D01*
X36994Y91772D02*
X37147D01*
X36182D02*
X36740D01*
X35674D02*
X35826D01*
X35267D02*
X35420D01*
X37045Y91746D02*
X37198D01*
X36182D02*
X36791D01*
X35623D02*
X35775D01*
X35216D02*
X35369D01*
X37071Y91721D02*
X37223D01*
X36182D02*
X36817D01*
X35597D02*
X35750D01*
X35166D02*
X35318D01*
X37121Y91696D02*
X37274D01*
X36182D02*
X36867D01*
X35547D02*
X35699D01*
X35140D02*
X35293D01*
X37172Y91670D02*
X37325D01*
X36182D02*
X36918D01*
X35496D02*
X35648D01*
X35089D02*
X35242D01*
X37223Y91645D02*
X37375D01*
X36182D02*
X36969D01*
X35445D02*
X35597D01*
X35039D02*
X35191D01*
X37248Y91619D02*
X37401D01*
X36182D02*
X36994D01*
X35420D02*
X35572D01*
X34988D02*
X35140D01*
X37299Y91594D02*
X37452D01*
X36182D02*
X37045D01*
X35369D02*
X35521D01*
X34962D02*
X35115D01*
X37350Y91569D02*
X37502D01*
X36182D02*
X37096D01*
X35318D02*
X35470D01*
X34912D02*
X35064D01*
X37401Y91543D02*
X37553D01*
X36182D02*
X37147D01*
X35267D02*
X35420D01*
X34861D02*
X35013D01*
X37426Y91518D02*
X37579D01*
X36182D02*
X37172D01*
X35242D02*
X35394D01*
X34835D02*
X34988D01*
X37477Y91492D02*
X37629D01*
X36182D02*
X37223D01*
X35191D02*
X35343D01*
X34785D02*
X34937D01*
X37528Y91467D02*
X37680D01*
X36182D02*
X37274D01*
X35140D02*
X35293D01*
X34734D02*
X34886D01*
X37553Y91442D02*
X37731D01*
X36182D02*
X37299D01*
X35089D02*
X35242D01*
X34683D02*
X34835D01*
X37604Y91416D02*
X37756D01*
X36182D02*
X37350D01*
X35064D02*
X35216D01*
X34658D02*
X34810D01*
X37655Y91391D02*
X37807D01*
X36182D02*
X37401D01*
X35013D02*
X35166D01*
X34607D02*
X34759D01*
X37706Y91365D02*
X37858D01*
X36182D02*
X37452D01*
X34962D02*
X35115D01*
X34556D02*
X34708D01*
X37731Y91340D02*
X37883D01*
X36182D02*
X37477D01*
X34912D02*
X35064D01*
X34505D02*
X34658D01*
X37782Y91315D02*
X37934D01*
X36182D02*
X37528D01*
X34886D02*
X35039D01*
X34480D02*
X34632D01*
X37833Y91289D02*
X37985D01*
X36182D02*
X37579D01*
X34835D02*
X34988D01*
X34429D02*
X34581D01*
X37883Y91264D02*
X38036D01*
X36182D02*
X37629D01*
X34785D02*
X34937D01*
X34378D02*
X34531D01*
X37909Y91238D02*
X38061D01*
X36182D02*
X37655D01*
X34759D02*
X34912D01*
X34327D02*
X34505D01*
X37960Y91213D02*
X38112D01*
X36182D02*
X37706D01*
X34708D02*
X34861D01*
X34302D02*
X34454D01*
X38010Y91188D02*
X38163D01*
X36182D02*
X37756D01*
X34658D02*
X34810D01*
X34251D02*
X34404D01*
X38061Y91162D02*
X38214D01*
X36182D02*
X37807D01*
X34607D02*
X34759D01*
X34200D02*
X34353D01*
X38087Y91137D02*
X38239D01*
X36182D02*
X37833D01*
X34581D02*
X34734D01*
X34175D02*
X34327D01*
X38137Y91111D02*
X38290D01*
X36182D02*
X37883D01*
X34531D02*
X34683D01*
X34124D02*
X34277D01*
X38188Y91086D02*
X38341D01*
X36182D02*
X37934D01*
X34480D02*
X34632D01*
X34073D02*
X34226D01*
X38214Y91061D02*
X38366D01*
X36182D02*
X37985D01*
X34429D02*
X34581D01*
X34023D02*
X34175D01*
X38264Y91035D02*
X38417D01*
X36182D02*
X38010D01*
X34404D02*
X34556D01*
X33997D02*
X34150D01*
X38315Y91010D02*
X38417D01*
X36182D02*
X38061D01*
X34353D02*
X34505D01*
X33997D02*
X34099D01*
X38341Y90984D02*
X38417D01*
X36182D02*
X38112D01*
X34302D02*
X34454D01*
X33997D02*
X34073D01*
X38341Y90959D02*
X38417D01*
X36182D02*
X38137D01*
X34277D02*
X34404D01*
X33997D02*
X34073D01*
X38341Y90934D02*
X38417D01*
X36182D02*
X38188D01*
X34200D02*
X34378D01*
X33997D02*
X34073D01*
X38341Y90908D02*
X38417D01*
X36182D02*
X38188D01*
X34200D02*
X34327D01*
X33997D02*
X34073D01*
X38341Y90883D02*
X38417D01*
X36182D02*
X38188D01*
X34200D02*
X34277D01*
X33997D02*
X34073D01*
X38341Y90857D02*
X38417D01*
X36182D02*
X38188D01*
X34200D02*
X34277D01*
X33997D02*
X34073D01*
X38341Y90832D02*
X38417D01*
X36182D02*
X38188D01*
X34200D02*
X34277D01*
X33997D02*
X34073D01*
X38341Y90807D02*
X38417D01*
X36182D02*
X38188D01*
X34200D02*
X34277D01*
X33997D02*
X34073D01*
X38341Y90781D02*
X38417D01*
X36182D02*
X38188D01*
X34200D02*
X34277D01*
X33997D02*
X34073D01*
X38341Y90756D02*
X38417D01*
X36182D02*
X38188D01*
X34200D02*
X34277D01*
X33997D02*
X34073D01*
X38341Y90730D02*
X38417D01*
X36182D02*
X38188D01*
X34200D02*
X34277D01*
X33997D02*
X34073D01*
X38341Y90705D02*
X38417D01*
X36182D02*
X38188D01*
X34200D02*
X34277D01*
X33997D02*
X34073D01*
X38341Y90680D02*
X38417D01*
X36182D02*
X38188D01*
X34200D02*
X34277D01*
X33997D02*
X34073D01*
X38341Y90654D02*
X38417D01*
X36182D02*
X38188D01*
X34200D02*
X34277D01*
X33997D02*
X34073D01*
X38341Y90629D02*
X38417D01*
X36182D02*
X38188D01*
X34200D02*
X34277D01*
X33997D02*
X34073D01*
X38341Y90603D02*
X38417D01*
X36182D02*
X38188D01*
X34200D02*
X34277D01*
X33997D02*
X34073D01*
X38341Y90578D02*
X38417D01*
X36182D02*
X38188D01*
X34200D02*
X34277D01*
X33997D02*
X34073D01*
X38341Y90553D02*
X38417D01*
X36182D02*
X38188D01*
X34200D02*
X34277D01*
X33997D02*
X34073D01*
X38341Y90527D02*
X38417D01*
X36182D02*
X38188D01*
X34200D02*
X34277D01*
X33997D02*
X34073D01*
X38341Y90502D02*
X38417D01*
X36182D02*
X38188D01*
X34200D02*
X34277D01*
X33997D02*
X34073D01*
X38341Y90476D02*
X38417D01*
X36182D02*
X38188D01*
X34200D02*
X34277D01*
X33997D02*
X34073D01*
X38341Y90451D02*
X38417D01*
X36182D02*
X38188D01*
X34200D02*
X34277D01*
X33997D02*
X34073D01*
X38341Y90426D02*
X38417D01*
X36182D02*
X38188D01*
X34200D02*
X34277D01*
X33997D02*
X34073D01*
X38341Y90400D02*
X38417D01*
X36182D02*
X38188D01*
X34200D02*
X34277D01*
X33997D02*
X34073D01*
X38341Y90375D02*
X38417D01*
X36182D02*
X38188D01*
X34200D02*
X34277D01*
X33997D02*
X34073D01*
X38341Y90349D02*
X38417D01*
X36182D02*
X38188D01*
X34200D02*
X34277D01*
X33997D02*
X34073D01*
X38341Y90324D02*
X38417D01*
X36182D02*
X38188D01*
X34200D02*
X34277D01*
X33997D02*
X34073D01*
X38341Y90299D02*
X38417D01*
X36182D02*
X38188D01*
X34200D02*
X34277D01*
X33997D02*
X34073D01*
X38341Y90273D02*
X38417D01*
X36182D02*
X38188D01*
X34200D02*
X34277D01*
X33997D02*
X34073D01*
X38341Y90248D02*
X38417D01*
X36182D02*
X38188D01*
X34200D02*
X34277D01*
X33997D02*
X34073D01*
X38341Y90222D02*
X38417D01*
X36182D02*
X38188D01*
X34200D02*
X34277D01*
X33997D02*
X34073D01*
X38341Y90197D02*
X38417D01*
X36182D02*
X38188D01*
X34200D02*
X34277D01*
X33997D02*
X34073D01*
X38341Y90172D02*
X38417D01*
X36182D02*
X38188D01*
X34200D02*
X34277D01*
X33997D02*
X34073D01*
X38341Y90146D02*
X38417D01*
X36182D02*
X38188D01*
X34200D02*
X34277D01*
X33997D02*
X34073D01*
X38341Y90121D02*
X38417D01*
X36182D02*
X38188D01*
X34200D02*
X34277D01*
X33997D02*
X34073D01*
X38341Y90095D02*
X38417D01*
X36182D02*
X38188D01*
X34200D02*
X34277D01*
X33997D02*
X34073D01*
X38341Y90070D02*
X38417D01*
X36182D02*
X38188D01*
X34200D02*
X34277D01*
X33997D02*
X34073D01*
X38341Y90045D02*
X38417D01*
X36182D02*
X38188D01*
X34200D02*
X34277D01*
X33997D02*
X34073D01*
X38341Y90019D02*
X38417D01*
X36182D02*
X38188D01*
X34200D02*
X34277D01*
X33997D02*
X34073D01*
X38341Y89994D02*
X38417D01*
X36182D02*
X38188D01*
X34200D02*
X34277D01*
X33997D02*
X34073D01*
X38341Y89968D02*
X38417D01*
X36182D02*
X38188D01*
X34200D02*
X34277D01*
X33997D02*
X34073D01*
X38341Y89943D02*
X38417D01*
X36182D02*
X38188D01*
X34200D02*
X34277D01*
X33997D02*
X34073D01*
X38341Y89918D02*
X38417D01*
X36182D02*
X38188D01*
X34200D02*
X34277D01*
X33997D02*
X34073D01*
X38341Y89892D02*
X38417D01*
X36182D02*
X38188D01*
X34200D02*
X34277D01*
X33997D02*
X34073D01*
X38341Y89867D02*
X38417D01*
X36182D02*
X38188D01*
X34200D02*
X34277D01*
X33997D02*
X34073D01*
X38341Y89841D02*
X38417D01*
X36156D02*
X38188D01*
X34200D02*
X34277D01*
X33997D02*
X34073D01*
X38341Y89816D02*
X38417D01*
X36131D02*
X38188D01*
X34200D02*
X34277D01*
X33997D02*
X34073D01*
X38341Y89791D02*
X38417D01*
X36080D02*
X38188D01*
X34200D02*
X34277D01*
X33997D02*
X34073D01*
X38341Y89765D02*
X38417D01*
X36232D02*
X38188D01*
X36029D02*
X36182D01*
X34200D02*
X34277D01*
X33997D02*
X34073D01*
X38341Y89740D02*
X38417D01*
X36258D02*
X38188D01*
X35978D02*
X36156D01*
X34200D02*
X34277D01*
X33997D02*
X34073D01*
X38341Y89714D02*
X38417D01*
X36309D02*
X38188D01*
X35953D02*
X36105D01*
X34200D02*
X34277D01*
X33997D02*
X34073D01*
X38341Y89689D02*
X38417D01*
X36359D02*
X38188D01*
X35902D02*
X36055D01*
X34200D02*
X34277D01*
X33997D02*
X34073D01*
X38341Y89664D02*
X38417D01*
X36385D02*
X38188D01*
X35851D02*
X36004D01*
X34200D02*
X34277D01*
X33997D02*
X34073D01*
X38341Y89638D02*
X38417D01*
X36436D02*
X38188D01*
X35826D02*
X35978D01*
X34200D02*
X34277D01*
X33997D02*
X34073D01*
X38341Y89613D02*
X38417D01*
X36486D02*
X38188D01*
X35775D02*
X35928D01*
X34200D02*
X34277D01*
X33997D02*
X34073D01*
X38341Y89587D02*
X38417D01*
X36537D02*
X38188D01*
X35724D02*
X35877D01*
X34200D02*
X34277D01*
X33997D02*
X34073D01*
X38341Y89562D02*
X38417D01*
X36563D02*
X38188D01*
X35674D02*
X35826D01*
X34200D02*
X34277D01*
X33997D02*
X34073D01*
X38341Y89537D02*
X38417D01*
X36613D02*
X38188D01*
X35648D02*
X35801D01*
X34200D02*
X34277D01*
X33997D02*
X34073D01*
X38341Y89511D02*
X38417D01*
X36664D02*
X38188D01*
X35597D02*
X35750D01*
X34200D02*
X34277D01*
X33997D02*
X34073D01*
X38341Y89486D02*
X38417D01*
X36715D02*
X38188D01*
X35547D02*
X35699D01*
X34200D02*
X34277D01*
X33997D02*
X34073D01*
X38341Y89460D02*
X38417D01*
X36740D02*
X38188D01*
X35496D02*
X35648D01*
X34200D02*
X34277D01*
X33997D02*
X34073D01*
X38341Y89435D02*
X38417D01*
X36791D02*
X38188D01*
X35470D02*
X35623D01*
X34200D02*
X34277D01*
X33997D02*
X34073D01*
X38341Y89410D02*
X38417D01*
X36842D02*
X38188D01*
X35420D02*
X35572D01*
X34200D02*
X34277D01*
X33997D02*
X34073D01*
X38341Y89384D02*
X38417D01*
X36867D02*
X38188D01*
X35369D02*
X35521D01*
X34200D02*
X34277D01*
X33997D02*
X34073D01*
X38341Y89359D02*
X38417D01*
X36918D02*
X38188D01*
X35318D02*
X35470D01*
X34200D02*
X34277D01*
X33997D02*
X34073D01*
X38341Y89333D02*
X38417D01*
X36969D02*
X38188D01*
X35293D02*
X35445D01*
X34200D02*
X34277D01*
X33997D02*
X34073D01*
X38341Y89308D02*
X38417D01*
X37020D02*
X38188D01*
X35242D02*
X35394D01*
X34200D02*
X34277D01*
X33997D02*
X34073D01*
X38341Y89283D02*
X38417D01*
X37045D02*
X38188D01*
X35191D02*
X35343D01*
X34200D02*
X34277D01*
X33997D02*
X34073D01*
X38341Y89257D02*
X38417D01*
X37096D02*
X38188D01*
X35140D02*
X35318D01*
X34200D02*
X34277D01*
X33997D02*
X34073D01*
X38341Y89232D02*
X38417D01*
X37147D02*
X38188D01*
X35115D02*
X35267D01*
X34200D02*
X34277D01*
X33997D02*
X34073D01*
X38341Y89206D02*
X38417D01*
X37198D02*
X38188D01*
X35064D02*
X35216D01*
X34200D02*
X34277D01*
X33997D02*
X34073D01*
X38341Y89181D02*
X38417D01*
X37223D02*
X38188D01*
X35013D02*
X35166D01*
X34200D02*
X34277D01*
X33997D02*
X34073D01*
X38341Y89156D02*
X38417D01*
X37274D02*
X38188D01*
X34962D02*
X35115D01*
X34200D02*
X34277D01*
X33997D02*
X34073D01*
X38341Y89130D02*
X38417D01*
X37325D02*
X38188D01*
X34937D02*
X35089D01*
X34200D02*
X34277D01*
X33997D02*
X34073D01*
X38341Y89105D02*
X38417D01*
X37375D02*
X38188D01*
X34886D02*
X35039D01*
X34200D02*
X34277D01*
X33997D02*
X34073D01*
X38341Y89079D02*
X38417D01*
X37401D02*
X38188D01*
X34835D02*
X34988D01*
X34200D02*
X34277D01*
X33997D02*
X34073D01*
X38341Y89054D02*
X38417D01*
X37452D02*
X38188D01*
X34810D02*
X34962D01*
X34200D02*
X34277D01*
X33997D02*
X34073D01*
X38341Y89029D02*
X38417D01*
X37502D02*
X38188D01*
X34759D02*
X34912D01*
X34200D02*
X34277D01*
X33997D02*
X34073D01*
X38341Y89003D02*
X38417D01*
X37553D02*
X38188D01*
X34708D02*
X34861D01*
X34200D02*
X34277D01*
X33997D02*
X34073D01*
X38341Y88978D02*
X38417D01*
X37579D02*
X38188D01*
X34658D02*
X34810D01*
X34200D02*
X34277D01*
X33997D02*
X34073D01*
X38341Y88952D02*
X38417D01*
X37629D02*
X38188D01*
X34632D02*
X34785D01*
X34200D02*
X34277D01*
X33997D02*
X34073D01*
X38341Y88927D02*
X38417D01*
X37680D02*
X38188D01*
X34581D02*
X34734D01*
X34200D02*
X34277D01*
X33997D02*
X34073D01*
X38341Y88902D02*
X38417D01*
X37706D02*
X38188D01*
X34531D02*
X34683D01*
X34200D02*
X34277D01*
X33997D02*
X34073D01*
X38341Y88876D02*
X38417D01*
X37756D02*
X38188D01*
X34505D02*
X34658D01*
X34200D02*
X34277D01*
X33997D02*
X34073D01*
X38341Y88851D02*
X38417D01*
X37807D02*
X38188D01*
X34454D02*
X34607D01*
X34200D02*
X34277D01*
X33997D02*
X34073D01*
X38341Y88825D02*
X38417D01*
X37858D02*
X38188D01*
X34404D02*
X34556D01*
X34200D02*
X34277D01*
X33997D02*
X34073D01*
X38341Y88800D02*
X38417D01*
X37883D02*
X38188D01*
X34353D02*
X34505D01*
X34200D02*
X34277D01*
X33997D02*
X34073D01*
X38341Y88775D02*
X38442D01*
X37934D02*
X38188D01*
X34327D02*
X34480D01*
X34200D02*
X34277D01*
X33972D02*
X34073D01*
X38341Y88749D02*
X38493D01*
X37985D02*
X38188D01*
X36715D02*
X37528D01*
X35724D02*
X36080D01*
X34734D02*
X35216D01*
X34200D02*
X34429D01*
X33921D02*
X34073D01*
X38366Y88724D02*
X38518D01*
X38036D02*
X38188D01*
X36588D02*
X37553D01*
X35724D02*
X36105D01*
X34734D02*
X35242D01*
X34200D02*
X34378D01*
X33896D02*
X34048D01*
X38417Y88698D02*
X38569D01*
X38061D02*
X38188D01*
X36537D02*
X37553D01*
X35724D02*
X36105D01*
X34759D02*
X35242D01*
X34200D02*
X34327D01*
X33845D02*
X33997D01*
X38468Y88673D02*
X38620D01*
X38112D02*
X38214D01*
X36486D02*
X37553D01*
X35724D02*
X36105D01*
X34785D02*
X35267D01*
X34200D02*
X34277D01*
X33794D02*
X33946D01*
X38493Y88648D02*
X38671D01*
X38112D02*
X38264D01*
X36461D02*
X37553D01*
X35724D02*
X36105D01*
X34810D02*
X35293D01*
X34150D02*
X34277D01*
X33743D02*
X33896D01*
X38544Y88622D02*
X38696D01*
X38112D02*
X38290D01*
X36436D02*
X37553D01*
X35724D02*
X36105D01*
X34810D02*
X35318D01*
X34124D02*
X34277D01*
X33718D02*
X33870D01*
X38595Y88597D02*
X38747D01*
X38112D02*
X38341D01*
X36410D02*
X37553D01*
X35724D02*
X36105D01*
X34861D02*
X35343D01*
X34073D02*
X34277D01*
X33667D02*
X33819D01*
X38645Y88571D02*
X38798D01*
X38239D02*
X38391D01*
X38112D02*
X38188D01*
X36385D02*
X37553D01*
X35724D02*
X36105D01*
X34861D02*
X35369D01*
X34023D02*
X34277D01*
X33616D02*
X33769D01*
X38671Y88546D02*
X38823D01*
X38290D02*
X38442D01*
X38112D02*
X38188D01*
X36385D02*
X37553D01*
X35724D02*
X36105D01*
X34886D02*
X35394D01*
X33997D02*
X34277D01*
X33565D02*
X33718D01*
X38722Y88521D02*
X38874D01*
X38315D02*
X38468D01*
X38112D02*
X38188D01*
X36359D02*
X37553D01*
X35724D02*
X36105D01*
X34912D02*
X35420D01*
X33946D02*
X34277D01*
X33540D02*
X33692D01*
X38772Y88495D02*
X38925D01*
X38366D02*
X38518D01*
X38112D02*
X38188D01*
X36359D02*
X37553D01*
X35724D02*
X36105D01*
X34937D02*
X35445D01*
X33896D02*
X34277D01*
X33489D02*
X33642D01*
X38823Y88470D02*
X38976D01*
X38417D02*
X38569D01*
X38112D02*
X38188D01*
X36359D02*
X37553D01*
X35724D02*
X36105D01*
X34962D02*
X35470D01*
X33845D02*
X34277D01*
X33438D02*
X33591D01*
X38849Y88444D02*
X39001D01*
X38442D02*
X38595D01*
X38112D02*
X38188D01*
X37172D02*
X37553D01*
X36334D02*
X36791D01*
X35724D02*
X36105D01*
X34988D02*
X35496D01*
X33819D02*
X34277D01*
X33388D02*
X33565D01*
X38899Y88419D02*
X39052D01*
X38493D02*
X38645D01*
X38112D02*
X38188D01*
X37172D02*
X37553D01*
X36334D02*
X36715D01*
X35724D02*
X36105D01*
X35013D02*
X35496D01*
X33769D02*
X34277D01*
X33362D02*
X33515D01*
X38950Y88394D02*
X39103D01*
X38544D02*
X38696D01*
X38112D02*
X38188D01*
X37172D02*
X37553D01*
X36334D02*
X36690D01*
X35724D02*
X36105D01*
X35039D02*
X35521D01*
X33718D02*
X34277D01*
X33311D02*
X33464D01*
X39001Y88368D02*
X39153D01*
X38595D02*
X38747D01*
X38112D02*
X38188D01*
X37172D02*
X37553D01*
X36334D02*
X36664D01*
X35724D02*
X36105D01*
X35064D02*
X35547D01*
X33667D02*
X34277D01*
X33261D02*
X33413D01*
X39026Y88343D02*
X39179D01*
X38620D02*
X38772D01*
X38112D02*
X38188D01*
X37172D02*
X37553D01*
X36334D02*
X36664D01*
X35724D02*
X36105D01*
X35089D02*
X35572D01*
X33642D02*
X34277D01*
X33235D02*
X33388D01*
X39077Y88317D02*
X39230D01*
X38671D02*
X38823D01*
X38112D02*
X38188D01*
X37172D02*
X37553D01*
X36334D02*
X36664D01*
X35724D02*
X36105D01*
X35115D02*
X35597D01*
X33591D02*
X34277D01*
X33184D02*
X33337D01*
X39128Y88292D02*
X39280D01*
X38722D02*
X38874D01*
X38112D02*
X38188D01*
X37172D02*
X37553D01*
X36334D02*
X36664D01*
X35724D02*
X36105D01*
X35140D02*
X35623D01*
X33540D02*
X34277D01*
X33134D02*
X33286D01*
X39179Y88267D02*
X39331D01*
X38747D02*
X38925D01*
X38112D02*
X38188D01*
X37172D02*
X37553D01*
X36334D02*
X36664D01*
X35724D02*
X36105D01*
X35166D02*
X35648D01*
X33489D02*
X34277D01*
X33083D02*
X33235D01*
X39204Y88241D02*
X39357D01*
X38798D02*
X38950D01*
X38112D02*
X38188D01*
X37172D02*
X37553D01*
X36359D02*
X36690D01*
X35724D02*
X36105D01*
X35191D02*
X35674D01*
X33464D02*
X34277D01*
X33057D02*
X33210D01*
X39255Y88216D02*
X39407D01*
X38849D02*
X39001D01*
X38112D02*
X38188D01*
X37172D02*
X37553D01*
X36359D02*
X36690D01*
X35724D02*
X36105D01*
X35216D02*
X35699D01*
X33413D02*
X34277D01*
X33007D02*
X33159D01*
X39306Y88190D02*
X39458D01*
X38899D02*
X39052D01*
X38112D02*
X38188D01*
X37172D02*
X37553D01*
X36359D02*
X36740D01*
X35242D02*
X36105D01*
X33362D02*
X34277D01*
X32956D02*
X33108D01*
X39331Y88165D02*
X39484D01*
X38925D02*
X39077D01*
X38112D02*
X38188D01*
X37172D02*
X37553D01*
X36385D02*
X37071D01*
X35242D02*
X36105D01*
X33311D02*
X34277D01*
X32905D02*
X33057D01*
X39382Y88140D02*
X39534D01*
X38976D02*
X39128D01*
X38112D02*
X38188D01*
X36385D02*
X37553D01*
X35267D02*
X36105D01*
X33286D02*
X34277D01*
X32880D02*
X33032D01*
X39433Y88114D02*
X39585D01*
X39026D02*
X39179D01*
X38112D02*
X38188D01*
X36410D02*
X37553D01*
X35242D02*
X36105D01*
X33235D02*
X34277D01*
X32829D02*
X32981D01*
X39484Y88089D02*
X39636D01*
X39077D02*
X39230D01*
X38112D02*
X38188D01*
X36436D02*
X37553D01*
X35242D02*
X36105D01*
X33184D02*
X34277D01*
X32778D02*
X32930D01*
X39509Y88063D02*
X39661D01*
X39103D02*
X39255D01*
X38112D02*
X38188D01*
X36461D02*
X37553D01*
X35216D02*
X36105D01*
X33159D02*
X34277D01*
X32727D02*
X32880D01*
X39560Y88038D02*
X39712D01*
X39153D02*
X39306D01*
X38112D02*
X38188D01*
X36461D02*
X37553D01*
X35216D02*
X36105D01*
X33108D02*
X34277D01*
X32702D02*
X32854D01*
X39611Y88013D02*
X39763D01*
X39204D02*
X39357D01*
X38112D02*
X38188D01*
X36436D02*
X37553D01*
X35191D02*
X36105D01*
X33057D02*
X34277D01*
X32651D02*
X32803D01*
X39661Y87987D02*
X39814D01*
X39255D02*
X39382D01*
X38112D02*
X38188D01*
X36385D02*
X37553D01*
X35166D02*
X36105D01*
X33007D02*
X34277D01*
X32600D02*
X32753D01*
X39687Y87962D02*
X39839D01*
X39280D02*
X39433D01*
X38112D02*
X38188D01*
X36359D02*
X37553D01*
X35166D02*
X36105D01*
X32981D02*
X34277D01*
X32549D02*
X32702D01*
X39738Y87936D02*
X39890D01*
X39331D02*
X39484D01*
X38112D02*
X38188D01*
X36334D02*
X37553D01*
X35140D02*
X36105D01*
X32930D02*
X34277D01*
X32524D02*
X32676D01*
X39788Y87911D02*
X39941D01*
X39382D02*
X39534D01*
X38112D02*
X38188D01*
X36334D02*
X37553D01*
X35115D02*
X36105D01*
X32880D02*
X34277D01*
X32473D02*
X32626D01*
X39839Y87886D02*
X39992D01*
X39407D02*
X39560D01*
X38112D02*
X38188D01*
X36309D02*
X37553D01*
X35115D02*
X36105D01*
X32829D02*
X34277D01*
X32422D02*
X32575D01*
X39865Y87860D02*
X40017D01*
X39458D02*
X39611D01*
X38112D02*
X38188D01*
X37172D02*
X37553D01*
X36309D02*
X36766D01*
X35547D02*
X36105D01*
X35089D02*
X35521D01*
X32803D02*
X34277D01*
X32397D02*
X32549D01*
X39915Y87835D02*
X40068D01*
X39509D02*
X39661D01*
X38112D02*
X38188D01*
X37172D02*
X37553D01*
X36283D02*
X36664D01*
X35572D02*
X36105D01*
X35089D02*
X35521D01*
X32753D02*
X34277D01*
X32346D02*
X32499D01*
X39966Y87809D02*
X40119D01*
X39560D02*
X39712D01*
X38112D02*
X38188D01*
X37172D02*
X37553D01*
X36283D02*
X36664D01*
X35597D02*
X36105D01*
X35064D02*
X35496D01*
X32702D02*
X34277D01*
X32295D02*
X32448D01*
X40017Y87784D02*
X40144D01*
X39585D02*
X39738D01*
X38112D02*
X38188D01*
X37172D02*
X37553D01*
X36283D02*
X36639D01*
X35623D02*
X36105D01*
X35039D02*
X35470D01*
X32676D02*
X34277D01*
X32245D02*
X32397D01*
X40042Y87759D02*
X40195D01*
X39636D02*
X39788D01*
X38112D02*
X38188D01*
X37172D02*
X37553D01*
X36258D02*
X36613D01*
X35648D02*
X36105D01*
X35039D02*
X35470D01*
X32626D02*
X34277D01*
X32219D02*
X32372D01*
X40093Y87733D02*
X40246D01*
X39687D02*
X39839D01*
X38112D02*
X38188D01*
X37172D02*
X37553D01*
X36258D02*
X36613D01*
X35674D02*
X36105D01*
X35013D02*
X35445D01*
X32575D02*
X34277D01*
X32168D02*
X32321D01*
X40144Y87708D02*
X40296D01*
X39738D02*
X39890D01*
X38112D02*
X38188D01*
X37172D02*
X37553D01*
X36258D02*
X36613D01*
X35699D02*
X36105D01*
X34988D02*
X35445D01*
X32524D02*
X34277D01*
X32118D02*
X32270D01*
X40169Y87682D02*
X40322D01*
X39763D02*
X39915D01*
X38112D02*
X38188D01*
X37172D02*
X37553D01*
X36258D02*
X36613D01*
X35724D02*
X36105D01*
X34988D02*
X35420D01*
X32499D02*
X34277D01*
X32067D02*
X32245D01*
X40220Y87657D02*
X40347D01*
X39814D02*
X39966D01*
X38112D02*
X38188D01*
X37172D02*
X37553D01*
X36258D02*
X36613D01*
X35724D02*
X36105D01*
X34962D02*
X35394D01*
X32448D02*
X34277D01*
X32067D02*
X32194D01*
X40271Y87632D02*
X40347D01*
X39865D02*
X40017D01*
X38112D02*
X38188D01*
X37172D02*
X37553D01*
X36258D02*
X36639D01*
X35724D02*
X36105D01*
X34937D02*
X35394D01*
X32397D02*
X34277D01*
X32067D02*
X32143D01*
X40296Y87606D02*
X40347D01*
X39915D02*
X40068D01*
X38112D02*
X38188D01*
X37172D02*
X37553D01*
X36258D02*
X36639D01*
X35724D02*
X36105D01*
X34937D02*
X35369D01*
X32346D02*
X34277D01*
X32067D02*
X32118D01*
X40296Y87581D02*
X40347D01*
X39941D02*
X40093D01*
X38112D02*
X38188D01*
X37172D02*
X37553D01*
X36283D02*
X36639D01*
X35724D02*
X36105D01*
X34912D02*
X35369D01*
X32321D02*
X34277D01*
X32067D02*
X32118D01*
X40296Y87555D02*
X40347D01*
X39992D02*
X40144D01*
X38112D02*
X38188D01*
X37172D02*
X37553D01*
X36283D02*
X36690D01*
X35724D02*
X36105D01*
X34912D02*
X35343D01*
X32270D02*
X34277D01*
X32067D02*
X32118D01*
X40296Y87530D02*
X40347D01*
X40042D02*
X40144D01*
X38112D02*
X38188D01*
X36283D02*
X37553D01*
X35724D02*
X36105D01*
X34886D02*
X35343D01*
X32270D02*
X34277D01*
X32067D02*
X32118D01*
X40296Y87505D02*
X40347D01*
X40068D02*
X40144D01*
X38112D02*
X38188D01*
X36309D02*
X37553D01*
X35724D02*
X36105D01*
X34861D02*
X35318D01*
X32270D02*
X34277D01*
X32067D02*
X32118D01*
X40296Y87479D02*
X40347D01*
X40068D02*
X40144D01*
X38112D02*
X38188D01*
X36309D02*
X37553D01*
X35724D02*
X36105D01*
X34861D02*
X35293D01*
X32270D02*
X34277D01*
X32067D02*
X32118D01*
X40296Y87454D02*
X40347D01*
X40068D02*
X40144D01*
X38112D02*
X38188D01*
X36309D02*
X37553D01*
X35724D02*
X36105D01*
X34835D02*
X35293D01*
X32270D02*
X34277D01*
X32067D02*
X32118D01*
X40296Y87428D02*
X40347D01*
X40068D02*
X40144D01*
X38112D02*
X38188D01*
X36334D02*
X37553D01*
X35724D02*
X36105D01*
X34810D02*
X35267D01*
X32270D02*
X34277D01*
X32067D02*
X32118D01*
X40296Y87403D02*
X40347D01*
X40068D02*
X40144D01*
X38112D02*
X38188D01*
X36359D02*
X37553D01*
X35724D02*
X36105D01*
X34810D02*
X35267D01*
X32270D02*
X34277D01*
X32067D02*
X32118D01*
X40296Y87378D02*
X40347D01*
X40068D02*
X40144D01*
X38112D02*
X38188D01*
X36359D02*
X37553D01*
X35724D02*
X36105D01*
X34785D02*
X35242D01*
X32270D02*
X34277D01*
X32067D02*
X32118D01*
X40296Y87352D02*
X40347D01*
X40068D02*
X40144D01*
X38112D02*
X38188D01*
X36385D02*
X37553D01*
X35724D02*
X36105D01*
X34759D02*
X35242D01*
X32270D02*
X34277D01*
X32067D02*
X32118D01*
X40296Y87327D02*
X40347D01*
X40068D02*
X40144D01*
X38112D02*
X38188D01*
X36436D02*
X37553D01*
X35724D02*
X36105D01*
X34759D02*
X35216D01*
X32270D02*
X34277D01*
X32067D02*
X32118D01*
X40296Y87301D02*
X40347D01*
X40068D02*
X40144D01*
X38112D02*
X38188D01*
X36461D02*
X37553D01*
X35724D02*
X36105D01*
X34734D02*
X35191D01*
X32270D02*
X34277D01*
X32067D02*
X32118D01*
X40296Y87276D02*
X40347D01*
X40068D02*
X40144D01*
X38112D02*
X38188D01*
X36512D02*
X37553D01*
X35724D02*
X36105D01*
X34708D02*
X35191D01*
X32270D02*
X34277D01*
X32067D02*
X32118D01*
X40296Y87251D02*
X40347D01*
X40068D02*
X40144D01*
X38112D02*
X38188D01*
X36563D02*
X37553D01*
X35724D02*
X36105D01*
X34708D02*
X35166D01*
X32270D02*
X34277D01*
X32067D02*
X32118D01*
X40296Y87225D02*
X40347D01*
X40068D02*
X40144D01*
X38112D02*
X38188D01*
X36817D02*
X37528D01*
X35724D02*
X36080D01*
X34708D02*
X35140D01*
X32270D02*
X34277D01*
X32067D02*
X32118D01*
X40296Y87200D02*
X40347D01*
X40068D02*
X40144D01*
X38112D02*
X38188D01*
X32270D02*
X34277D01*
X32067D02*
X32118D01*
X40296Y87174D02*
X40347D01*
X40068D02*
X40144D01*
X38112D02*
X38188D01*
X32270D02*
X34277D01*
X32067D02*
X32118D01*
X40296Y87149D02*
X40347D01*
X40068D02*
X40144D01*
X38112D02*
X38188D01*
X32270D02*
X34277D01*
X32067D02*
X32118D01*
X40296Y87124D02*
X40347D01*
X40068D02*
X40144D01*
X38112D02*
X38188D01*
X32270D02*
X34277D01*
X32067D02*
X32118D01*
X40296Y87098D02*
X40347D01*
X40068D02*
X40144D01*
X38112D02*
X38188D01*
X32270D02*
X34277D01*
X32067D02*
X32118D01*
X40296Y87073D02*
X40347D01*
X40068D02*
X40144D01*
X38112D02*
X38188D01*
X32270D02*
X34277D01*
X32067D02*
X32118D01*
X40296Y87047D02*
X40347D01*
X40068D02*
X40144D01*
X38112D02*
X38188D01*
X36867D02*
X37096D01*
X35597D02*
X35750D01*
X35216D02*
X35318D01*
X34886D02*
X34912D01*
X32270D02*
X34277D01*
X32067D02*
X32118D01*
X40296Y87022D02*
X40347D01*
X40068D02*
X40144D01*
X38112D02*
X38188D01*
X36740D02*
X37655D01*
X36309D02*
X36512D01*
X35978D02*
X36182D01*
X35521D02*
X35826D01*
X35140D02*
X35394D01*
X34785D02*
X35013D01*
X32270D02*
X34277D01*
X32067D02*
X32118D01*
X40296Y86997D02*
X40347D01*
X40068D02*
X40144D01*
X38112D02*
X38188D01*
X36690D02*
X37655D01*
X36309D02*
X36512D01*
X35978D02*
X36182D01*
X35496D02*
X35851D01*
X35140D02*
X35394D01*
X34785D02*
X35013D01*
X32270D02*
X34277D01*
X32067D02*
X32118D01*
X40296Y86971D02*
X40347D01*
X40068D02*
X40144D01*
X38112D02*
X38188D01*
X36664D02*
X37655D01*
X36309D02*
X36512D01*
X35978D02*
X36182D01*
X35470D02*
X35877D01*
X35140D02*
X35394D01*
X34785D02*
X35039D01*
X32270D02*
X34277D01*
X32067D02*
X32118D01*
X40296Y86946D02*
X40347D01*
X40068D02*
X40144D01*
X38112D02*
X38188D01*
X36664D02*
X37655D01*
X36309D02*
X36512D01*
X35978D02*
X36182D01*
X35445D02*
X35902D01*
X35115D02*
X35394D01*
X34785D02*
X35039D01*
X32270D02*
X34277D01*
X32067D02*
X32118D01*
X40296Y86920D02*
X40347D01*
X40068D02*
X40144D01*
X38112D02*
X38188D01*
X36639D02*
X37655D01*
X36309D02*
X36512D01*
X35978D02*
X36182D01*
X35420D02*
X35928D01*
X35115D02*
X35394D01*
X34785D02*
X35039D01*
X32270D02*
X34277D01*
X32067D02*
X32118D01*
X40296Y86895D02*
X40347D01*
X40068D02*
X40144D01*
X38112D02*
X38188D01*
X36639D02*
X37655D01*
X36309D02*
X36512D01*
X35978D02*
X36182D01*
X35420D02*
X35928D01*
X35115D02*
X35394D01*
X34785D02*
X35064D01*
X32270D02*
X34277D01*
X32067D02*
X32118D01*
X40296Y86870D02*
X40347D01*
X40068D02*
X40144D01*
X38112D02*
X38188D01*
X37299D02*
X37477D01*
X36944D02*
X37147D01*
X36639D02*
X36817D01*
X36309D02*
X36512D01*
X35978D02*
X36182D01*
X35724D02*
X35953D01*
X35115D02*
X35623D01*
X34785D02*
X35064D01*
X32270D02*
X34277D01*
X32067D02*
X32118D01*
X40296Y86844D02*
X40347D01*
X40068D02*
X40144D01*
X38112D02*
X38188D01*
X37299D02*
X37477D01*
X36944D02*
X37147D01*
X36639D02*
X36791D01*
X36309D02*
X36512D01*
X35978D02*
X36182D01*
X35750D02*
X35953D01*
X35089D02*
X35597D01*
X34785D02*
X35064D01*
X32270D02*
X34277D01*
X32067D02*
X32118D01*
X40296Y86819D02*
X40347D01*
X40068D02*
X40144D01*
X38112D02*
X38188D01*
X37299D02*
X37477D01*
X36944D02*
X37147D01*
X36639D02*
X36791D01*
X35978D02*
X36512D01*
X35750D02*
X35953D01*
X35420D02*
X35597D01*
X35089D02*
X35394D01*
X34785D02*
X35064D01*
X32270D02*
X34277D01*
X32067D02*
X32118D01*
X40296Y86793D02*
X40347D01*
X40068D02*
X40144D01*
X38112D02*
X38188D01*
X37299D02*
X37477D01*
X36944D02*
X37147D01*
X36639D02*
X36817D01*
X35978D02*
X36512D01*
X35775D02*
X35953D01*
X35547D02*
X35597D01*
X34785D02*
X35394D01*
X32270D02*
X34277D01*
X32067D02*
X32118D01*
X40296Y86768D02*
X40347D01*
X40068D02*
X40144D01*
X38112D02*
X38188D01*
X37299D02*
X37477D01*
X36639D02*
X37147D01*
X35978D02*
X36512D01*
X35775D02*
X35953D01*
X34785D02*
X35394D01*
X32270D02*
X34277D01*
X32067D02*
X32118D01*
X40296Y86743D02*
X40347D01*
X40068D02*
X40144D01*
X38112D02*
X38188D01*
X37299D02*
X37477D01*
X36639D02*
X37147D01*
X35978D02*
X36512D01*
X35775D02*
X35953D01*
X34785D02*
X35394D01*
X32270D02*
X34277D01*
X32067D02*
X32118D01*
X40296Y86717D02*
X40347D01*
X40068D02*
X40144D01*
X38112D02*
X38188D01*
X37299D02*
X37477D01*
X36664D02*
X37147D01*
X35978D02*
X36512D01*
X35775D02*
X35953D01*
X34785D02*
X35394D01*
X32270D02*
X34277D01*
X32067D02*
X32118D01*
X40296Y86692D02*
X40347D01*
X40068D02*
X40144D01*
X38112D02*
X38188D01*
X37299D02*
X37477D01*
X36690D02*
X37147D01*
X35978D02*
X36512D01*
X35775D02*
X35953D01*
X35521D02*
X35597D01*
X34785D02*
X35394D01*
X32270D02*
X34277D01*
X32067D02*
X32118D01*
X40296Y86666D02*
X40347D01*
X40068D02*
X40144D01*
X38112D02*
X38188D01*
X37299D02*
X37477D01*
X36715D02*
X37147D01*
X35978D02*
X36512D01*
X35775D02*
X35953D01*
X35445D02*
X35597D01*
X34785D02*
X35394D01*
X32270D02*
X34277D01*
X32067D02*
X32118D01*
X40296Y86641D02*
X40347D01*
X40068D02*
X40144D01*
X38112D02*
X38188D01*
X37299D02*
X37477D01*
X36766D02*
X37147D01*
X36309D02*
X36512D01*
X35978D02*
X36182D01*
X35750D02*
X35953D01*
X34785D02*
X35597D01*
X32270D02*
X34277D01*
X32067D02*
X32118D01*
X40296Y86616D02*
X40347D01*
X40068D02*
X40144D01*
X38112D02*
X38188D01*
X37299D02*
X37477D01*
X36944D02*
X37147D01*
X36309D02*
X36512D01*
X35978D02*
X36182D01*
X35750D02*
X35953D01*
X34785D02*
X35597D01*
X32270D02*
X34277D01*
X32067D02*
X32118D01*
X40296Y86590D02*
X40347D01*
X40068D02*
X40144D01*
X38112D02*
X38188D01*
X37299D02*
X37477D01*
X36944D02*
X37147D01*
X36537D02*
X36715D01*
X36309D02*
X36512D01*
X35978D02*
X36182D01*
X35724D02*
X35953D01*
X35420D02*
X35648D01*
X34785D02*
X35394D01*
X32270D02*
X34277D01*
X32067D02*
X32118D01*
X40296Y86565D02*
X40347D01*
X40068D02*
X40144D01*
X38112D02*
X38188D01*
X37299D02*
X37477D01*
X36944D02*
X37147D01*
X36537D02*
X36715D01*
X36309D02*
X36512D01*
X35978D02*
X36182D01*
X35420D02*
X35928D01*
X34785D02*
X35394D01*
X32270D02*
X34277D01*
X32067D02*
X32118D01*
X40296Y86539D02*
X40347D01*
X40068D02*
X40144D01*
X38112D02*
X38188D01*
X37299D02*
X37477D01*
X36944D02*
X37147D01*
X36537D02*
X36715D01*
X36309D02*
X36512D01*
X35978D02*
X36182D01*
X35445D02*
X35928D01*
X35216D02*
X35394D01*
X34785D02*
X35191D01*
X32270D02*
X34277D01*
X32067D02*
X32118D01*
X40296Y86514D02*
X40347D01*
X40068D02*
X40144D01*
X38112D02*
X38188D01*
X37299D02*
X37477D01*
X36944D02*
X37147D01*
X36537D02*
X36715D01*
X36309D02*
X36512D01*
X35978D02*
X36182D01*
X35445D02*
X35902D01*
X35216D02*
X35394D01*
X34785D02*
X35191D01*
X32270D02*
X34277D01*
X32067D02*
X32118D01*
X40296Y86489D02*
X40347D01*
X40068D02*
X40144D01*
X38112D02*
X38188D01*
X37299D02*
X37477D01*
X36944D02*
X37147D01*
X36537D02*
X36715D01*
X36309D02*
X36512D01*
X35978D02*
X36182D01*
X35470D02*
X35877D01*
X35216D02*
X35394D01*
X34988D02*
X35191D01*
X34785D02*
X34962D01*
X32270D02*
X34277D01*
X32067D02*
X32118D01*
X40296Y86463D02*
X40347D01*
X40068D02*
X40144D01*
X38112D02*
X38188D01*
X37299D02*
X37477D01*
X36944D02*
X37147D01*
X36537D02*
X36715D01*
X36309D02*
X36512D01*
X35978D02*
X36182D01*
X35496D02*
X35851D01*
X35216D02*
X35394D01*
X34988D02*
X35191D01*
X34785D02*
X34962D01*
X32270D02*
X34302D01*
X32067D02*
X32118D01*
X40296Y86438D02*
X40347D01*
X40068D02*
X40144D01*
X38061D02*
X38188D01*
X37299D02*
X37477D01*
X36944D02*
X37147D01*
X36537D02*
X36715D01*
X36309D02*
X36512D01*
X35978D02*
X36182D01*
X35547D02*
X35801D01*
X35216D02*
X35394D01*
X34988D02*
X35166D01*
X34785D02*
X34962D01*
X32270D02*
X34353D01*
X32067D02*
X32118D01*
X40296Y86412D02*
X40347D01*
X40068D02*
X40144D01*
X38010D02*
X38163D01*
X36029D02*
X36080D01*
X35597D02*
X35750D01*
X35293D02*
X35343D01*
X32270D02*
X34378D01*
X32067D02*
X32118D01*
X40296Y86387D02*
X40347D01*
X40068D02*
X40144D01*
X37985D02*
X38214D01*
X34277D02*
X34429D01*
X32270D02*
X34226D01*
X32067D02*
X32118D01*
X40296Y86362D02*
X40347D01*
X40068D02*
X40144D01*
X37934D02*
X38264D01*
X34327D02*
X34480D01*
X32270D02*
X34175D01*
X32067D02*
X32118D01*
X40296Y86336D02*
X40347D01*
X40068D02*
X40144D01*
X37883D02*
X38315D01*
X34378D02*
X34531D01*
X32270D02*
X34124D01*
X32067D02*
X32118D01*
X40296Y86311D02*
X40347D01*
X40068D02*
X40144D01*
X37833D02*
X38341D01*
X34404D02*
X34556D01*
X32270D02*
X34073D01*
X32067D02*
X32118D01*
X40296Y86285D02*
X40347D01*
X40068D02*
X40144D01*
X37807D02*
X38391D01*
X34454D02*
X34607D01*
X32270D02*
X34048D01*
X32067D02*
X32118D01*
X40296Y86260D02*
X40347D01*
X40068D02*
X40144D01*
X37756D02*
X38442D01*
X34505D02*
X34658D01*
X32270D02*
X33997D01*
X32067D02*
X32118D01*
X40296Y86235D02*
X40347D01*
X40068D02*
X40144D01*
X37706D02*
X38493D01*
X34531D02*
X34683D01*
X32270D02*
X33946D01*
X32067D02*
X32118D01*
X40296Y86209D02*
X40347D01*
X40068D02*
X40144D01*
X37655D02*
X38518D01*
X34581D02*
X34734D01*
X32270D02*
X33896D01*
X32067D02*
X32118D01*
X40296Y86184D02*
X40347D01*
X40068D02*
X40144D01*
X37629D02*
X38569D01*
X34632D02*
X34785D01*
X32270D02*
X33870D01*
X32067D02*
X32118D01*
X40296Y86158D02*
X40347D01*
X40068D02*
X40144D01*
X37579D02*
X38620D01*
X34683D02*
X34835D01*
X32270D02*
X33819D01*
X32067D02*
X32118D01*
X40296Y86133D02*
X40347D01*
X40068D02*
X40144D01*
X37528D02*
X38671D01*
X34708D02*
X34861D01*
X32270D02*
X33769D01*
X32067D02*
X32118D01*
X40296Y86108D02*
X40347D01*
X40068D02*
X40144D01*
X37502D02*
X38696D01*
X34759D02*
X34912D01*
X32270D02*
X33743D01*
X32067D02*
X32118D01*
X40296Y86082D02*
X40347D01*
X40068D02*
X40144D01*
X37452D02*
X38747D01*
X34810D02*
X34962D01*
X32270D02*
X33692D01*
X32067D02*
X32118D01*
X40296Y86057D02*
X40347D01*
X40068D02*
X40144D01*
X37401D02*
X38798D01*
X34861D02*
X35013D01*
X32270D02*
X33642D01*
X32067D02*
X32118D01*
X40296Y86031D02*
X40347D01*
X40068D02*
X40144D01*
X37350D02*
X38823D01*
X34886D02*
X35039D01*
X32270D02*
X33591D01*
X32067D02*
X32118D01*
X40296Y86006D02*
X40347D01*
X40068D02*
X40144D01*
X37325D02*
X38874D01*
X34937D02*
X35089D01*
X32270D02*
X33565D01*
X32067D02*
X32118D01*
X40296Y85981D02*
X40347D01*
X40068D02*
X40144D01*
X37274D02*
X38925D01*
X34988D02*
X35140D01*
X32270D02*
X33515D01*
X32067D02*
X32118D01*
X40296Y85955D02*
X40347D01*
X40068D02*
X40144D01*
X37223D02*
X38976D01*
X35039D02*
X35191D01*
X32270D02*
X33464D01*
X32067D02*
X32118D01*
X40296Y85930D02*
X40347D01*
X40068D02*
X40144D01*
X37172D02*
X39001D01*
X35064D02*
X35216D01*
X32270D02*
X33413D01*
X32067D02*
X32118D01*
X40296Y85904D02*
X40347D01*
X40068D02*
X40144D01*
X37147D02*
X39052D01*
X35115D02*
X35267D01*
X32270D02*
X33388D01*
X32067D02*
X32118D01*
X40296Y85879D02*
X40347D01*
X40068D02*
X40144D01*
X37096D02*
X39103D01*
X35166D02*
X35318D01*
X32270D02*
X33337D01*
X32067D02*
X32118D01*
X40296Y85854D02*
X40347D01*
X40068D02*
X40144D01*
X37045D02*
X39153D01*
X35191D02*
X35343D01*
X32270D02*
X33286D01*
X32067D02*
X32118D01*
X40296Y85828D02*
X40347D01*
X40068D02*
X40144D01*
X36994D02*
X39179D01*
X35242D02*
X35394D01*
X32270D02*
X33235D01*
X32067D02*
X32118D01*
X40296Y85803D02*
X40347D01*
X40068D02*
X40144D01*
X36969D02*
X39230D01*
X35293D02*
X35445D01*
X32270D02*
X33210D01*
X32067D02*
X32118D01*
X40296Y85777D02*
X40347D01*
X40068D02*
X40144D01*
X36918D02*
X39280D01*
X35343D02*
X35496D01*
X32270D02*
X33159D01*
X32067D02*
X32118D01*
X40296Y85752D02*
X40347D01*
X40068D02*
X40144D01*
X36867D02*
X39331D01*
X35369D02*
X35521D01*
X32270D02*
X33108D01*
X32067D02*
X32118D01*
X40296Y85727D02*
X40347D01*
X40068D02*
X40144D01*
X36842D02*
X39357D01*
X35420D02*
X35572D01*
X32270D02*
X33083D01*
X32067D02*
X32118D01*
X40296Y85701D02*
X40347D01*
X40068D02*
X40144D01*
X36791D02*
X39407D01*
X35470D02*
X35623D01*
X32270D02*
X33032D01*
X32067D02*
X32118D01*
X40296Y85676D02*
X40347D01*
X40068D02*
X40144D01*
X36740D02*
X39458D01*
X35521D02*
X35674D01*
X32270D02*
X32981D01*
X32067D02*
X32118D01*
X40296Y85650D02*
X40347D01*
X40068D02*
X40144D01*
X36690D02*
X39509D01*
X35547D02*
X35699D01*
X32270D02*
X32930D01*
X32067D02*
X32118D01*
X40296Y85625D02*
X40347D01*
X40068D02*
X40144D01*
X36664D02*
X39534D01*
X35597D02*
X35750D01*
X32270D02*
X32905D01*
X32067D02*
X32118D01*
X40296Y85600D02*
X40347D01*
X40068D02*
X40144D01*
X36613D02*
X39585D01*
X35648D02*
X35801D01*
X32270D02*
X32854D01*
X32067D02*
X32118D01*
X40296Y85574D02*
X40347D01*
X40068D02*
X40144D01*
X36563D02*
X39636D01*
X35674D02*
X35851D01*
X32270D02*
X32803D01*
X32067D02*
X32118D01*
X40296Y85549D02*
X40347D01*
X40068D02*
X40144D01*
X36512D02*
X39661D01*
X35724D02*
X35877D01*
X32270D02*
X32753D01*
X32067D02*
X32118D01*
X40296Y85523D02*
X40347D01*
X40068D02*
X40144D01*
X36486D02*
X39712D01*
X35775D02*
X35928D01*
X32270D02*
X32727D01*
X32067D02*
X32118D01*
X40296Y85498D02*
X40347D01*
X40068D02*
X40144D01*
X36436D02*
X39763D01*
X35826D02*
X35978D01*
X32270D02*
X32676D01*
X32067D02*
X32118D01*
X40296Y85473D02*
X40347D01*
X40068D02*
X40144D01*
X36385D02*
X39814D01*
X35851D02*
X36004D01*
X32270D02*
X32626D01*
X32067D02*
X32118D01*
X40296Y85447D02*
X40347D01*
X40068D02*
X40144D01*
X36334D02*
X39839D01*
X35902D02*
X36055D01*
X32270D02*
X32600D01*
X32067D02*
X32118D01*
X40296Y85422D02*
X40347D01*
X40068D02*
X40144D01*
X36309D02*
X39890D01*
X35953D02*
X36105D01*
X32270D02*
X32549D01*
X32067D02*
X32118D01*
X40296Y85396D02*
X40347D01*
X40068D02*
X40144D01*
X36258D02*
X39941D01*
X36004D02*
X36156D01*
X32270D02*
X32499D01*
X32067D02*
X32118D01*
X40296Y85371D02*
X40347D01*
X40068D02*
X40144D01*
X36207D02*
X39992D01*
X36029D02*
X36182D01*
X32270D02*
X32448D01*
X32067D02*
X32118D01*
X40296Y85346D02*
X40347D01*
X40068D02*
X40144D01*
X36080D02*
X40017D01*
X32270D02*
X32422D01*
X32067D02*
X32118D01*
X40296Y85320D02*
X40347D01*
X36131D02*
X40144D01*
X32270D02*
X32372D01*
X32067D02*
X32118D01*
X40296Y85295D02*
X40347D01*
X36182D02*
X40144D01*
X32270D02*
X32346D01*
X32067D02*
X32118D01*
X40296Y85269D02*
X40347D01*
X36131D02*
X40144D01*
X32270D02*
X32372D01*
X32067D02*
X32118D01*
X40296Y85244D02*
X40347D01*
X36080D02*
X40144D01*
X32270D02*
X32422D01*
X32067D02*
X32118D01*
X40296Y85219D02*
X40347D01*
X36207D02*
X40093D01*
X36029D02*
X36182D01*
X32321D02*
X32473D01*
X32067D02*
X32118D01*
X40296Y85193D02*
X40347D01*
X36258D02*
X40068D01*
X36004D02*
X36156D01*
X32346D02*
X32499D01*
X32067D02*
X32118D01*
X40271Y85168D02*
X40347D01*
X36309D02*
X40017D01*
X35953D02*
X36105D01*
X32397D02*
X32549D01*
X32067D02*
X32143D01*
X40220Y85142D02*
X40347D01*
X36359D02*
X39966D01*
X35902D02*
X36055D01*
X32448D02*
X32600D01*
X32067D02*
X32194D01*
X40169Y85117D02*
X40322D01*
X36385D02*
X39915D01*
X35851D02*
X36004D01*
X32499D02*
X32651D01*
X32067D02*
X32219D01*
X40144Y85092D02*
X40296D01*
X36436D02*
X39890D01*
X35826D02*
X35978D01*
X32524D02*
X32676D01*
X32118D02*
X32270D01*
X40093Y85066D02*
X40246D01*
X36486D02*
X39839D01*
X36182D02*
X36207D01*
X35775D02*
X35928D01*
X32575D02*
X32727D01*
X32168D02*
X32321D01*
X40042Y85041D02*
X40195D01*
X36512D02*
X39788D01*
X36131D02*
X36283D01*
X35724D02*
X35877D01*
X32626D02*
X32778D01*
X32219D02*
X32372D01*
X39992Y85015D02*
X40169D01*
X36563D02*
X39738D01*
X36105D02*
X36309D01*
X35699D02*
X35851D01*
X32651D02*
X32803D01*
X32245D02*
X32397D01*
X39966Y84990D02*
X40119D01*
X36613D02*
X39712D01*
X36055D02*
X36359D01*
X35648D02*
X35801D01*
X32702D02*
X32854D01*
X32295D02*
X32448D01*
X39915Y84965D02*
X40068D01*
X36664D02*
X39661D01*
X36258D02*
X36410D01*
X36004D02*
X36156D01*
X35597D02*
X35750D01*
X32753D02*
X32905D01*
X32346D02*
X32499D01*
X39865Y84939D02*
X40017D01*
X36690D02*
X39611D01*
X36283D02*
X36436D01*
X35953D02*
X36105D01*
X35547D02*
X35699D01*
X32803D02*
X32956D01*
X32397D02*
X32549D01*
X39839Y84914D02*
X39992D01*
X36740D02*
X39560D01*
X36334D02*
X36486D01*
X35928D02*
X36080D01*
X35521D02*
X35674D01*
X32829D02*
X32981D01*
X32422D02*
X32575D01*
X39788Y84888D02*
X39941D01*
X36791D02*
X39534D01*
X36385D02*
X36537D01*
X35877D02*
X36029D01*
X35470D02*
X35623D01*
X32880D02*
X33032D01*
X32473D02*
X32626D01*
X39738Y84863D02*
X39890D01*
X36842D02*
X39484D01*
X36436D02*
X36588D01*
X35826D02*
X35978D01*
X35420D02*
X35572D01*
X32930D02*
X33083D01*
X32524D02*
X32676D01*
X39687Y84838D02*
X39839D01*
X36867D02*
X39433D01*
X36461D02*
X36613D01*
X35801D02*
X35953D01*
X35369D02*
X35521D01*
X32981D02*
X33134D01*
X32575D02*
X32727D01*
X39661Y84812D02*
X39814D01*
X36918D02*
X39407D01*
X36512D02*
X36664D01*
X35750D02*
X35902D01*
X35343D02*
X35496D01*
X33007D02*
X33159D01*
X32600D02*
X32753D01*
X39611Y84787D02*
X39763D01*
X36969D02*
X39357D01*
X36563D02*
X36715D01*
X35699D02*
X35851D01*
X35293D02*
X35445D01*
X33057D02*
X33210D01*
X32651D02*
X32803D01*
X39560Y84761D02*
X39712D01*
X37020D02*
X39306D01*
X36613D02*
X36766D01*
X35648D02*
X35801D01*
X35242D02*
X35394D01*
X33108D02*
X33261D01*
X32702D02*
X32854D01*
X39509Y84736D02*
X39661D01*
X37045D02*
X39255D01*
X36639D02*
X36791D01*
X35623D02*
X35775D01*
X35191D02*
X35343D01*
X33159D02*
X33311D01*
X32727D02*
X32905D01*
X39484Y84711D02*
X39636D01*
X37096D02*
X39204D01*
X36690D02*
X36842D01*
X35572D02*
X35724D01*
X35166D02*
X35318D01*
X33184D02*
X33337D01*
X32778D02*
X32930D01*
X39433Y84685D02*
X39585D01*
X37147D02*
X39179D01*
X36740D02*
X36893D01*
X35521D02*
X35674D01*
X35115D02*
X35267D01*
X33235D02*
X33388D01*
X32829D02*
X32981D01*
X39382Y84660D02*
X39534D01*
X37198D02*
X39128D01*
X36791D02*
X36944D01*
X35470D02*
X35623D01*
X35064D02*
X35216D01*
X33286D02*
X33438D01*
X32880D02*
X33032D01*
X39331Y84634D02*
X39484D01*
X37223D02*
X39077D01*
X36817D02*
X36969D01*
X35445D02*
X35597D01*
X35039D02*
X35191D01*
X33337D02*
X33489D01*
X32905D02*
X33057D01*
X39306Y84609D02*
X39458D01*
X37274D02*
X39052D01*
X36867D02*
X37020D01*
X35394D02*
X35547D01*
X34988D02*
X35140D01*
X33362D02*
X33515D01*
X32956D02*
X33108D01*
X39255Y84584D02*
X39407D01*
X37325D02*
X39001D01*
X36918D02*
X37071D01*
X35343D02*
X35496D01*
X34937D02*
X35089D01*
X33413D02*
X33565D01*
X33007D02*
X33159D01*
X39204Y84558D02*
X39357D01*
X37375D02*
X38950D01*
X36969D02*
X37121D01*
X35293D02*
X35445D01*
X34886D02*
X35039D01*
X33464D02*
X33616D01*
X33057D02*
X33210D01*
X39179Y84533D02*
X39331D01*
X37401D02*
X38925D01*
X36994D02*
X37147D01*
X35267D02*
X35420D01*
X34861D02*
X35013D01*
X33489D02*
X33642D01*
X33083D02*
X33235D01*
X39128Y84507D02*
X39280D01*
X37452D02*
X38874D01*
X37045D02*
X37198D01*
X35216D02*
X35369D01*
X34810D02*
X34962D01*
X33540D02*
X33692D01*
X33134D02*
X33286D01*
X39077Y84482D02*
X39230D01*
X37502D02*
X38823D01*
X37096D02*
X37248D01*
X35166D02*
X35318D01*
X34759D02*
X34912D01*
X33591D02*
X33743D01*
X33184D02*
X33337D01*
X39026Y84457D02*
X39179D01*
X37528D02*
X38772D01*
X37121D02*
X37274D01*
X35115D02*
X35293D01*
X34734D02*
X34886D01*
X33642D02*
X33794D01*
X33235D02*
X33388D01*
X39001Y84431D02*
X39153D01*
X37579D02*
X38722D01*
X37172D02*
X37325D01*
X35089D02*
X35242D01*
X34683D02*
X34835D01*
X33667D02*
X33819D01*
X33261D02*
X33413D01*
X38950Y84406D02*
X39103D01*
X37629D02*
X38696D01*
X37223D02*
X37375D01*
X35039D02*
X35191D01*
X34632D02*
X34785D01*
X33718D02*
X33870D01*
X33311D02*
X33464D01*
X38899Y84380D02*
X39052D01*
X37680D02*
X38645D01*
X37274D02*
X37426D01*
X34988D02*
X35140D01*
X34581D02*
X34734D01*
X33769D02*
X33921D01*
X33362D02*
X33515D01*
X38849Y84355D02*
X39001D01*
X37706D02*
X38595D01*
X37299D02*
X37452D01*
X34962D02*
X35115D01*
X34531D02*
X34708D01*
X33819D02*
X33972D01*
X33413D02*
X33540D01*
X38823Y84330D02*
X38976D01*
X37756D02*
X38569D01*
X37350D02*
X37502D01*
X34912D02*
X35064D01*
X34505D02*
X34658D01*
X33845D02*
X33997D01*
X33438D02*
X33591D01*
X38772Y84304D02*
X38925D01*
X37807D02*
X38518D01*
X37401D02*
X37553D01*
X34861D02*
X35013D01*
X34454D02*
X34607D01*
X33896D02*
X34048D01*
X33489D02*
X33642D01*
X38722Y84279D02*
X38874D01*
X37858D02*
X38468D01*
X37452D02*
X37604D01*
X34810D02*
X34962D01*
X34404D02*
X34556D01*
X33946D02*
X34099D01*
X33540D02*
X33692D01*
X38671Y84253D02*
X38823D01*
X37883D02*
X38417D01*
X37477D02*
X37629D01*
X34785D02*
X34937D01*
X34378D02*
X34531D01*
X33997D02*
X34150D01*
X33565D02*
X33718D01*
X38645Y84228D02*
X38798D01*
X37934D02*
X38391D01*
X37528D02*
X37680D01*
X34734D02*
X34886D01*
X34327D02*
X34480D01*
X34023D02*
X34175D01*
X33616D02*
X33769D01*
X38595Y84203D02*
X38747D01*
X37985D02*
X38341D01*
X37579D02*
X37731D01*
X34683D02*
X34835D01*
X34277D02*
X34429D01*
X34073D02*
X34226D01*
X33667D02*
X33819D01*
X38544Y84177D02*
X38696D01*
X38036D02*
X38290D01*
X37629D02*
X37782D01*
X34632D02*
X34785D01*
X34124D02*
X34378D01*
X33718D02*
X33870D01*
X38493Y84152D02*
X38645D01*
X38061D02*
X38239D01*
X37655D02*
X37807D01*
X34607D02*
X34759D01*
X34150D02*
X34353D01*
X33743D02*
X33896D01*
X38468Y84126D02*
X38620D01*
X38112D02*
X38214D01*
X37706D02*
X37858D01*
X34556D02*
X34708D01*
X34200D02*
X34302D01*
X33794D02*
X33946D01*
X38417Y84101D02*
X38569D01*
X37756D02*
X37909D01*
X34505D02*
X34658D01*
X33845D02*
X33997D01*
X38366Y84076D02*
X38518D01*
X37782D02*
X37934D01*
X34454D02*
X34607D01*
X33896D02*
X34048D01*
X38341Y84050D02*
X38493D01*
X37833D02*
X37985D01*
X34429D02*
X34581D01*
X33921D02*
X34073D01*
X38290Y84025D02*
X38442D01*
X37883D02*
X38036D01*
X34378D02*
X34531D01*
X33972D02*
X34124D01*
X38239Y83999D02*
X38391D01*
X37934D02*
X38087D01*
X34327D02*
X34480D01*
X34023D02*
X34175D01*
X38214Y83974D02*
X38341D01*
X37960D02*
X38112D01*
X34302D02*
X34454D01*
X34073D02*
X34226D01*
X38010Y83949D02*
X38315D01*
X34099D02*
X34404D01*
X38061Y83923D02*
X38264D01*
X34150D02*
X34353D01*
X38087Y83898D02*
X38214D01*
X34200D02*
X34302D01*
M02*
