G04*
G04 #@! TF.GenerationSoftware,Altium Limited,Altium Designer,24.1.2 (44)*
G04*
G04 Layer_Physical_Order=1*
G04 Layer_Color=255*
%FSLAX43Y43*%
%MOMM*%
G71*
G04*
G04 #@! TF.SameCoordinates,54BEDA40-E342-42F5-ADC8-61CD6FAB378A*
G04*
G04*
G04 #@! TF.FilePolarity,Positive*
G04*
G01*
G75*
%ADD12C,0.300*%
%ADD20R,3.048X1.524*%
%ADD21R,1.397X1.270*%
%ADD22R,1.270X1.397*%
%ADD23R,0.950X0.900*%
%ADD24O,0.600X1.800*%
%ADD25R,10.800X8.000*%
%ADD26R,1.070X2.160*%
%ADD27R,3.300X2.400*%
%ADD28R,1.000X2.400*%
%ADD62C,0.500*%
G04:AMPARAMS|DCode=63|XSize=5mm|YSize=3.5mm|CornerRadius=0.875mm|HoleSize=0mm|Usage=FLASHONLY|Rotation=90.000|XOffset=0mm|YOffset=0mm|HoleType=Round|Shape=RoundedRectangle|*
%AMROUNDEDRECTD63*
21,1,5.000,1.750,0,0,90.0*
21,1,3.250,3.500,0,0,90.0*
1,1,1.750,0.875,1.625*
1,1,1.750,0.875,-1.625*
1,1,1.750,-0.875,-1.625*
1,1,1.750,-0.875,1.625*
%
%ADD63ROUNDEDRECTD63*%
G04:AMPARAMS|DCode=64|XSize=1.5mm|YSize=0.9mm|CornerRadius=0.045mm|HoleSize=0mm|Usage=FLASHONLY|Rotation=0.000|XOffset=0mm|YOffset=0mm|HoleType=Round|Shape=RoundedRectangle|*
%AMROUNDEDRECTD64*
21,1,1.500,0.810,0,0,0.0*
21,1,1.410,0.900,0,0,0.0*
1,1,0.090,0.705,-0.405*
1,1,0.090,-0.705,-0.405*
1,1,0.090,-0.705,0.405*
1,1,0.090,0.705,0.405*
%
%ADD64ROUNDEDRECTD64*%
G04:AMPARAMS|DCode=65|XSize=1.5mm|YSize=0.9mm|CornerRadius=0.045mm|HoleSize=0mm|Usage=FLASHONLY|Rotation=90.000|XOffset=0mm|YOffset=0mm|HoleType=Round|Shape=RoundedRectangle|*
%AMROUNDEDRECTD65*
21,1,1.500,0.810,0,0,90.0*
21,1,1.410,0.900,0,0,90.0*
1,1,0.090,0.405,0.705*
1,1,0.090,0.405,-0.705*
1,1,0.090,-0.405,-0.705*
1,1,0.090,-0.405,0.705*
%
%ADD65ROUNDEDRECTD65*%
G04:AMPARAMS|DCode=66|XSize=1mm|YSize=1.35mm|CornerRadius=0.25mm|HoleSize=0mm|Usage=FLASHONLY|Rotation=90.000|XOffset=0mm|YOffset=0mm|HoleType=Round|Shape=RoundedRectangle|*
%AMROUNDEDRECTD66*
21,1,1.000,0.850,0,0,90.0*
21,1,0.500,1.350,0,0,90.0*
1,1,0.500,0.425,0.250*
1,1,0.500,0.425,-0.250*
1,1,0.500,-0.425,-0.250*
1,1,0.500,-0.425,0.250*
%
%ADD66ROUNDEDRECTD66*%
G04:AMPARAMS|DCode=67|XSize=1mm|YSize=1.35mm|CornerRadius=0.25mm|HoleSize=0mm|Usage=FLASHONLY|Rotation=180.000|XOffset=0mm|YOffset=0mm|HoleType=Round|Shape=RoundedRectangle|*
%AMROUNDEDRECTD67*
21,1,1.000,0.850,0,0,180.0*
21,1,0.500,1.350,0,0,180.0*
1,1,0.500,-0.250,0.425*
1,1,0.500,0.250,0.425*
1,1,0.500,0.250,-0.425*
1,1,0.500,-0.250,-0.425*
%
%ADD67ROUNDEDRECTD67*%
G04:AMPARAMS|DCode=68|XSize=1.8mm|YSize=1.8mm|CornerRadius=0.45mm|HoleSize=0mm|Usage=FLASHONLY|Rotation=0.000|XOffset=0mm|YOffset=0mm|HoleType=Round|Shape=RoundedRectangle|*
%AMROUNDEDRECTD68*
21,1,1.800,0.900,0,0,0.0*
21,1,0.900,1.800,0,0,0.0*
1,1,0.900,0.450,-0.450*
1,1,0.900,-0.450,-0.450*
1,1,0.900,-0.450,0.450*
1,1,0.900,0.450,0.450*
%
%ADD68ROUNDEDRECTD68*%
%ADD69R,1.800X1.800*%
G04:AMPARAMS|DCode=70|XSize=1.6mm|YSize=1.65mm|CornerRadius=0.4mm|HoleSize=0mm|Usage=FLASHONLY|Rotation=0.000|XOffset=0mm|YOffset=0mm|HoleType=Round|Shape=RoundedRectangle|*
%AMROUNDEDRECTD70*
21,1,1.600,0.850,0,0,0.0*
21,1,0.800,1.650,0,0,0.0*
1,1,0.800,0.400,-0.425*
1,1,0.800,-0.400,-0.425*
1,1,0.800,-0.400,0.425*
1,1,0.800,0.400,0.425*
%
%ADD70ROUNDEDRECTD70*%
%ADD71R,1.600X1.650*%
%ADD72R,1.650X1.600*%
G04:AMPARAMS|DCode=73|XSize=1.6mm|YSize=1.65mm|CornerRadius=0.4mm|HoleSize=0mm|Usage=FLASHONLY|Rotation=270.000|XOffset=0mm|YOffset=0mm|HoleType=Round|Shape=RoundedRectangle|*
%AMROUNDEDRECTD73*
21,1,1.600,0.850,0,0,270.0*
21,1,0.800,1.650,0,0,270.0*
1,1,0.800,-0.425,-0.400*
1,1,0.800,-0.425,0.400*
1,1,0.800,0.425,0.400*
1,1,0.800,0.425,-0.400*
%
%ADD73ROUNDEDRECTD73*%
%ADD74C,1.500*%
%ADD75C,1.000*%
%ADD76C,0.150*%
%ADD77R,2.000X2.000*%
%ADD78C,2.000*%
%ADD79R,1.600X2.000*%
%ADD80O,1.600X2.000*%
%ADD81C,1.905*%
%ADD82C,1.520*%
%ADD83R,1.520X1.520*%
%ADD84C,1.600*%
%ADD85C,3.048*%
%ADD86R,2.286X1.524*%
%ADD87O,2.286X1.524*%
%ADD88C,3.000*%
%ADD89C,1.270*%
G36*
X93778Y95891D02*
X93530Y95788D01*
X93243Y95596D01*
X92999Y95352D01*
X92807Y95065D01*
X92674Y94746D01*
X92607Y94407D01*
Y94384D01*
X94361D01*
Y94234D01*
X94511D01*
Y92480D01*
X94534D01*
X94873Y92547D01*
X95192Y92680D01*
X95479Y92872D01*
X95723Y93116D01*
X95915Y93403D01*
X95966Y93526D01*
X96093Y93500D01*
Y3274D01*
X95966Y3248D01*
X95915Y3371D01*
X95723Y3658D01*
X95479Y3902D01*
X95192Y4094D01*
X94873Y4227D01*
X94534Y4294D01*
X94511D01*
Y2540D01*
X94361D01*
Y2390D01*
X92607D01*
Y2367D01*
X92674Y2028D01*
X92807Y1709D01*
X92999Y1422D01*
X93243Y1178D01*
X93530Y986D01*
X93655Y934D01*
X93630Y807D01*
X3271D01*
X3246Y934D01*
X3371Y986D01*
X3658Y1178D01*
X3902Y1422D01*
X4094Y1709D01*
X4227Y2028D01*
X4294Y2367D01*
Y2390D01*
X2540D01*
Y2540D01*
X2390D01*
Y4294D01*
X2367D01*
X2028Y4227D01*
X1709Y4094D01*
X1422Y3902D01*
X1178Y3658D01*
X986Y3371D01*
X934Y3246D01*
X807Y3271D01*
Y93630D01*
X934Y93655D01*
X986Y93530D01*
X1178Y93243D01*
X1422Y92999D01*
X1709Y92807D01*
X2028Y92674D01*
X2367Y92607D01*
X2390D01*
Y94361D01*
X2540D01*
Y94511D01*
X4294D01*
Y94534D01*
X4227Y94873D01*
X4094Y95192D01*
X3902Y95479D01*
X3658Y95723D01*
X3407Y95891D01*
X3446Y96018D01*
X93753D01*
X93778Y95891D01*
D02*
G37*
%LPC*%
G36*
X86383Y94860D02*
Y94130D01*
X87113D01*
X87061Y94323D01*
X86944Y94526D01*
X86779Y94691D01*
X86576Y94808D01*
X86383Y94860D01*
D02*
G37*
G36*
X86083D02*
X85890Y94808D01*
X85687Y94691D01*
X85522Y94526D01*
X85405Y94323D01*
X85353Y94130D01*
X86083D01*
Y94860D01*
D02*
G37*
G36*
X87113Y93830D02*
X86383D01*
Y93100D01*
X86576Y93152D01*
X86779Y93269D01*
X86944Y93434D01*
X87061Y93637D01*
X87113Y93830D01*
D02*
G37*
G36*
X86083D02*
X85353D01*
X85405Y93637D01*
X85522Y93434D01*
X85687Y93269D01*
X85890Y93152D01*
X86083Y93100D01*
Y93830D01*
D02*
G37*
G36*
X4294Y94211D02*
X2690D01*
Y92607D01*
X2713D01*
X3052Y92674D01*
X3371Y92807D01*
X3658Y92999D01*
X3902Y93243D01*
X4094Y93530D01*
X4227Y93849D01*
X4294Y94188D01*
Y94211D01*
D02*
G37*
G36*
X94211Y94084D02*
X92607D01*
Y94061D01*
X92674Y93722D01*
X92807Y93403D01*
X92999Y93116D01*
X93243Y92872D01*
X93530Y92680D01*
X93849Y92547D01*
X94188Y92480D01*
X94211D01*
Y94084D01*
D02*
G37*
G36*
X65468Y93398D02*
X61976D01*
X61761Y93355D01*
X61579Y93234D01*
X60621Y92275D01*
X60388Y92337D01*
X60059D01*
X59740Y92252D01*
X59454Y92087D01*
X59221Y91853D01*
X59056Y91568D01*
X58971Y91249D01*
Y90920D01*
X59056Y90601D01*
X59221Y90315D01*
X59454Y90082D01*
X59740Y89917D01*
X60059Y89832D01*
X60388D01*
X60707Y89917D01*
X60992Y90082D01*
X61226Y90315D01*
X61391Y90601D01*
X61476Y90920D01*
Y91249D01*
X61414Y91482D01*
X62208Y92276D01*
X65236D01*
X66451Y91061D01*
Y90793D01*
X66494Y90578D01*
X66615Y90396D01*
X66797Y90275D01*
X67012Y90232D01*
X67862D01*
X68077Y90275D01*
X68259Y90396D01*
X68380Y90578D01*
X68423Y90793D01*
Y91293D01*
X68380Y91508D01*
X68259Y91690D01*
X68077Y91811D01*
X67862Y91854D01*
X67244D01*
X65865Y93234D01*
X65683Y93355D01*
X65468Y93398D01*
D02*
G37*
G36*
X82982D02*
X72962D01*
X72747Y93355D01*
X72565Y93234D01*
X71186Y91854D01*
X70568D01*
X70353Y91811D01*
X70171Y91690D01*
X70050Y91508D01*
X70007Y91293D01*
Y90793D01*
X70050Y90578D01*
X70171Y90396D01*
X70353Y90275D01*
X70568Y90232D01*
X71418D01*
X71633Y90275D01*
X71815Y90396D01*
X71936Y90578D01*
X71979Y90793D01*
Y91061D01*
X73194Y92276D01*
X77397D01*
X77449Y92149D01*
X77306Y92006D01*
X77141Y91720D01*
X77138Y91709D01*
X75421D01*
Y91994D01*
X73424D01*
Y90124D01*
X74627D01*
X74926Y89825D01*
X74878Y89708D01*
X73424D01*
Y88979D01*
X72373Y87929D01*
X65930D01*
X64880Y88979D01*
Y89708D01*
X63425D01*
X63377Y89825D01*
X63676Y90124D01*
X64880D01*
Y91994D01*
X62882D01*
Y90917D01*
X61553Y89588D01*
X56239D01*
X55038Y90789D01*
X55100Y91021D01*
Y91351D01*
X55015Y91669D01*
X54850Y91955D01*
X54617Y92188D01*
X54331Y92353D01*
X54013Y92438D01*
X53683D01*
X53365Y92353D01*
X53079Y92188D01*
X52846Y91955D01*
X52681Y91669D01*
X52596Y91351D01*
Y91021D01*
X52681Y90703D01*
X52846Y90417D01*
X53079Y90184D01*
X53365Y90019D01*
X53683Y89934D01*
X54013D01*
X54245Y89996D01*
X55610Y88630D01*
X55792Y88509D01*
X56007Y88466D01*
X61785D01*
X62000Y88509D01*
X62182Y88630D01*
X62765Y89214D01*
X62882Y89165D01*
Y87838D01*
X63074D01*
Y77423D01*
X61757Y76106D01*
X61523D01*
X61475Y76164D01*
Y76419D01*
X59455D01*
Y76164D01*
X59407Y76106D01*
X58090D01*
X57917Y76222D01*
X57702Y76265D01*
X56852D01*
X56833Y76261D01*
X54419D01*
X54400Y76265D01*
X54130D01*
X53965Y76391D01*
X53771Y76471D01*
X53562Y76499D01*
X44999D01*
X44809Y76474D01*
X38018Y83265D01*
Y85391D01*
X38672Y86045D01*
X38691Y86041D01*
X39541D01*
X39756Y86084D01*
X39938Y86205D01*
X40059Y86387D01*
X40102Y86602D01*
Y87102D01*
X40059Y87317D01*
X39938Y87499D01*
X39756Y87620D01*
X39541Y87663D01*
X39192D01*
X39100Y87675D01*
X38688D01*
X36914Y89450D01*
X36746Y89578D01*
X36552Y89658D01*
X36343Y89686D01*
X34462D01*
Y90379D01*
X30562D01*
Y87379D01*
X31705D01*
Y83079D01*
X31712Y83027D01*
Y81579D01*
X32940D01*
X32995Y81465D01*
X32679Y81071D01*
X30306D01*
X29869Y81508D01*
X29918Y81625D01*
X30062D01*
Y82929D01*
X29458D01*
Y82085D01*
X29341Y82036D01*
X29001Y82376D01*
Y84455D01*
X28973Y84664D01*
X28893Y84858D01*
X28765Y85026D01*
X26590Y87201D01*
X26422Y87329D01*
X26228Y87409D01*
X26019Y87437D01*
X20129D01*
X20110Y87441D01*
X19260D01*
X19241Y87437D01*
X15430D01*
X15411Y87441D01*
X14561D01*
X14346Y87398D01*
X14164Y87277D01*
X14091Y87167D01*
X11540D01*
Y87295D01*
X9542D01*
Y85425D01*
X11540D01*
Y85553D01*
X14541D01*
X14750Y85581D01*
X14944Y85661D01*
X15112Y85789D01*
X15141Y85819D01*
X15411D01*
X15430Y85823D01*
X19241D01*
X19260Y85819D01*
X20110D01*
X20129Y85823D01*
X25685D01*
X26746Y84762D01*
X26693Y84635D01*
X9070D01*
Y88099D01*
X9542D01*
Y87711D01*
X11540D01*
Y88071D01*
X14106D01*
X14164Y87983D01*
X14346Y87862D01*
X14561Y87819D01*
X15411D01*
X15626Y87862D01*
X15808Y87983D01*
X15929Y88165D01*
X15972Y88380D01*
Y88880D01*
X15929Y89095D01*
X15808Y89277D01*
X15626Y89398D01*
X15411Y89441D01*
X14561D01*
X14346Y89398D01*
X14164Y89277D01*
X14108Y89192D01*
X11540D01*
Y89581D01*
X9542D01*
Y89221D01*
X7476D01*
Y89708D01*
X5478D01*
Y87838D01*
X7476D01*
Y88099D01*
X7948D01*
Y84074D01*
X7991Y83859D01*
X8112Y83677D01*
X8294Y83556D01*
X8509Y83513D01*
X26490D01*
Y78232D01*
X26533Y78017D01*
X26654Y77835D01*
X27670Y76819D01*
X27852Y76698D01*
X28067Y76655D01*
X31518D01*
X32967Y75206D01*
Y69320D01*
X31518Y67871D01*
X28807D01*
X26178Y70501D01*
X25996Y70622D01*
X25781Y70665D01*
X22479D01*
X22264Y70622D01*
X22082Y70501D01*
X21750Y70169D01*
X21629Y69987D01*
X21586Y69772D01*
Y69413D01*
X21496Y69323D01*
X21312Y69323D01*
X21204Y69277D01*
X21185Y69277D01*
X20597D01*
Y67943D01*
Y66609D01*
X21204Y66609D01*
X21312Y66563D01*
X21344Y66563D01*
X22950D01*
X22982Y66563D01*
X23090Y66609D01*
X23109Y66609D01*
X23697D01*
Y67943D01*
Y69277D01*
X23090Y69277D01*
X22982Y69323D01*
X22950Y69323D01*
X22708D01*
Y69540D01*
X22711Y69543D01*
X25549D01*
X28178Y66913D01*
X28360Y66792D01*
X28575Y66749D01*
X31750D01*
X31965Y66792D01*
X32147Y66913D01*
X33925Y68691D01*
X34046Y68873D01*
X34089Y69088D01*
Y75438D01*
X34046Y75653D01*
X33925Y75835D01*
X32147Y77613D01*
X31965Y77734D01*
X31750Y77777D01*
X28299D01*
X27612Y78464D01*
Y81303D01*
X27739Y81356D01*
X29401Y79693D01*
X29569Y79565D01*
X29763Y79485D01*
X29972Y79457D01*
X33067D01*
X33111Y79463D01*
X33155Y79462D01*
X33215Y79477D01*
X33276Y79485D01*
X33317Y79502D01*
X33360Y79512D01*
X33413Y79542D01*
X33470Y79565D01*
X33505Y79592D01*
X33544Y79614D01*
X33589Y79656D01*
X33637Y79693D01*
X33664Y79729D01*
X33696Y79759D01*
X34791Y81125D01*
X34918Y81132D01*
X39071Y76979D01*
Y74692D01*
X38846D01*
X38539Y74652D01*
X38253Y74533D01*
X38008Y74345D01*
X37820Y74100D01*
X37701Y73814D01*
X37661Y73507D01*
Y70257D01*
X37701Y69950D01*
X37820Y69664D01*
X38008Y69419D01*
X38253Y69231D01*
X38539Y69112D01*
X38846Y69072D01*
X38914D01*
Y59228D01*
X36784D01*
Y57104D01*
X37801D01*
Y54878D01*
X37674Y54834D01*
X37531Y54977D01*
X37318Y55100D01*
X37080Y55164D01*
X36834D01*
X36596Y55100D01*
X36383Y54977D01*
X36248Y54843D01*
X28415D01*
X28412Y54865D01*
X28341Y55035D01*
X28229Y55181D01*
X28083Y55293D01*
X27913Y55364D01*
X27730Y55388D01*
X26880D01*
X26697Y55364D01*
X26527Y55293D01*
X26381Y55181D01*
X26269Y55035D01*
X26198Y54865D01*
X26174Y54682D01*
Y53882D01*
X26184Y53809D01*
X25157Y52783D01*
X22145D01*
X21115Y53813D01*
Y54400D01*
X21072Y54615D01*
X20951Y54797D01*
X20769Y54918D01*
X20763Y54919D01*
Y56405D01*
X21509D01*
Y58403D01*
X21033D01*
Y59453D01*
X21509D01*
Y61451D01*
X19639D01*
Y59453D01*
X20115D01*
Y58403D01*
X19639D01*
Y56405D01*
X19845D01*
Y54919D01*
X19839Y54918D01*
X19657Y54797D01*
X19536Y54615D01*
X19493Y54400D01*
Y53550D01*
X19536Y53335D01*
X19657Y53153D01*
X19839Y53032D01*
X20054Y52989D01*
X20554D01*
X20626Y53004D01*
X21631Y52000D01*
X21779Y51900D01*
X21955Y51865D01*
X25347D01*
X25523Y51900D01*
X25671Y52000D01*
X26852Y53180D01*
X26880Y53176D01*
X27730D01*
X27913Y53200D01*
X28083Y53271D01*
X28229Y53383D01*
X28341Y53529D01*
X28412Y53699D01*
X28415Y53721D01*
X36171D01*
X36209Y53655D01*
X36383Y53481D01*
X36596Y53358D01*
X36834Y53294D01*
X37080D01*
X37318Y53358D01*
X37531Y53481D01*
X37674Y53624D01*
X37801Y53580D01*
Y51720D01*
X27848Y41767D01*
X27731Y41816D01*
Y48641D01*
X27703Y48850D01*
X27623Y49044D01*
X27495Y49212D01*
X27327Y49340D01*
X27133Y49420D01*
X26924Y49448D01*
X21046D01*
X20935Y49512D01*
X20697Y49576D01*
X20451D01*
X20213Y49512D01*
X20000Y49389D01*
X19826Y49215D01*
X19703Y49002D01*
X19639Y48764D01*
Y48518D01*
X19703Y48280D01*
X19826Y48067D01*
X20000Y47893D01*
X20213Y47770D01*
X20451Y47706D01*
X20697D01*
X20935Y47770D01*
X21046Y47834D01*
X26117D01*
Y40036D01*
X24677Y38596D01*
X24312D01*
X24129Y38572D01*
X23959Y38501D01*
X23813Y38389D01*
X23701Y38243D01*
X23675Y38181D01*
X23548Y38206D01*
Y39396D01*
X24870Y40718D01*
X25627D01*
Y42218D01*
X24077D01*
Y41511D01*
X22590Y40025D01*
X22469Y39843D01*
X22426Y39628D01*
Y38690D01*
X22362Y38590D01*
X22299Y38590D01*
X21823D01*
Y41096D01*
X22395Y41668D01*
X23127D01*
Y43168D01*
X21577D01*
Y42436D01*
X20865Y41725D01*
X20747Y41547D01*
X20737Y41545D01*
X20620Y41572D01*
Y43099D01*
X17734D01*
Y40975D01*
X18616D01*
Y38396D01*
X18557Y38336D01*
X17480D01*
Y36340D01*
X19189D01*
X19241Y36213D01*
X18769Y35740D01*
X17272D01*
X17057Y35697D01*
X16875Y35576D01*
X13027Y31727D01*
X12724Y31853D01*
X12372Y31923D01*
X12012D01*
X11660Y31853D01*
X11328Y31715D01*
X11029Y31516D01*
X10775Y31262D01*
X10576Y30963D01*
X10438Y30631D01*
X10368Y30279D01*
Y29919D01*
X10438Y29567D01*
X10576Y29235D01*
X10775Y28936D01*
X11029Y28682D01*
X11328Y28483D01*
X11660Y28345D01*
X12012Y28275D01*
X12372D01*
X12724Y28345D01*
X13056Y28483D01*
X13355Y28682D01*
X13609Y28936D01*
X13808Y29235D01*
X13946Y29567D01*
X14016Y29919D01*
Y30279D01*
X13946Y30631D01*
X13820Y30934D01*
X17504Y34618D01*
X19001D01*
X19216Y34661D01*
X19398Y34782D01*
X20955Y36340D01*
X22299D01*
X22362Y36340D01*
X22426Y36240D01*
Y35935D01*
X22413Y35927D01*
X22239Y35753D01*
X22116Y35540D01*
X22052Y35302D01*
Y35056D01*
X22116Y34818D01*
X22239Y34605D01*
X22413Y34431D01*
X22626Y34308D01*
X22864Y34244D01*
X23110D01*
X23348Y34308D01*
X23561Y34431D01*
X23614Y34484D01*
X23741Y34431D01*
Y31807D01*
X23520Y31715D01*
X23221Y31516D01*
X22967Y31262D01*
X22768Y30963D01*
X22630Y30631D01*
X22560Y30279D01*
Y29919D01*
X22630Y29567D01*
X22768Y29235D01*
X22967Y28936D01*
X23221Y28682D01*
X23520Y28483D01*
X23852Y28345D01*
X24204Y28275D01*
X24564D01*
X24694Y28301D01*
X24757Y28184D01*
X23305Y26733D01*
X23177Y26565D01*
X23097Y26371D01*
X23069Y26162D01*
Y21971D01*
X23097Y21762D01*
X23177Y21568D01*
X23305Y21400D01*
X24915Y19791D01*
X24853Y19673D01*
X24564Y19731D01*
X24204D01*
X23852Y19661D01*
X23520Y19523D01*
X23221Y19324D01*
X22967Y19070D01*
X22768Y18771D01*
X22630Y18439D01*
X22560Y18087D01*
Y17727D01*
X22630Y17375D01*
X22768Y17043D01*
X22967Y16744D01*
X23221Y16490D01*
X23520Y16291D01*
X23852Y16153D01*
X24204Y16083D01*
X24564D01*
X24916Y16153D01*
X25248Y16291D01*
X25547Y16490D01*
X25801Y16744D01*
X26000Y17043D01*
X26138Y17375D01*
X26208Y17727D01*
Y18087D01*
X26138Y18439D01*
X26108Y18511D01*
X26205Y18608D01*
X26283Y18576D01*
X26492Y18549D01*
X26941D01*
Y18242D01*
X27070D01*
Y17216D01*
X27065Y17211D01*
X26942Y16998D01*
X26878Y16760D01*
Y16514D01*
X26942Y16276D01*
X27065Y16063D01*
X27239Y15889D01*
X27452Y15766D01*
X27690Y15702D01*
X27936D01*
X28174Y15766D01*
X28387Y15889D01*
X28561Y16063D01*
X28684Y16276D01*
X28748Y16514D01*
Y16760D01*
X28684Y16998D01*
X28683Y16999D01*
Y18242D01*
X28938D01*
Y20112D01*
X28026D01*
X27970Y20135D01*
X27761Y20162D01*
X26826D01*
X26197Y20791D01*
X26260Y20908D01*
X26289Y20902D01*
X26941D01*
Y20528D01*
X28938D01*
Y22398D01*
X26941D01*
Y22024D01*
X26521D01*
X26469Y22076D01*
Y25295D01*
X26775Y25601D01*
X26941D01*
Y25227D01*
X28938D01*
Y25601D01*
X29994D01*
X31327Y24268D01*
X31323Y24253D01*
Y24007D01*
X31387Y23769D01*
X31510Y23556D01*
X31684Y23382D01*
X31897Y23259D01*
X32135Y23195D01*
X32381D01*
X32619Y23259D01*
X32832Y23382D01*
X33006Y23556D01*
X33014Y23569D01*
X33875D01*
X34012Y23332D01*
X34254Y23090D01*
X34550Y22919D01*
X34621Y22900D01*
Y22773D01*
X34568Y22759D01*
X34282Y22593D01*
X34049Y22360D01*
X33883Y22074D01*
X33798Y21755D01*
Y21740D01*
X35052D01*
X36306D01*
Y21755D01*
X36221Y22074D01*
X36055Y22360D01*
X35822Y22593D01*
X35536Y22759D01*
X35483Y22773D01*
Y22900D01*
X35554Y22919D01*
X35850Y23090D01*
X36092Y23332D01*
X36263Y23628D01*
X36352Y23959D01*
Y24301D01*
X36263Y24632D01*
X36092Y24928D01*
X35850Y25170D01*
X35571Y25332D01*
X35562Y25400D01*
X35571Y25468D01*
X35850Y25630D01*
X36092Y25872D01*
X36156Y25982D01*
X37271D01*
X37352Y25842D01*
X37526Y25668D01*
X37739Y25545D01*
X37977Y25481D01*
X38223D01*
X38461Y25545D01*
X38674Y25668D01*
X38848Y25842D01*
X38971Y26055D01*
X39035Y26293D01*
Y26539D01*
X38971Y26777D01*
X38848Y26990D01*
X38674Y27164D01*
X38461Y27287D01*
X38223Y27351D01*
X37977D01*
X37739Y27287D01*
X37526Y27164D01*
X37465Y27104D01*
X36282D01*
X36263Y27172D01*
X36092Y27468D01*
X35850Y27710D01*
X35571Y27872D01*
X35562Y27940D01*
X35571Y28008D01*
X35850Y28170D01*
X36092Y28412D01*
X36263Y28708D01*
X36352Y29039D01*
Y29381D01*
X36263Y29712D01*
X36092Y30008D01*
X35850Y30250D01*
X35571Y30412D01*
X35562Y30480D01*
X35571Y30548D01*
X35850Y30710D01*
X36092Y30952D01*
X36156Y31062D01*
X37344D01*
X37352Y31049D01*
X37526Y30875D01*
X37739Y30752D01*
X37977Y30688D01*
X38223D01*
X38461Y30752D01*
X38674Y30875D01*
X38848Y31049D01*
X38971Y31262D01*
X39035Y31500D01*
Y31746D01*
X38971Y31984D01*
X38848Y32197D01*
X38674Y32371D01*
X38461Y32494D01*
X38223Y32558D01*
X37977D01*
X37739Y32494D01*
X37526Y32371D01*
X37352Y32197D01*
X37344Y32184D01*
X36282D01*
X36263Y32252D01*
X36092Y32548D01*
X35850Y32790D01*
X35571Y32952D01*
X35562Y33020D01*
X35571Y33088D01*
X35850Y33250D01*
X36092Y33492D01*
X36229Y33729D01*
X37344D01*
X37352Y33716D01*
X37526Y33542D01*
X37739Y33419D01*
X37977Y33355D01*
X38223D01*
X38461Y33419D01*
X38674Y33542D01*
X38848Y33716D01*
X38971Y33929D01*
X39035Y34167D01*
Y34413D01*
X38971Y34651D01*
X38848Y34864D01*
X38674Y35038D01*
X38461Y35161D01*
X38223Y35225D01*
X37977D01*
X37739Y35161D01*
X37526Y35038D01*
X37352Y34864D01*
X37344Y34851D01*
X36229D01*
X36092Y35088D01*
X35850Y35330D01*
X35554Y35501D01*
X35223Y35590D01*
X34881D01*
X34550Y35501D01*
X34254Y35330D01*
X34012Y35088D01*
X33841Y34792D01*
X33752Y34461D01*
Y34119D01*
X33841Y33788D01*
X34012Y33492D01*
X34254Y33250D01*
X34533Y33088D01*
X34542Y33020D01*
X34533Y32952D01*
X34254Y32790D01*
X34012Y32548D01*
X33841Y32252D01*
X33752Y31921D01*
Y31579D01*
X33841Y31248D01*
X34012Y30952D01*
X34254Y30710D01*
X34533Y30548D01*
X34542Y30480D01*
X34533Y30412D01*
X34254Y30250D01*
X34012Y30008D01*
X33841Y29712D01*
X33839Y29707D01*
X33210D01*
X33086Y29831D01*
X32873Y29954D01*
X32635Y30018D01*
X32389D01*
X32151Y29954D01*
X31938Y29831D01*
X31764Y29657D01*
X31641Y29444D01*
X31577Y29206D01*
Y28960D01*
X31641Y28722D01*
X31764Y28509D01*
X31938Y28335D01*
X32151Y28212D01*
X32389Y28148D01*
X32635D01*
X32873Y28212D01*
X33086Y28335D01*
X33260Y28509D01*
X33305Y28586D01*
X33911D01*
X34012Y28412D01*
X34254Y28170D01*
X34533Y28008D01*
X34542Y27940D01*
X34533Y27872D01*
X34254Y27710D01*
X34012Y27468D01*
X33841Y27172D01*
X33752Y26841D01*
Y26499D01*
X33841Y26168D01*
X34012Y25872D01*
X34254Y25630D01*
X34533Y25468D01*
X34542Y25400D01*
X34533Y25332D01*
X34254Y25170D01*
X34012Y24928D01*
X33875Y24691D01*
X33014D01*
X33006Y24704D01*
X32832Y24878D01*
X32619Y25001D01*
X32381Y25065D01*
X32135D01*
X32120Y25061D01*
X30623Y26559D01*
X30441Y26680D01*
X30226Y26723D01*
X28938D01*
Y27097D01*
X26941D01*
Y26723D01*
X26543D01*
X26328Y26680D01*
X26146Y26559D01*
X25511Y25924D01*
X25390Y25742D01*
X25347Y25527D01*
Y21844D01*
X25353Y21815D01*
X25236Y21752D01*
X24683Y22305D01*
Y25828D01*
X29273Y30417D01*
X29401Y30585D01*
X29481Y30779D01*
X29509Y30988D01*
Y38528D01*
X45275Y54293D01*
X45403Y54461D01*
X45483Y54655D01*
X45511Y54864D01*
Y56805D01*
X45575Y56916D01*
X45639Y57154D01*
Y57400D01*
X45575Y57638D01*
X45452Y57851D01*
X45427Y57877D01*
X45475Y57994D01*
X46188D01*
X49232Y54950D01*
Y54846D01*
X49307Y54566D01*
X49452Y54316D01*
X49657Y54111D01*
X49907Y53966D01*
X50187Y53891D01*
X50477D01*
X50757Y53966D01*
X51007Y54111D01*
X51212Y54316D01*
X51357Y54566D01*
X51432Y54846D01*
Y55136D01*
X51357Y55416D01*
X51212Y55666D01*
X51007Y55871D01*
X50757Y56016D01*
X50477Y56091D01*
X50373D01*
X47093Y59372D01*
X46925Y59500D01*
X46731Y59580D01*
X46522Y59608D01*
X40528D01*
Y69072D01*
X40596D01*
X40903Y69112D01*
X41189Y69231D01*
X41434Y69419D01*
X41622Y69664D01*
X41741Y69950D01*
X41781Y70257D01*
Y73507D01*
X41741Y73814D01*
X41622Y74100D01*
X41434Y74345D01*
X41189Y74533D01*
X40903Y74652D01*
X40685Y74680D01*
Y77313D01*
X40657Y77522D01*
X40577Y77716D01*
X40449Y77884D01*
X35612Y82720D01*
Y84579D01*
X34012D01*
Y82921D01*
X33939Y82825D01*
X33859Y82630D01*
X33825Y82500D01*
X33432Y82009D01*
X33312Y82051D01*
Y83027D01*
X33319Y83079D01*
Y87379D01*
X34462D01*
Y88072D01*
X36009D01*
X37213Y86868D01*
X36640Y86296D01*
X36512Y86128D01*
X36432Y85934D01*
X36404Y85725D01*
Y82931D01*
X36432Y82722D01*
X36512Y82528D01*
X36640Y82360D01*
X43783Y75217D01*
X43817Y75093D01*
X43940Y74880D01*
X44114Y74706D01*
X44327Y74583D01*
X44565Y74519D01*
X44811D01*
X45049Y74583D01*
X45262Y74706D01*
X45436Y74880D01*
X45439Y74885D01*
X46341D01*
X46385Y74758D01*
X46242Y74615D01*
X46119Y74402D01*
X46055Y74164D01*
Y73918D01*
X46119Y73680D01*
X46242Y73467D01*
X46416Y73293D01*
X46629Y73170D01*
X46867Y73106D01*
X47113D01*
X47351Y73170D01*
X47564Y73293D01*
X47738Y73467D01*
X47746Y73480D01*
X51260D01*
X51320Y73468D01*
X59399D01*
X59469Y73349D01*
X59435Y73299D01*
X59408Y73164D01*
Y72354D01*
X59435Y72219D01*
X59499Y72124D01*
X59435Y72029D01*
X59408Y71894D01*
Y71084D01*
X59435Y70949D01*
X59499Y70854D01*
X59435Y70759D01*
X59408Y70624D01*
Y69814D01*
X59435Y69679D01*
X59499Y69584D01*
X59435Y69489D01*
X59408Y69354D01*
Y68544D01*
X59435Y68409D01*
X59469Y68359D01*
X59399Y68240D01*
X58728D01*
X57958Y69010D01*
Y70214D01*
X56088D01*
Y68216D01*
X57165D01*
X58099Y67282D01*
X58281Y67161D01*
X58495Y67118D01*
X59293D01*
X59336Y67044D01*
X59293Y66970D01*
X58979D01*
X58765Y66927D01*
X58583Y66806D01*
X57165Y65387D01*
X56088D01*
Y63390D01*
X57958D01*
Y64594D01*
X59212Y65848D01*
X59399D01*
X59469Y65729D01*
X59435Y65679D01*
X59408Y65544D01*
Y64734D01*
X59435Y64599D01*
X59499Y64504D01*
X59435Y64409D01*
X59408Y64274D01*
Y63464D01*
X59435Y63329D01*
X59499Y63234D01*
X59435Y63139D01*
X59408Y63004D01*
Y62194D01*
X59435Y62059D01*
X59469Y62009D01*
X59399Y61890D01*
X59102D01*
X59070Y61944D01*
X58896Y62118D01*
X58683Y62241D01*
X58445Y62305D01*
X58199D01*
X57961Y62241D01*
X57748Y62118D01*
X57574Y61944D01*
X57451Y61731D01*
X57387Y61493D01*
Y61247D01*
X57451Y61009D01*
X57574Y60796D01*
X57623Y60747D01*
X57570Y60620D01*
X52039D01*
X51747Y60912D01*
Y60969D01*
X51684Y61206D01*
X51561Y61420D01*
X51387Y61594D01*
X51173Y61717D01*
X50936Y61780D01*
X50689D01*
X50452Y61717D01*
X50238Y61594D01*
X50064Y61420D01*
X49941Y61206D01*
X49877Y60969D01*
Y60722D01*
X49941Y60485D01*
X50064Y60271D01*
X50238Y60097D01*
X50452Y59974D01*
X50689Y59910D01*
X50936D01*
X51115Y59958D01*
X51411Y59662D01*
X51593Y59541D01*
X51807Y59498D01*
X59449D01*
X59511Y59405D01*
X59625Y59329D01*
X59760Y59302D01*
X61170D01*
X61305Y59329D01*
X61419Y59405D01*
X61495Y59519D01*
X61522Y59654D01*
Y60464D01*
X61495Y60599D01*
X61431Y60694D01*
X61495Y60789D01*
X61522Y60924D01*
Y61734D01*
X61495Y61869D01*
X61431Y61964D01*
X61495Y62059D01*
X61522Y62194D01*
Y63004D01*
X61495Y63139D01*
X61431Y63234D01*
X61495Y63329D01*
X61522Y63464D01*
Y64274D01*
X61495Y64409D01*
X61454Y64470D01*
X61522Y64584D01*
X64907D01*
X64911Y64577D01*
X65085Y64403D01*
X65298Y64280D01*
X65536Y64216D01*
X65782D01*
X66020Y64280D01*
X66233Y64403D01*
X66407Y64577D01*
X66530Y64790D01*
X66594Y65028D01*
Y65274D01*
X66530Y65512D01*
X66407Y65725D01*
X66233Y65899D01*
X66020Y66022D01*
X65782Y66086D01*
X65536D01*
X65298Y66022D01*
X65085Y65899D01*
X64911Y65725D01*
X64900Y65706D01*
X61538D01*
X61468Y65829D01*
X61495Y65869D01*
X61522Y66004D01*
Y66814D01*
X61495Y66949D01*
X61431Y67044D01*
X61495Y67139D01*
X61522Y67274D01*
Y68084D01*
X61495Y68219D01*
X61431Y68314D01*
X61495Y68409D01*
X61522Y68544D01*
Y69354D01*
X61495Y69489D01*
X61461Y69539D01*
X61531Y69658D01*
X61837D01*
X62052Y69701D01*
X62234Y69822D01*
X76597Y84185D01*
X76718Y84367D01*
X76761Y84582D01*
Y89344D01*
X76718Y89559D01*
X76597Y89741D01*
X75868Y90470D01*
X75916Y90587D01*
X77237D01*
X77306Y90468D01*
X77539Y90235D01*
X77825Y90070D01*
X78143Y89984D01*
X78473D01*
X78792Y90070D01*
X79077Y90235D01*
X79310Y90468D01*
X79475Y90753D01*
X79561Y91072D01*
Y91402D01*
X79475Y91720D01*
X79310Y92006D01*
X79167Y92149D01*
X79220Y92276D01*
X82750D01*
X83493Y91532D01*
X83431Y91300D01*
Y90970D01*
X83516Y90652D01*
X83681Y90366D01*
X83915Y90133D01*
X84200Y89968D01*
X84519Y89883D01*
X84848D01*
X85167Y89968D01*
X85453Y90133D01*
X85686Y90366D01*
X85851Y90652D01*
X85936Y90970D01*
Y91300D01*
X85851Y91619D01*
X85686Y91904D01*
X85453Y92137D01*
X85167Y92302D01*
X84848Y92388D01*
X84519D01*
X84286Y92325D01*
X83378Y93234D01*
X83196Y93355D01*
X82982Y93398D01*
D02*
G37*
G36*
X71418Y89807D02*
X71143D01*
Y89193D01*
X71932D01*
Y89293D01*
X71893Y89490D01*
X71781Y89656D01*
X71615Y89768D01*
X71418Y89807D01*
D02*
G37*
G36*
X67862D02*
X67587D01*
Y89193D01*
X68376D01*
Y89293D01*
X68337Y89490D01*
X68225Y89656D01*
X68059Y89768D01*
X67862Y89807D01*
D02*
G37*
G36*
X70843D02*
X70568D01*
X70371Y89768D01*
X70205Y89656D01*
X70093Y89490D01*
X70054Y89293D01*
Y89193D01*
X70843D01*
Y89807D01*
D02*
G37*
G36*
X67287D02*
X67012D01*
X66815Y89768D01*
X66649Y89656D01*
X66537Y89490D01*
X66498Y89293D01*
Y89193D01*
X67287D01*
Y89807D01*
D02*
G37*
G36*
X20110Y89394D02*
X19835D01*
Y88780D01*
X20624D01*
Y88880D01*
X20585Y89077D01*
X20473Y89243D01*
X20307Y89355D01*
X20110Y89394D01*
D02*
G37*
G36*
X19535D02*
X19260D01*
X19063Y89355D01*
X18897Y89243D01*
X18785Y89077D01*
X18746Y88880D01*
Y88780D01*
X19535D01*
Y89394D01*
D02*
G37*
G36*
X71932Y88893D02*
X71143D01*
Y88279D01*
X71418D01*
X71615Y88318D01*
X71781Y88430D01*
X71893Y88596D01*
X71932Y88793D01*
Y88893D01*
D02*
G37*
G36*
X70843D02*
X70054D01*
Y88793D01*
X70093Y88596D01*
X70205Y88430D01*
X70371Y88318D01*
X70568Y88279D01*
X70843D01*
Y88893D01*
D02*
G37*
G36*
X68376D02*
X67587D01*
Y88279D01*
X67862D01*
X68059Y88318D01*
X68225Y88430D01*
X68337Y88596D01*
X68376Y88793D01*
Y88893D01*
D02*
G37*
G36*
X67287D02*
X66498D01*
Y88793D01*
X66537Y88596D01*
X66649Y88430D01*
X66815Y88318D01*
X67012Y88279D01*
X67287D01*
Y88893D01*
D02*
G37*
G36*
X20624Y88480D02*
X19835D01*
Y87866D01*
X20110D01*
X20307Y87905D01*
X20473Y88017D01*
X20585Y88183D01*
X20624Y88380D01*
Y88480D01*
D02*
G37*
G36*
X19535D02*
X18746D01*
Y88380D01*
X18785Y88183D01*
X18897Y88017D01*
X19063Y87905D01*
X19260Y87866D01*
X19535D01*
Y88480D01*
D02*
G37*
G36*
X7430Y87376D02*
X6627D01*
Y86637D01*
X7430D01*
Y87376D01*
D02*
G37*
G36*
X6327D02*
X5524D01*
Y86637D01*
X6327D01*
Y87376D01*
D02*
G37*
G36*
X78391Y87566D02*
X78382D01*
Y86510D01*
X79438D01*
Y86519D01*
X79356Y86826D01*
X79197Y87101D01*
X78973Y87325D01*
X78698Y87484D01*
X78391Y87566D01*
D02*
G37*
G36*
X78082D02*
X78073D01*
X77766Y87484D01*
X77491Y87325D01*
X77267Y87101D01*
X77108Y86826D01*
X77025Y86519D01*
Y86510D01*
X78082D01*
Y87566D01*
D02*
G37*
G36*
X53931Y87516D02*
X53922D01*
Y86459D01*
X54978D01*
Y86468D01*
X54896Y86775D01*
X54737Y87050D01*
X54513Y87275D01*
X54237Y87433D01*
X53931Y87516D01*
D02*
G37*
G36*
X53622D02*
X53613D01*
X53306Y87433D01*
X53031Y87275D01*
X52806Y87050D01*
X52648Y86775D01*
X52565Y86468D01*
Y86459D01*
X53622D01*
Y87516D01*
D02*
G37*
G36*
X7430Y86337D02*
X6627D01*
Y85598D01*
X7430D01*
Y86337D01*
D02*
G37*
G36*
X6327D02*
X5524D01*
Y85598D01*
X6327D01*
Y86337D01*
D02*
G37*
G36*
X79438Y86210D02*
X78382D01*
Y85154D01*
X78391D01*
X78698Y85236D01*
X78973Y85395D01*
X79197Y85619D01*
X79356Y85894D01*
X79438Y86201D01*
Y86210D01*
D02*
G37*
G36*
X78082D02*
X77025D01*
Y86201D01*
X77108Y85894D01*
X77267Y85619D01*
X77491Y85395D01*
X77766Y85236D01*
X78073Y85154D01*
X78082D01*
Y86210D01*
D02*
G37*
G36*
X54978Y86159D02*
X53922D01*
Y85103D01*
X53931D01*
X54237Y85185D01*
X54513Y85344D01*
X54737Y85568D01*
X54896Y85844D01*
X54978Y86150D01*
Y86159D01*
D02*
G37*
G36*
X53622D02*
X52565D01*
Y86150D01*
X52648Y85844D01*
X52806Y85568D01*
X53031Y85344D01*
X53306Y85185D01*
X53613Y85103D01*
X53622D01*
Y86159D01*
D02*
G37*
G36*
X84696Y87536D02*
X84366D01*
X84048Y87451D01*
X83762Y87286D01*
X83529Y87053D01*
X83364Y86767D01*
X83279Y86449D01*
Y86119D01*
X83364Y85800D01*
X83529Y85515D01*
X83762Y85282D01*
X84048Y85117D01*
X84366Y85031D01*
X84696D01*
X85015Y85117D01*
X85300Y85282D01*
X85533Y85515D01*
X85698Y85800D01*
X85784Y86119D01*
Y86449D01*
X85698Y86767D01*
X85533Y87053D01*
X85300Y87286D01*
X85015Y87451D01*
X84696Y87536D01*
D02*
G37*
G36*
X39541Y85616D02*
X39266D01*
Y85002D01*
X40055D01*
Y85102D01*
X40016Y85299D01*
X39904Y85465D01*
X39738Y85577D01*
X39541Y85616D01*
D02*
G37*
G36*
X38966D02*
X38691D01*
X38494Y85577D01*
X38328Y85465D01*
X38216Y85299D01*
X38177Y85102D01*
Y85002D01*
X38966D01*
Y85616D01*
D02*
G37*
G36*
X60236Y87485D02*
X59906D01*
X59588Y87400D01*
X59302Y87235D01*
X59069Y87002D01*
X58904Y86716D01*
X58819Y86398D01*
Y86068D01*
X58904Y85750D01*
X59069Y85464D01*
X59302Y85231D01*
X59588Y85066D01*
X59906Y84980D01*
X60236D01*
X60554Y85066D01*
X60840Y85231D01*
X61073Y85464D01*
X61238Y85750D01*
X61324Y86068D01*
Y86398D01*
X61238Y86716D01*
X61073Y87002D01*
X60840Y87235D01*
X60554Y87400D01*
X60236Y87485D01*
D02*
G37*
G36*
X40055Y84702D02*
X39266D01*
Y84088D01*
X39541D01*
X39738Y84127D01*
X39904Y84239D01*
X40016Y84405D01*
X40055Y84602D01*
Y84702D01*
D02*
G37*
G36*
X38966D02*
X38177D01*
Y84602D01*
X38216Y84405D01*
X38328Y84239D01*
X38494Y84127D01*
X38691Y84088D01*
X38966D01*
Y84702D01*
D02*
G37*
G36*
X30966Y84533D02*
X30362D01*
Y83229D01*
X30966D01*
Y84533D01*
D02*
G37*
G36*
X30062D02*
X29458D01*
Y83229D01*
X30062D01*
Y84533D01*
D02*
G37*
G36*
X90193Y83941D02*
Y83081D01*
X91053D01*
X90988Y83322D01*
X90854Y83554D01*
X90666Y83742D01*
X90434Y83876D01*
X90193Y83941D01*
D02*
G37*
G36*
X89893D02*
X89652Y83876D01*
X89420Y83742D01*
X89232Y83554D01*
X89098Y83322D01*
X89033Y83081D01*
X89893D01*
Y83941D01*
D02*
G37*
G36*
X91053Y82781D02*
X90193D01*
Y81921D01*
X90434Y81986D01*
X90666Y82120D01*
X90854Y82308D01*
X90988Y82540D01*
X91053Y82781D01*
D02*
G37*
G36*
X89893D02*
X89033D01*
X89098Y82540D01*
X89232Y82308D01*
X89420Y82120D01*
X89652Y81986D01*
X89893Y81921D01*
Y82781D01*
D02*
G37*
G36*
X30966Y82929D02*
X30362D01*
Y81625D01*
X30966D01*
Y82929D01*
D02*
G37*
G36*
X90183Y81451D02*
X89903D01*
X89634Y81379D01*
X89392Y81239D01*
X89195Y81042D01*
X89143Y80952D01*
X88005D01*
X87997Y80965D01*
X87823Y81139D01*
X87610Y81262D01*
X87372Y81326D01*
X87126D01*
X86888Y81262D01*
X86675Y81139D01*
X86501Y80965D01*
X86378Y80752D01*
X86314Y80514D01*
Y80268D01*
X86378Y80030D01*
X86501Y79817D01*
X86675Y79643D01*
X86888Y79520D01*
X87126Y79456D01*
X87372D01*
X87610Y79520D01*
X87823Y79643D01*
X87997Y79817D01*
X88005Y79830D01*
X89143D01*
X89195Y79740D01*
X89392Y79543D01*
X89634Y79403D01*
X89903Y79331D01*
X90183D01*
X90452Y79403D01*
X90694Y79543D01*
X90891Y79740D01*
X91031Y79982D01*
X91103Y80251D01*
Y80531D01*
X91031Y80800D01*
X90891Y81042D01*
X90694Y81239D01*
X90452Y81379D01*
X90183Y81451D01*
D02*
G37*
G36*
X7922Y81788D02*
X7897D01*
Y80160D01*
X9525D01*
Y80185D01*
X9457Y80529D01*
X9323Y80852D01*
X9128Y81143D01*
X8880Y81391D01*
X8589Y81586D01*
X8266Y81720D01*
X7922Y81788D01*
D02*
G37*
G36*
X7597D02*
X7572D01*
X7228Y81720D01*
X6905Y81586D01*
X6614Y81391D01*
X6366Y81143D01*
X6171Y80852D01*
X6037Y80529D01*
X5969Y80185D01*
Y80160D01*
X7597D01*
Y81788D01*
D02*
G37*
G36*
X84197Y81326D02*
X83951D01*
X83713Y81262D01*
X83500Y81139D01*
X83326Y80965D01*
X83318Y80952D01*
X76593D01*
X76378Y80909D01*
X76196Y80788D01*
X72971Y77563D01*
X72850Y77381D01*
X72807Y77166D01*
Y72721D01*
X72850Y72506D01*
X72971Y72324D01*
X74203Y71092D01*
X74385Y70971D01*
X74600Y70928D01*
X76899D01*
X76969Y70809D01*
X76935Y70759D01*
X76908Y70624D01*
Y69814D01*
X76935Y69679D01*
X76999Y69584D01*
X76935Y69489D01*
X76908Y69354D01*
Y68544D01*
X76935Y68409D01*
X76969Y68359D01*
X76899Y68240D01*
X76653D01*
X76627Y68265D01*
Y68322D01*
X76563Y68560D01*
X76440Y68773D01*
X76266Y68947D01*
X76053Y69070D01*
X75815Y69134D01*
X75569D01*
X75331Y69070D01*
X75118Y68947D01*
X74944Y68773D01*
X74821Y68560D01*
X74757Y68322D01*
Y68076D01*
X74821Y67838D01*
X74944Y67625D01*
X75118Y67451D01*
X75235Y67383D01*
Y67237D01*
X75118Y67169D01*
X74944Y66995D01*
X74821Y66782D01*
X74757Y66544D01*
Y66298D01*
X74821Y66060D01*
X74944Y65847D01*
X75118Y65673D01*
X75235Y65605D01*
Y65459D01*
X75118Y65391D01*
X74944Y65217D01*
X74821Y65004D01*
X74757Y64766D01*
Y64520D01*
X74821Y64282D01*
X74944Y64069D01*
X75118Y63895D01*
X75331Y63772D01*
X75569Y63708D01*
X75815D01*
X76053Y63772D01*
X76266Y63895D01*
X76440Y64069D01*
X76563Y64282D01*
X76627Y64520D01*
Y64577D01*
X76629Y64578D01*
X76899D01*
X76969Y64459D01*
X76935Y64409D01*
X76908Y64274D01*
Y63464D01*
X76935Y63329D01*
X76999Y63234D01*
X76935Y63139D01*
X76908Y63004D01*
Y62194D01*
X76935Y62059D01*
X76999Y61964D01*
X76935Y61869D01*
X76908Y61734D01*
Y61655D01*
X76869Y61647D01*
X76687Y61526D01*
X76268Y61107D01*
X76147Y60925D01*
X76104Y60710D01*
Y57401D01*
X76147Y57187D01*
X76208Y57095D01*
X76154Y56892D01*
Y56646D01*
X76218Y56408D01*
X76341Y56195D01*
X76515Y56021D01*
X76728Y55898D01*
X76966Y55834D01*
X77212D01*
X77450Y55898D01*
X77663Y56021D01*
X77837Y56195D01*
X77960Y56408D01*
X78024Y56646D01*
Y56892D01*
X77960Y57130D01*
X77837Y57343D01*
X77663Y57517D01*
X77450Y57640D01*
X77226Y57700D01*
Y59274D01*
X77260Y59302D01*
X78670D01*
X78805Y59329D01*
X78919Y59405D01*
X78981Y59498D01*
X88983D01*
Y59011D01*
X91103D01*
Y61131D01*
X88983D01*
Y60620D01*
X79031D01*
X78961Y60739D01*
X78995Y60789D01*
X79022Y60924D01*
Y61734D01*
X78995Y61869D01*
X78931Y61964D01*
X78995Y62059D01*
X79022Y62194D01*
Y63004D01*
X78995Y63139D01*
X78931Y63234D01*
X78995Y63329D01*
X79022Y63464D01*
Y64274D01*
X78995Y64409D01*
X78931Y64504D01*
X78995Y64599D01*
X79022Y64734D01*
Y65544D01*
X78995Y65679D01*
X78931Y65774D01*
X78995Y65869D01*
X79022Y66004D01*
Y66814D01*
X78995Y66949D01*
X78931Y67044D01*
X78995Y67139D01*
X79022Y67274D01*
Y68084D01*
X78995Y68219D01*
X78931Y68314D01*
X78995Y68409D01*
X79022Y68544D01*
Y69354D01*
X78995Y69489D01*
X78942Y69569D01*
X79007Y69675D01*
X80979D01*
X81027Y69557D01*
X80248Y68779D01*
X80127Y68597D01*
X80084Y68382D01*
Y63437D01*
X80127Y63222D01*
X80248Y63040D01*
X81234Y62054D01*
Y60850D01*
X83104D01*
Y62847D01*
X82027D01*
X81206Y63669D01*
Y64799D01*
X81234Y64914D01*
X83104D01*
Y66911D01*
X82730D01*
Y67332D01*
X83582Y68183D01*
X83703Y68365D01*
X83746Y68580D01*
Y69411D01*
X83750Y69418D01*
X83755Y69443D01*
X83885D01*
X83890Y69418D01*
X84022Y69219D01*
X84221Y69087D01*
X84455Y69040D01*
X84689Y69087D01*
X84791Y69155D01*
X84918Y69087D01*
Y67581D01*
X84249Y66911D01*
X83520D01*
Y64914D01*
X83648D01*
Y62847D01*
X83520D01*
Y60850D01*
X85390D01*
Y62847D01*
X85262D01*
Y64914D01*
X85390D01*
Y65770D01*
X86296Y66676D01*
X86424Y66843D01*
X86504Y67038D01*
X86532Y67246D01*
Y70126D01*
X86551Y70271D01*
Y70678D01*
X90124Y74251D01*
X91103D01*
Y76371D01*
X88983D01*
Y76118D01*
X87848D01*
X87737Y76182D01*
X87499Y76246D01*
X87253D01*
X87015Y76182D01*
X86802Y76059D01*
X86628Y75885D01*
X86505Y75672D01*
X86441Y75434D01*
Y75188D01*
X86505Y74950D01*
X86628Y74737D01*
X86802Y74563D01*
X87015Y74440D01*
X87253Y74376D01*
X87499D01*
X87737Y74440D01*
X87812Y74483D01*
X87877Y74466D01*
X87916Y74325D01*
X85735Y72144D01*
X85709Y72148D01*
X85616Y72291D01*
X85644Y72394D01*
Y72640D01*
X85580Y72878D01*
X85457Y73091D01*
X85283Y73265D01*
X85070Y73388D01*
X84832Y73452D01*
X84586D01*
X84348Y73388D01*
X84135Y73265D01*
X83961Y73091D01*
X83838Y72878D01*
X83812Y72783D01*
X83677Y72770D01*
X83582Y72914D01*
X82070Y74426D01*
X81888Y74547D01*
X81673Y74590D01*
X79031D01*
X78961Y74709D01*
X78995Y74759D01*
X79022Y74894D01*
Y75704D01*
X78995Y75839D01*
X78919Y75953D01*
X78912Y75988D01*
X78952Y76047D01*
X78975Y76164D01*
Y76419D01*
X76955D01*
Y76164D01*
X76978Y76047D01*
X77018Y75988D01*
X77011Y75953D01*
X76949Y75860D01*
X76501D01*
X76469Y75914D01*
X76295Y76088D01*
X76082Y76211D01*
X75844Y76275D01*
X75598D01*
X75360Y76211D01*
X75147Y76088D01*
X74973Y75914D01*
X74914Y75812D01*
X74745Y75767D01*
X74729Y75776D01*
Y76603D01*
X76051Y77925D01*
X83245D01*
X83326Y77785D01*
X83500Y77611D01*
X83713Y77488D01*
X83951Y77424D01*
X84197D01*
X84435Y77488D01*
X84648Y77611D01*
X84822Y77785D01*
X84945Y77998D01*
X85009Y78236D01*
Y78482D01*
X84945Y78720D01*
X84822Y78933D01*
X84648Y79107D01*
X84435Y79230D01*
X84197Y79294D01*
X83951D01*
X83713Y79230D01*
X83500Y79107D01*
X83439Y79047D01*
X76207D01*
X76159Y79164D01*
X76825Y79830D01*
X83318D01*
X83326Y79817D01*
X83500Y79643D01*
X83713Y79520D01*
X83951Y79456D01*
X84197D01*
X84435Y79520D01*
X84648Y79643D01*
X84822Y79817D01*
X84945Y80030D01*
X85009Y80268D01*
Y80514D01*
X84945Y80752D01*
X84822Y80965D01*
X84648Y81139D01*
X84435Y81262D01*
X84197Y81326D01*
D02*
G37*
G36*
X9525Y79860D02*
X7897D01*
Y78232D01*
X7922D01*
X8266Y78300D01*
X8589Y78434D01*
X8880Y78629D01*
X9128Y78877D01*
X9323Y79168D01*
X9457Y79491D01*
X9525Y79835D01*
Y79860D01*
D02*
G37*
G36*
X7597D02*
X5969D01*
Y79835D01*
X6037Y79491D01*
X6171Y79168D01*
X6366Y78877D01*
X6614Y78629D01*
X6905Y78434D01*
X7228Y78300D01*
X7572Y78232D01*
X7597D01*
Y79860D01*
D02*
G37*
G36*
X57702Y78218D02*
X57427D01*
Y77604D01*
X58216D01*
Y77704D01*
X58177Y77901D01*
X58065Y78067D01*
X57899Y78179D01*
X57702Y78218D01*
D02*
G37*
G36*
X54400D02*
X54125D01*
Y77604D01*
X54914D01*
Y77704D01*
X54875Y77901D01*
X54763Y78067D01*
X54597Y78179D01*
X54400Y78218D01*
D02*
G37*
G36*
X57127D02*
X56852D01*
X56655Y78179D01*
X56489Y78067D01*
X56377Y77901D01*
X56338Y77704D01*
Y77604D01*
X57127D01*
Y78218D01*
D02*
G37*
G36*
X53825D02*
X53550D01*
X53353Y78179D01*
X53187Y78067D01*
X53075Y77901D01*
X53036Y77704D01*
Y77604D01*
X53825D01*
Y78218D01*
D02*
G37*
G36*
X87394Y79294D02*
X87148D01*
X86910Y79230D01*
X86697Y79107D01*
X86523Y78933D01*
X86400Y78720D01*
X86336Y78482D01*
Y78236D01*
X86400Y77998D01*
X86523Y77785D01*
X86697Y77611D01*
X86910Y77488D01*
X87148Y77424D01*
X87394D01*
X87632Y77488D01*
X87845Y77611D01*
X88019Y77785D01*
X88027Y77798D01*
X88983D01*
Y77711D01*
X89055Y77442D01*
X89195Y77200D01*
X89392Y77003D01*
X89634Y76863D01*
X89903Y76791D01*
X90183D01*
X90452Y76863D01*
X90694Y77003D01*
X90891Y77200D01*
X91031Y77442D01*
X91103Y77711D01*
Y77991D01*
X91031Y78260D01*
X90891Y78502D01*
X90694Y78699D01*
X90452Y78839D01*
X90183Y78911D01*
X89903D01*
X89634Y78839D01*
X89579Y78807D01*
X89474Y78877D01*
X89259Y78920D01*
X88027D01*
X88019Y78933D01*
X87845Y79107D01*
X87632Y79230D01*
X87394Y79294D01*
D02*
G37*
G36*
X78670Y77279D02*
X78115D01*
Y76719D01*
X78975D01*
Y76974D01*
X78952Y77091D01*
X78886Y77190D01*
X78787Y77256D01*
X78670Y77279D01*
D02*
G37*
G36*
X77815D02*
X77260D01*
X77143Y77256D01*
X77044Y77190D01*
X76978Y77091D01*
X76955Y76974D01*
Y76719D01*
X77815D01*
Y77279D01*
D02*
G37*
G36*
X61170D02*
X60615D01*
Y76719D01*
X61475D01*
Y76974D01*
X61452Y77091D01*
X61386Y77190D01*
X61287Y77256D01*
X61170Y77279D01*
D02*
G37*
G36*
X60315D02*
X59760D01*
X59643Y77256D01*
X59544Y77190D01*
X59478Y77091D01*
X59455Y76974D01*
Y76719D01*
X60315D01*
Y77279D01*
D02*
G37*
G36*
X58216Y77304D02*
X57427D01*
Y76690D01*
X57702D01*
X57899Y76729D01*
X58065Y76841D01*
X58177Y77007D01*
X58216Y77204D01*
Y77304D01*
D02*
G37*
G36*
X57127D02*
X56338D01*
Y77204D01*
X56377Y77007D01*
X56489Y76841D01*
X56655Y76729D01*
X56852Y76690D01*
X57127D01*
Y77304D01*
D02*
G37*
G36*
X54914D02*
X54125D01*
Y76690D01*
X54400D01*
X54597Y76729D01*
X54763Y76841D01*
X54875Y77007D01*
X54914Y77204D01*
Y77304D01*
D02*
G37*
G36*
X53825D02*
X53036D01*
Y77204D01*
X53075Y77007D01*
X53187Y76841D01*
X53353Y76729D01*
X53550Y76690D01*
X53825D01*
Y77304D01*
D02*
G37*
G36*
X85875Y77187D02*
Y76202D01*
X86290D01*
Y76652D01*
X86247Y76868D01*
X86124Y77051D01*
X85941Y77174D01*
X85875Y77187D01*
D02*
G37*
G36*
X85575D02*
X85509Y77174D01*
X85326Y77051D01*
X85203Y76868D01*
X85160Y76652D01*
Y76202D01*
X85575D01*
Y77187D01*
D02*
G37*
G36*
X84605D02*
Y76202D01*
X85020D01*
Y76652D01*
X84977Y76868D01*
X84854Y77051D01*
X84671Y77174D01*
X84605Y77187D01*
D02*
G37*
G36*
X84305D02*
X84239Y77174D01*
X84056Y77051D01*
X83933Y76868D01*
X83890Y76652D01*
Y76202D01*
X84305D01*
Y77187D01*
D02*
G37*
G36*
X83335D02*
Y76202D01*
X83750D01*
Y76652D01*
X83707Y76868D01*
X83584Y77051D01*
X83401Y77174D01*
X83335Y77187D01*
D02*
G37*
G36*
X83035D02*
X82969Y77174D01*
X82786Y77051D01*
X82663Y76868D01*
X82620Y76652D01*
Y76202D01*
X83035D01*
Y77187D01*
D02*
G37*
G36*
X82065D02*
Y76202D01*
X82480D01*
Y76652D01*
X82437Y76868D01*
X82314Y77051D01*
X82131Y77174D01*
X82065Y77187D01*
D02*
G37*
G36*
X81765D02*
X81699Y77174D01*
X81516Y77051D01*
X81393Y76868D01*
X81350Y76652D01*
Y76202D01*
X81765D01*
Y77187D01*
D02*
G37*
G36*
X86290Y75902D02*
X85875D01*
Y74917D01*
X85941Y74930D01*
X86124Y75053D01*
X86247Y75236D01*
X86290Y75452D01*
Y75902D01*
D02*
G37*
G36*
X85575D02*
X85160D01*
Y75452D01*
X85203Y75236D01*
X85326Y75053D01*
X85509Y74930D01*
X85575Y74917D01*
Y75902D01*
D02*
G37*
G36*
X85020D02*
X84605D01*
Y74917D01*
X84671Y74930D01*
X84854Y75053D01*
X84977Y75236D01*
X85020Y75452D01*
Y75902D01*
D02*
G37*
G36*
X84305D02*
X83890D01*
Y75452D01*
X83933Y75236D01*
X84056Y75053D01*
X84239Y74930D01*
X84305Y74917D01*
Y75902D01*
D02*
G37*
G36*
X83750D02*
X83335D01*
Y74917D01*
X83401Y74930D01*
X83584Y75053D01*
X83707Y75236D01*
X83750Y75452D01*
Y75902D01*
D02*
G37*
G36*
X83035D02*
X82620D01*
Y75452D01*
X82663Y75236D01*
X82786Y75053D01*
X82969Y74930D01*
X83035Y74917D01*
Y75902D01*
D02*
G37*
G36*
X82480D02*
X82065D01*
Y74917D01*
X82131Y74930D01*
X82314Y75053D01*
X82437Y75236D01*
X82480Y75452D01*
Y75902D01*
D02*
G37*
G36*
X81765D02*
X81350D01*
Y75452D01*
X81393Y75236D01*
X81516Y75053D01*
X81699Y74930D01*
X81765Y74917D01*
Y75902D01*
D02*
G37*
G36*
X26147Y82913D02*
X14747D01*
Y74313D01*
X26147D01*
Y82913D01*
D02*
G37*
G36*
X49299Y70839D02*
Y69746D01*
X50212D01*
Y69796D01*
X50176Y70071D01*
X50070Y70328D01*
X49901Y70548D01*
X49681Y70717D01*
X49424Y70823D01*
X49299Y70839D01*
D02*
G37*
G36*
X48999Y70839D02*
X48874Y70823D01*
X48617Y70717D01*
X48397Y70548D01*
X48228Y70328D01*
X48122Y70071D01*
X48086Y69796D01*
Y69746D01*
X48999D01*
Y70839D01*
D02*
G37*
G36*
X30496Y74692D02*
X28746D01*
X28439Y74652D01*
X28153Y74533D01*
X27908Y74345D01*
X27720Y74100D01*
X27601Y73814D01*
X27561Y73507D01*
Y72689D01*
X20066D01*
X19857Y72661D01*
X19663Y72581D01*
X19495Y72453D01*
X18176Y71134D01*
X18048Y70966D01*
X17968Y70772D01*
X17940Y70563D01*
Y69426D01*
X17882Y69323D01*
X16212D01*
Y68580D01*
X16130Y68473D01*
X16124Y68459D01*
X11988D01*
X11928Y68505D01*
X11746Y68581D01*
X11550Y68606D01*
X10650D01*
X10454Y68581D01*
X10272Y68505D01*
X10115Y68385D01*
X9995Y68228D01*
X9919Y68046D01*
X9894Y67850D01*
Y66950D01*
X9919Y66754D01*
X9995Y66572D01*
X10041Y66512D01*
Y61577D01*
X7438Y58974D01*
X5288D01*
Y56850D01*
X6053D01*
Y29718D01*
X6053Y29718D01*
X6089Y29444D01*
X6195Y29188D01*
X6363Y28969D01*
X10046Y25286D01*
X10046Y25286D01*
X10265Y25118D01*
X10521Y25012D01*
X10795Y24976D01*
X10795Y24976D01*
X15494D01*
X15494Y24976D01*
X15768Y25012D01*
X16024Y25118D01*
X16243Y25286D01*
X19084Y28127D01*
X19084Y28127D01*
X19252Y28346D01*
X19358Y28602D01*
X19394Y28876D01*
X19394Y28876D01*
Y30145D01*
X19394Y30145D01*
X19358Y30420D01*
X19347Y30446D01*
Y31153D01*
X19451Y31222D01*
X19705Y31476D01*
X19904Y31775D01*
X20042Y32107D01*
X20112Y32459D01*
Y32819D01*
X20042Y33171D01*
X19904Y33503D01*
X19705Y33802D01*
X19451Y34056D01*
X19152Y34255D01*
X18820Y34393D01*
X18468Y34463D01*
X18108D01*
X17756Y34393D01*
X17424Y34255D01*
X17125Y34056D01*
X16871Y33802D01*
X16672Y33503D01*
X16534Y33171D01*
X16464Y32819D01*
Y32459D01*
X16534Y32107D01*
X16672Y31775D01*
X16871Y31476D01*
X17125Y31222D01*
X17229Y31153D01*
Y30192D01*
X17229Y30192D01*
X17265Y29918D01*
X17276Y29892D01*
Y29315D01*
X15055Y27094D01*
X11234D01*
X8171Y30157D01*
Y56850D01*
X8936D01*
Y57476D01*
X11849Y60389D01*
X12017Y60608D01*
X12123Y60864D01*
X12159Y61138D01*
X12159Y61138D01*
Y66341D01*
X14435D01*
Y61254D01*
X14308Y61238D01*
X14290Y61303D01*
X14173Y61506D01*
X14008Y61671D01*
X13805Y61788D01*
X13612Y61840D01*
Y60960D01*
Y60080D01*
X13805Y60132D01*
X14008Y60249D01*
X14173Y60414D01*
X14290Y60617D01*
X14313Y60700D01*
X14442Y60692D01*
X14471Y60471D01*
X14577Y60215D01*
X14745Y59996D01*
X15038Y59703D01*
X15038Y59703D01*
X15257Y59535D01*
X15513Y59429D01*
X15787Y59393D01*
X18288D01*
X18562Y59429D01*
X18621Y59453D01*
X19223D01*
Y59966D01*
X19311Y60178D01*
X19347Y60452D01*
X19311Y60726D01*
X19223Y60938D01*
Y61451D01*
X18621D01*
X18562Y61475D01*
X18288Y61511D01*
X16553D01*
Y66243D01*
X16619Y66341D01*
X16893Y66377D01*
X17148Y66483D01*
X17253Y66563D01*
X17854D01*
Y65031D01*
X17746Y64986D01*
X17589Y64866D01*
X17469Y64709D01*
X17393Y64527D01*
X17368Y64331D01*
Y63431D01*
X17393Y63235D01*
X17469Y63053D01*
X17589Y62896D01*
X17746Y62776D01*
X17928Y62700D01*
X18124Y62675D01*
X19024D01*
X19220Y62700D01*
X19402Y62776D01*
X19559Y62896D01*
X19679Y63053D01*
X19755Y63235D01*
X19780Y63431D01*
Y64331D01*
X19755Y64527D01*
X19679Y64709D01*
X19559Y64866D01*
X19467Y64936D01*
Y66473D01*
X19557Y66563D01*
X19582D01*
X19690Y66609D01*
X19709Y66609D01*
X20297D01*
Y67943D01*
Y69277D01*
X19690Y69277D01*
X19582Y69323D01*
X19554Y69443D01*
Y70229D01*
X20400Y71075D01*
X27561D01*
Y70257D01*
X27601Y69950D01*
X27720Y69664D01*
X27908Y69419D01*
X28153Y69231D01*
X28439Y69112D01*
X28746Y69072D01*
X30496D01*
X30803Y69112D01*
X31089Y69231D01*
X31334Y69419D01*
X31522Y69664D01*
X31641Y69950D01*
X31681Y70257D01*
Y73507D01*
X31641Y73814D01*
X31522Y74100D01*
X31334Y74345D01*
X31089Y74533D01*
X30803Y74652D01*
X30496Y74692D01*
D02*
G37*
G36*
X50212Y69446D02*
X49299D01*
Y68353D01*
X49424Y68369D01*
X49681Y68475D01*
X49901Y68644D01*
X50070Y68864D01*
X50176Y69121D01*
X50212Y69396D01*
Y69446D01*
D02*
G37*
G36*
X48999D02*
X48086D01*
Y69396D01*
X48122Y69121D01*
X48228Y68864D01*
X48397Y68644D01*
X48617Y68475D01*
X48874Y68369D01*
X48999Y68353D01*
Y69446D01*
D02*
G37*
G36*
X52789Y70896D02*
X50589D01*
Y68296D01*
X52789D01*
Y68654D01*
X53802D01*
Y68216D01*
X55672D01*
Y70214D01*
X53802D01*
Y69776D01*
X52789D01*
Y70896D01*
D02*
G37*
G36*
X23997Y69277D02*
Y68093D01*
X24636D01*
Y69277D01*
X23997D01*
D02*
G37*
G36*
X24636Y67793D02*
X23997D01*
Y66609D01*
X24636D01*
Y67793D01*
D02*
G37*
G36*
X7927Y76754D02*
X7567D01*
X7215Y76684D01*
X6883Y76546D01*
X6584Y76347D01*
X6330Y76093D01*
X6131Y75794D01*
X5993Y75462D01*
X5923Y75110D01*
Y74750D01*
X5993Y74398D01*
X6131Y74066D01*
X6330Y73767D01*
X6490Y73608D01*
Y71595D01*
X6351Y71456D01*
X6183Y71237D01*
X6077Y70981D01*
X6041Y70707D01*
X6041Y70707D01*
Y68600D01*
X5900D01*
Y66200D01*
X8300D01*
Y68600D01*
X8159D01*
Y70268D01*
X8298Y70407D01*
X8298Y70407D01*
X8466Y70626D01*
X8572Y70882D01*
X8608Y71156D01*
X8608Y71156D01*
Y73312D01*
X8611Y73314D01*
X8910Y73513D01*
X9164Y73767D01*
X9363Y74066D01*
X9501Y74398D01*
X9571Y74750D01*
Y75110D01*
X9501Y75462D01*
X9363Y75794D01*
X9164Y76093D01*
X8910Y76347D01*
X8611Y76546D01*
X8279Y76684D01*
X7927Y76754D01*
D02*
G37*
G36*
X49299Y65378D02*
Y64285D01*
X50212D01*
Y64335D01*
X50176Y64610D01*
X50070Y64867D01*
X49901Y65087D01*
X49681Y65256D01*
X49424Y65362D01*
X49299Y65378D01*
D02*
G37*
G36*
X48999Y65378D02*
X48874Y65362D01*
X48617Y65256D01*
X48397Y65087D01*
X48228Y64867D01*
X48122Y64610D01*
X48086Y64335D01*
Y64285D01*
X48999D01*
Y65378D01*
D02*
G37*
G36*
X23728Y65035D02*
X22724D01*
Y64031D01*
X23728D01*
Y65035D01*
D02*
G37*
G36*
X22424D02*
X21420D01*
Y64031D01*
X22424D01*
Y65035D01*
D02*
G37*
G36*
X52789Y65435D02*
X50589D01*
Y62835D01*
X52789D01*
Y63828D01*
X53802D01*
Y63390D01*
X55672D01*
Y65387D01*
X53802D01*
Y64950D01*
X52789D01*
Y65435D01*
D02*
G37*
G36*
X50212Y63985D02*
X49299D01*
Y62892D01*
X49424Y62908D01*
X49681Y63014D01*
X49901Y63183D01*
X50070Y63403D01*
X50176Y63660D01*
X50212Y63935D01*
Y63985D01*
D02*
G37*
G36*
X48999D02*
X48086D01*
Y63935D01*
X48122Y63660D01*
X48228Y63403D01*
X48397Y63183D01*
X48617Y63014D01*
X48874Y62908D01*
X48999Y62892D01*
Y63985D01*
D02*
G37*
G36*
X90193Y63621D02*
Y62761D01*
X91053D01*
X90988Y63002D01*
X90854Y63234D01*
X90666Y63422D01*
X90434Y63556D01*
X90193Y63621D01*
D02*
G37*
G36*
X89893D02*
X89652Y63556D01*
X89420Y63422D01*
X89232Y63234D01*
X89098Y63002D01*
X89033Y62761D01*
X89893D01*
Y63621D01*
D02*
G37*
G36*
X23728Y63731D02*
X22724D01*
Y62727D01*
X23728D01*
Y63731D01*
D02*
G37*
G36*
X22424D02*
X21420D01*
Y62727D01*
X22424D01*
Y63731D01*
D02*
G37*
G36*
X91053Y62461D02*
X90193D01*
Y61601D01*
X90434Y61666D01*
X90666Y61800D01*
X90854Y61988D01*
X90988Y62220D01*
X91053Y62461D01*
D02*
G37*
G36*
X89893D02*
X89033D01*
X89098Y62220D01*
X89232Y61988D01*
X89420Y61800D01*
X89652Y61666D01*
X89893Y61601D01*
Y62461D01*
D02*
G37*
G36*
X25550Y61840D02*
Y61110D01*
X26280D01*
X26228Y61303D01*
X26111Y61506D01*
X25946Y61671D01*
X25743Y61788D01*
X25550Y61840D01*
D02*
G37*
G36*
X25250D02*
X25057Y61788D01*
X24854Y61671D01*
X24689Y61506D01*
X24572Y61303D01*
X24520Y61110D01*
X25250D01*
Y61840D01*
D02*
G37*
G36*
X13312D02*
X13119Y61788D01*
X12916Y61671D01*
X12751Y61506D01*
X12634Y61303D01*
X12582Y61110D01*
X13312D01*
Y61840D01*
D02*
G37*
G36*
X3706D02*
Y61110D01*
X4436D01*
X4384Y61303D01*
X4267Y61506D01*
X4102Y61671D01*
X3899Y61788D01*
X3706Y61840D01*
D02*
G37*
G36*
X3406D02*
X3213Y61788D01*
X3010Y61671D01*
X2845Y61506D01*
X2728Y61303D01*
X2676Y61110D01*
X3406D01*
Y61840D01*
D02*
G37*
G36*
X26280Y60810D02*
X25550D01*
Y60080D01*
X25743Y60132D01*
X25946Y60249D01*
X26111Y60414D01*
X26228Y60617D01*
X26280Y60810D01*
D02*
G37*
G36*
X25250D02*
X24520D01*
X24572Y60617D01*
X24689Y60414D01*
X24854Y60249D01*
X25057Y60132D01*
X25250Y60080D01*
Y60810D01*
D02*
G37*
G36*
X13312D02*
X12582D01*
X12634Y60617D01*
X12751Y60414D01*
X12916Y60249D01*
X13119Y60132D01*
X13312Y60080D01*
Y60810D01*
D02*
G37*
G36*
X4436D02*
X3706D01*
Y60080D01*
X3899Y60132D01*
X4102Y60249D01*
X4267Y60414D01*
X4384Y60617D01*
X4436Y60810D01*
D02*
G37*
G36*
X3406D02*
X2676D01*
X2728Y60617D01*
X2845Y60414D01*
X3010Y60249D01*
X3213Y60132D01*
X3406Y60080D01*
Y60810D01*
D02*
G37*
G36*
X65782Y64054D02*
X65536D01*
X65298Y63990D01*
X65085Y63867D01*
X64911Y63693D01*
X64788Y63480D01*
X64724Y63242D01*
Y62996D01*
X64788Y62758D01*
X64911Y62545D01*
X65085Y62371D01*
X65298Y62248D01*
X65536Y62184D01*
X65782D01*
X66020Y62248D01*
X66233Y62371D01*
X66407Y62545D01*
X66415Y62558D01*
X72031D01*
X74364Y60225D01*
Y59625D01*
X74245Y59555D01*
X74195Y59589D01*
X74060Y59616D01*
X73250D01*
X73115Y59589D01*
X73020Y59525D01*
X72925Y59589D01*
X72790Y59616D01*
X71980D01*
X71845Y59589D01*
X71750Y59525D01*
X71655Y59589D01*
X71520Y59616D01*
X70710D01*
X70575Y59589D01*
X70480Y59525D01*
X70385Y59589D01*
X70250Y59616D01*
X69440D01*
X69305Y59589D01*
X69210Y59525D01*
X69115Y59589D01*
X68980Y59616D01*
X68170D01*
X68035Y59589D01*
X67940Y59525D01*
X67845Y59589D01*
X67710Y59616D01*
X66900D01*
X66765Y59589D01*
X66670Y59525D01*
X66575Y59589D01*
X66440Y59616D01*
X65630D01*
X65495Y59589D01*
X65400Y59525D01*
X65305Y59589D01*
X65170Y59616D01*
X64360D01*
X64225Y59589D01*
X64111Y59513D01*
X64076Y59506D01*
X64017Y59546D01*
X63900Y59569D01*
X63645D01*
Y58559D01*
Y57549D01*
X63900D01*
X64017Y57572D01*
X64076Y57612D01*
X64111Y57605D01*
X64225Y57529D01*
X64360Y57502D01*
X65170D01*
X65305Y57529D01*
X65400Y57593D01*
X65495Y57529D01*
X65630Y57502D01*
X66440D01*
X66575Y57529D01*
X66670Y57593D01*
X66765Y57529D01*
X66900Y57502D01*
X67710D01*
X67845Y57529D01*
X67940Y57593D01*
X68035Y57529D01*
X68170Y57502D01*
X68980D01*
X69115Y57529D01*
X69210Y57593D01*
X69305Y57529D01*
X69440Y57502D01*
X70250D01*
X70385Y57529D01*
X70480Y57593D01*
X70575Y57529D01*
X70710Y57502D01*
X71520D01*
X71655Y57529D01*
X71750Y57593D01*
X71845Y57529D01*
X71980Y57502D01*
X72790D01*
X72925Y57529D01*
X72980Y57566D01*
X73097Y57496D01*
Y55418D01*
X72661D01*
Y53548D01*
X74659D01*
Y55418D01*
X74218D01*
Y57489D01*
X74339Y57560D01*
X74385Y57529D01*
X74520Y57502D01*
X75330D01*
X75465Y57529D01*
X75579Y57605D01*
X75655Y57719D01*
X75682Y57854D01*
Y59264D01*
X75655Y59399D01*
X75579Y59513D01*
X75486Y59575D01*
Y60457D01*
X75443Y60672D01*
X75322Y60854D01*
X72660Y63516D01*
X72478Y63637D01*
X72263Y63680D01*
X66415D01*
X66407Y63693D01*
X66233Y63867D01*
X66020Y63990D01*
X65782Y64054D01*
D02*
G37*
G36*
X63345Y59569D02*
X63090D01*
X62973Y59546D01*
X62874Y59480D01*
X62808Y59381D01*
X62785Y59264D01*
Y58709D01*
X63345D01*
Y59569D01*
D02*
G37*
G36*
X34036Y59182D02*
X32408D01*
Y58316D01*
X34036D01*
Y59182D01*
D02*
G37*
G36*
X32108D02*
X30480D01*
Y58316D01*
X32108D01*
Y59182D01*
D02*
G37*
G36*
X15240Y58928D02*
X13612D01*
Y58062D01*
X15240D01*
Y58928D01*
D02*
G37*
G36*
X13312D02*
X11684D01*
Y58062D01*
X13312D01*
Y58928D01*
D02*
G37*
G36*
X28384Y58786D02*
X27455D01*
Y57882D01*
X28384D01*
Y58786D01*
D02*
G37*
G36*
X27155D02*
X26226D01*
Y57882D01*
X27155D01*
Y58786D01*
D02*
G37*
G36*
X19177Y58356D02*
X18438D01*
Y57554D01*
X19177D01*
Y58356D01*
D02*
G37*
G36*
X18138D02*
X17399D01*
Y57554D01*
X18138D01*
Y58356D01*
D02*
G37*
G36*
X63345Y58409D02*
X62785D01*
Y57854D01*
X62808Y57737D01*
X62874Y57638D01*
X62973Y57572D01*
X63090Y57549D01*
X63345D01*
Y58409D01*
D02*
G37*
G36*
X34036Y58016D02*
X32408D01*
Y57150D01*
X34036D01*
Y58016D01*
D02*
G37*
G36*
X32108D02*
X30480D01*
Y57150D01*
X32108D01*
Y58016D01*
D02*
G37*
G36*
X15240Y57762D02*
X13612D01*
Y56896D01*
X15240D01*
Y57762D01*
D02*
G37*
G36*
X13312D02*
X11684D01*
Y56896D01*
X13312D01*
Y57762D01*
D02*
G37*
G36*
X28384Y57582D02*
X27455D01*
Y56678D01*
X28384D01*
Y57582D01*
D02*
G37*
G36*
X27155D02*
X26226D01*
Y56678D01*
X27155D01*
Y57582D01*
D02*
G37*
G36*
X19177Y57254D02*
X18438D01*
Y56451D01*
X19177D01*
Y57254D01*
D02*
G37*
G36*
X18138D02*
X17399D01*
Y56451D01*
X18138D01*
Y57254D01*
D02*
G37*
G36*
X71691Y55372D02*
X70889D01*
Y54633D01*
X71691D01*
Y55372D01*
D02*
G37*
G36*
X70589D02*
X69786D01*
Y54633D01*
X70589D01*
Y55372D01*
D02*
G37*
G36*
X69035Y54994D02*
X68456D01*
Y54440D01*
X69035D01*
Y54994D01*
D02*
G37*
G36*
X68156D02*
X67577D01*
Y54440D01*
X68156D01*
Y54994D01*
D02*
G37*
G36*
X18554Y54914D02*
X18454D01*
Y54125D01*
X19068D01*
Y54400D01*
X19029Y54597D01*
X18917Y54763D01*
X18751Y54875D01*
X18554Y54914D01*
D02*
G37*
G36*
X18154D02*
X18054D01*
X17857Y54875D01*
X17691Y54763D01*
X17579Y54597D01*
X17540Y54400D01*
Y54125D01*
X18154D01*
Y54914D01*
D02*
G37*
G36*
X71691Y54333D02*
X70889D01*
Y53594D01*
X71691D01*
Y54333D01*
D02*
G37*
G36*
X70589D02*
X69786D01*
Y53594D01*
X70589D01*
Y54333D01*
D02*
G37*
G36*
X69035Y54140D02*
X68456D01*
Y53586D01*
X69035D01*
Y54140D01*
D02*
G37*
G36*
X68156D02*
X67577D01*
Y53586D01*
X68156D01*
Y54140D01*
D02*
G37*
G36*
X19068Y53825D02*
X18454D01*
Y53036D01*
X18554D01*
X18751Y53075D01*
X18917Y53187D01*
X19029Y53353D01*
X19068Y53550D01*
Y53825D01*
D02*
G37*
G36*
X18154D02*
X17540D01*
Y53550D01*
X17579Y53353D01*
X17691Y53187D01*
X17857Y53075D01*
X18054Y53036D01*
X18154D01*
Y53825D01*
D02*
G37*
G36*
X55477Y56091D02*
X55187D01*
X54907Y56016D01*
X54657Y55871D01*
X54452Y55666D01*
X54307Y55416D01*
X54232Y55136D01*
Y54846D01*
X54307Y54566D01*
X54452Y54316D01*
X54657Y54111D01*
X54907Y53966D01*
X55187Y53891D01*
X55477D01*
X55605Y53925D01*
X56586Y52943D01*
X56768Y52822D01*
X56983Y52779D01*
X65031D01*
Y52590D01*
X66581D01*
Y54090D01*
X65031D01*
Y53901D01*
X57215D01*
X56398Y54718D01*
X56432Y54846D01*
Y55136D01*
X56357Y55416D01*
X56212Y55666D01*
X56007Y55871D01*
X55757Y56016D01*
X55477Y56091D01*
D02*
G37*
G36*
X69081Y53140D02*
X67531D01*
Y51640D01*
X69081D01*
Y51733D01*
X69741D01*
Y51262D01*
X71738D01*
Y51636D01*
X72661D01*
Y51262D01*
X74659D01*
Y53132D01*
X72661D01*
Y52758D01*
X71738D01*
Y53132D01*
X69741D01*
Y52854D01*
X69081D01*
Y53140D01*
D02*
G37*
G36*
X19558Y45602D02*
X19327D01*
Y44727D01*
X20563D01*
X20548Y44842D01*
X20445Y45089D01*
X20283Y45302D01*
X20070Y45464D01*
X19823Y45567D01*
X19558Y45602D01*
D02*
G37*
G36*
X19027D02*
X18796D01*
X18531Y45567D01*
X18284Y45464D01*
X18071Y45302D01*
X17909Y45089D01*
X17806Y44842D01*
X17791Y44727D01*
X19027D01*
Y45602D01*
D02*
G37*
G36*
X15490Y49576D02*
X15244D01*
X15006Y49512D01*
X14793Y49389D01*
X14619Y49215D01*
X14496Y49002D01*
X14432Y48764D01*
Y48518D01*
X14496Y48280D01*
X14560Y48169D01*
Y45800D01*
X13107Y44347D01*
X12987Y44406D01*
X13009Y44577D01*
X12973Y44854D01*
X12866Y45113D01*
X12695Y45334D01*
X12474Y45505D01*
X12215Y45612D01*
X11938Y45648D01*
X11176D01*
X10899Y45612D01*
X10640Y45505D01*
X10419Y45334D01*
X10248Y45113D01*
X10141Y44854D01*
X10105Y44577D01*
X10137Y44331D01*
X8620Y42815D01*
X8499Y42633D01*
X8456Y42418D01*
Y39433D01*
X8499Y39219D01*
X8620Y39037D01*
X10114Y37543D01*
Y36340D01*
X11984D01*
Y38336D01*
X10907D01*
X9578Y39666D01*
Y42186D01*
X10930Y43538D01*
X11176Y43506D01*
X11938D01*
X12109Y43528D01*
X12168Y43408D01*
X11868Y43108D01*
X11176D01*
X10899Y43072D01*
X10640Y42965D01*
X10419Y42794D01*
X10248Y42573D01*
X10141Y42314D01*
X10105Y42037D01*
X10141Y41760D01*
X10248Y41501D01*
X10419Y41280D01*
X10640Y41109D01*
X10899Y41002D01*
X11176Y40966D01*
X11938D01*
X12215Y41002D01*
X12474Y41109D01*
X12695Y41280D01*
X12866Y41501D01*
X12973Y41760D01*
X12999Y41956D01*
X15938Y44895D01*
X16066Y45063D01*
X16146Y45257D01*
X16174Y45466D01*
Y48169D01*
X16238Y48280D01*
X16302Y48518D01*
Y48764D01*
X16238Y49002D01*
X16115Y49215D01*
X15941Y49389D01*
X15728Y49512D01*
X15490Y49576D01*
D02*
G37*
G36*
X20563Y44427D02*
X19327D01*
Y43552D01*
X19558D01*
X19823Y43587D01*
X20070Y43690D01*
X20283Y43852D01*
X20445Y44065D01*
X20548Y44312D01*
X20563Y44427D01*
D02*
G37*
G36*
X19027D02*
X17791D01*
X17806Y44312D01*
X17909Y44065D01*
X18071Y43852D01*
X18284Y43690D01*
X18531Y43587D01*
X18796Y43552D01*
X19027D01*
Y44427D01*
D02*
G37*
G36*
X25581Y44072D02*
X25002D01*
Y43518D01*
X25581D01*
Y44072D01*
D02*
G37*
G36*
X24702D02*
X24123D01*
Y43518D01*
X24702D01*
Y44072D01*
D02*
G37*
G36*
X25581Y43218D02*
X25002D01*
Y42664D01*
X25581D01*
Y43218D01*
D02*
G37*
G36*
X24702D02*
X24123D01*
Y42664D01*
X24702D01*
Y43218D01*
D02*
G37*
G36*
X16252Y44369D02*
X16006D01*
X15768Y44305D01*
X15555Y44182D01*
X15381Y44008D01*
X15258Y43795D01*
X15194Y43557D01*
Y43311D01*
X15258Y43073D01*
X15381Y42860D01*
X15555Y42686D01*
X15568Y42678D01*
Y38336D01*
X15194D01*
Y36340D01*
X17064D01*
Y38336D01*
X16690D01*
Y42678D01*
X16703Y42686D01*
X16877Y42860D01*
X17000Y43073D01*
X17064Y43311D01*
Y43557D01*
X17000Y43795D01*
X16877Y44008D01*
X16703Y44182D01*
X16490Y44305D01*
X16252Y44369D01*
D02*
G37*
G36*
X14270Y38336D02*
X12400D01*
Y36340D01*
X12774D01*
Y35935D01*
X12761Y35927D01*
X12587Y35753D01*
X12464Y35540D01*
X12400Y35302D01*
Y35056D01*
X12464Y34818D01*
X12587Y34605D01*
X12761Y34431D01*
X12974Y34308D01*
X13212Y34244D01*
X13458D01*
X13696Y34308D01*
X13909Y34431D01*
X14083Y34605D01*
X14206Y34818D01*
X14270Y35056D01*
Y35302D01*
X14206Y35540D01*
X14083Y35753D01*
X13909Y35927D01*
X13896Y35935D01*
Y36340D01*
X14270D01*
Y38336D01*
D02*
G37*
G36*
X28892Y24765D02*
X28090D01*
Y24026D01*
X28892D01*
Y24765D01*
D02*
G37*
G36*
X27790D02*
X26987D01*
Y24026D01*
X27790D01*
Y24765D01*
D02*
G37*
G36*
X28892Y23726D02*
X28090D01*
Y22987D01*
X28892D01*
Y23726D01*
D02*
G37*
G36*
X27790D02*
X26987D01*
Y22987D01*
X27790D01*
Y23726D01*
D02*
G37*
G36*
X36306Y21440D02*
X35052D01*
X33798D01*
Y21425D01*
X33883Y21106D01*
X34049Y20820D01*
X34282Y20587D01*
X34568Y20421D01*
X34621Y20407D01*
Y20280D01*
X34550Y20261D01*
X34254Y20090D01*
X34012Y19848D01*
X33841Y19552D01*
X33752Y19221D01*
Y18879D01*
X33841Y18548D01*
X34012Y18252D01*
X34254Y18010D01*
X34380Y17937D01*
X34346Y17810D01*
X33752D01*
Y17198D01*
X33268D01*
X33260Y17211D01*
X33086Y17385D01*
X32873Y17508D01*
X32635Y17572D01*
X32389D01*
X32151Y17508D01*
X31938Y17385D01*
X31764Y17211D01*
X31641Y16998D01*
X31577Y16760D01*
Y16514D01*
X31641Y16276D01*
X31764Y16063D01*
X31938Y15889D01*
X32151Y15766D01*
X32389Y15702D01*
X32635D01*
X32873Y15766D01*
X33086Y15889D01*
X33260Y16063D01*
X33268Y16076D01*
X33752D01*
Y15210D01*
X36352D01*
Y17810D01*
X35758D01*
X35724Y17937D01*
X35850Y18010D01*
X36092Y18252D01*
X36229Y18489D01*
X37344D01*
X37352Y18476D01*
X37526Y18302D01*
X37739Y18179D01*
X37977Y18115D01*
X38223D01*
X38461Y18179D01*
X38674Y18302D01*
X38848Y18476D01*
X38971Y18689D01*
X39035Y18927D01*
Y19173D01*
X38971Y19411D01*
X38848Y19624D01*
X38674Y19798D01*
X38461Y19921D01*
X38223Y19985D01*
X37977D01*
X37739Y19921D01*
X37526Y19798D01*
X37352Y19624D01*
X37344Y19611D01*
X36229D01*
X36092Y19848D01*
X35850Y20090D01*
X35554Y20261D01*
X35483Y20280D01*
Y20407D01*
X35536Y20421D01*
X35822Y20587D01*
X36055Y20820D01*
X36221Y21106D01*
X36306Y21425D01*
Y21440D01*
D02*
G37*
G36*
X12875Y9525D02*
X12850D01*
Y7897D01*
X14478D01*
Y7922D01*
X14410Y8266D01*
X14276Y8589D01*
X14081Y8880D01*
X13833Y9128D01*
X13542Y9323D01*
X13219Y9457D01*
X12875Y9525D01*
D02*
G37*
G36*
X12550D02*
X12525D01*
X12181Y9457D01*
X11858Y9323D01*
X11567Y9128D01*
X11319Y8880D01*
X11124Y8589D01*
X10990Y8266D01*
X10922Y7922D01*
Y7897D01*
X12550D01*
Y9525D01*
D02*
G37*
G36*
X14478Y7597D02*
X12850D01*
Y5969D01*
X12875D01*
X13219Y6037D01*
X13542Y6171D01*
X13833Y6366D01*
X14081Y6614D01*
X14276Y6905D01*
X14410Y7228D01*
X14478Y7572D01*
Y7597D01*
D02*
G37*
G36*
X12550D02*
X10922D01*
Y7572D01*
X10990Y7228D01*
X11124Y6905D01*
X11319Y6614D01*
X11567Y6366D01*
X11858Y6171D01*
X12181Y6037D01*
X12525Y5969D01*
X12550D01*
Y7597D01*
D02*
G37*
G36*
X12372Y19731D02*
X12012D01*
X11660Y19661D01*
X11328Y19523D01*
X11029Y19324D01*
X10775Y19070D01*
X10576Y18771D01*
X10438Y18439D01*
X10368Y18087D01*
Y17727D01*
X10438Y17375D01*
X10576Y17043D01*
X10775Y16744D01*
X11029Y16490D01*
X11328Y16291D01*
X11660Y16153D01*
X12012Y16083D01*
X12372D01*
X12494Y16107D01*
X16721Y11880D01*
Y9233D01*
X16617Y9164D01*
X16363Y8910D01*
X16164Y8611D01*
X16026Y8279D01*
X15956Y7927D01*
Y7567D01*
X16026Y7215D01*
X16164Y6883D01*
X16363Y6584D01*
X16617Y6330D01*
X16916Y6131D01*
X17248Y5993D01*
X17600Y5923D01*
X17960D01*
X18312Y5993D01*
X18644Y6131D01*
X18943Y6330D01*
X19197Y6584D01*
X19396Y6883D01*
X19534Y7215D01*
X19604Y7567D01*
Y7927D01*
X19534Y8279D01*
X19396Y8611D01*
X19197Y8910D01*
X18943Y9164D01*
X18839Y9233D01*
Y12319D01*
X18839Y12319D01*
X18803Y12593D01*
X18697Y12849D01*
X18529Y13068D01*
X18529Y13068D01*
X13992Y17605D01*
X14016Y17727D01*
Y18087D01*
X13946Y18439D01*
X13808Y18771D01*
X13609Y19070D01*
X13355Y19324D01*
X13056Y19523D01*
X12724Y19661D01*
X12372Y19731D01*
D02*
G37*
G36*
X94211Y4294D02*
X94188D01*
X93849Y4227D01*
X93530Y4094D01*
X93243Y3902D01*
X92999Y3658D01*
X92807Y3371D01*
X92674Y3052D01*
X92607Y2713D01*
Y2690D01*
X94211D01*
Y4294D01*
D02*
G37*
G36*
X2713D02*
X2690D01*
Y2690D01*
X4294D01*
Y2713D01*
X4227Y3052D01*
X4094Y3371D01*
X3902Y3658D01*
X3658Y3902D01*
X3371Y4094D01*
X3052Y4227D01*
X2713Y4294D01*
D02*
G37*
%LPD*%
D12*
X21955Y52324D02*
X25347D01*
X27305Y54282D01*
X20767Y53512D02*
X21955Y52324D01*
X20304Y53854D02*
X20646Y53512D01*
X20767D01*
X20304Y53854D02*
Y53975D01*
Y57134D01*
X20574Y57404D01*
Y60452D01*
D20*
X7112Y57912D02*
D03*
X13462D02*
D03*
X32258Y58166D02*
D03*
X38608D02*
D03*
D21*
X27940Y23876D02*
D03*
Y26162D02*
D03*
Y19177D02*
D03*
Y21463D02*
D03*
X70739Y54483D02*
D03*
Y52197D02*
D03*
X73660Y54483D02*
D03*
Y52197D02*
D03*
X63881Y88773D02*
D03*
Y91059D02*
D03*
X74422Y88773D02*
D03*
Y91059D02*
D03*
X6477Y88773D02*
D03*
Y86487D02*
D03*
X10541Y86360D02*
D03*
Y88646D02*
D03*
D22*
X84455Y61849D02*
D03*
X82169D02*
D03*
X57023Y64389D02*
D03*
X54737D02*
D03*
X57023Y69215D02*
D03*
X54737D02*
D03*
X84455Y65913D02*
D03*
X82169D02*
D03*
X20574Y57404D02*
D03*
X18288D02*
D03*
Y60452D02*
D03*
X20574D02*
D03*
X18415Y37338D02*
D03*
X16129D02*
D03*
X13335D02*
D03*
X11049D02*
D03*
D23*
X68306Y52390D02*
D03*
X65806Y53340D02*
D03*
X68306Y54290D02*
D03*
X24852Y43368D02*
D03*
X22352Y42418D02*
D03*
X24852Y41468D02*
D03*
D24*
X81915Y70252D02*
D03*
X83185D02*
D03*
X84455D02*
D03*
X85725D02*
D03*
X81915Y76052D02*
D03*
X83185D02*
D03*
X84455D02*
D03*
X85725D02*
D03*
D25*
X20447Y78613D02*
D03*
D26*
Y67943D02*
D03*
X18747D02*
D03*
X17047D02*
D03*
X22147D02*
D03*
X23847D02*
D03*
D27*
X32512Y88879D02*
D03*
D28*
X34812Y83079D02*
D03*
X32512D02*
D03*
X30212D02*
D03*
D62*
X58293Y61341D02*
G03*
X58322Y61329I29J29D01*
G01*
X75692Y75311D02*
G03*
X75721Y75299I29J29D01*
G01*
X75692Y66421D02*
G03*
X75721Y66409I29J29D01*
G01*
X35052Y31750D02*
G03*
X35359Y31623I307J307D01*
G01*
X46990Y74041D02*
X51308D01*
X51943Y64389D02*
X54737D01*
X52070Y69215D02*
X54737D01*
X50812Y60845D02*
X51021D01*
X51807Y60059D01*
X6925Y88660D02*
X8509D01*
X14561Y88632D02*
X14986Y88630D01*
X28067Y77216D02*
X31750D01*
X33528Y69088D02*
Y75438D01*
X22147Y69772D02*
X22479Y70104D01*
X10990Y88632D02*
X14561D01*
X27051Y78232D02*
X28067Y77216D01*
X22147Y67943D02*
Y69772D01*
X8509Y88660D02*
X10092D01*
X22479Y70104D02*
X25781D01*
X27051Y78232D02*
Y83781D01*
X10092Y88660D02*
X10541Y88646D01*
X26758Y84074D02*
X27051Y83781D01*
X28575Y67310D02*
X31750D01*
X6477Y88773D02*
X6925Y88660D01*
X8509Y84074D02*
X26758D01*
X25781Y70104D02*
X28575Y67310D01*
X8509Y84074D02*
Y88660D01*
X10541Y88646D02*
X10990Y88632D01*
X31750Y77216D02*
X33528Y75438D01*
X31750Y67310D02*
X33528Y69088D01*
X34925Y16637D02*
X35052Y16510D01*
X32512Y16637D02*
X34925D01*
X36904Y54282D02*
X36957Y54229D01*
X27305Y54282D02*
X36904D01*
X51807Y60059D02*
X60465D01*
Y65139D02*
X60471Y65145D01*
X65653D02*
X65659Y65151D01*
X60471Y65145D02*
X65653D01*
X65659Y63119D02*
X72263D01*
X74925Y60457D01*
X58322Y61329D02*
X60465D01*
X51320Y74029D02*
X60465D01*
X51308Y74041D02*
X51320Y74029D01*
X26289Y21463D02*
X27940D01*
X25908Y21844D02*
X26289Y21463D01*
X25908Y21844D02*
Y25527D01*
X26543Y26162D01*
X27940D01*
X30226D01*
X32258Y24130D01*
X16129Y37338D02*
Y43434D01*
X74925Y58559D02*
Y60457D01*
X32512Y29083D02*
X32576Y29146D01*
X34988D01*
X35052Y29210D01*
X32258Y24130D02*
X35052D01*
X75692Y68199D02*
X75900D01*
X76420Y67679D01*
X75721Y75299D02*
X77965D01*
X75721Y66409D02*
X77965D01*
X77089Y56769D02*
Y56977D01*
X76665Y57401D02*
X77089Y56977D01*
X76665Y57401D02*
Y60710D01*
X77084Y61129D01*
X77765D01*
X77965Y61329D01*
X35179Y26543D02*
X37973D01*
X38100Y26416D01*
X35052Y26670D02*
X35179Y26543D01*
X35359Y31623D02*
X38100D01*
X35052Y19050D02*
X38100D01*
X35052Y34290D02*
X38100D01*
X84455Y72055D02*
X84709Y72309D01*
Y72517D01*
X84455Y70252D02*
Y72055D01*
X75692Y64643D02*
X75900D01*
X76396Y65139D02*
X77965D01*
X75900Y64643D02*
X76396Y65139D01*
X76420Y67679D02*
X77965D01*
X13335Y35179D02*
Y37338D01*
X74168Y73052D02*
Y76835D01*
X74461Y72759D02*
X77965D01*
X73368Y72721D02*
X74600Y71489D01*
X76593Y80391D02*
X84074D01*
X74168Y76835D02*
X75819Y78486D01*
X73368Y77166D02*
X76593Y80391D01*
X74168Y73052D02*
X74461Y72759D01*
X73368Y72721D02*
Y77166D01*
X74600Y71489D02*
X77965D01*
X61837Y70219D02*
X76200Y84582D01*
X60465Y70219D02*
X61837D01*
X76200Y84582D02*
Y89344D01*
X75819Y78486D02*
X83947D01*
X84074Y78359D01*
X87271D02*
X89259D01*
X89767Y77851D02*
X90043D01*
X89259Y78359D02*
X89767Y77851D01*
X87249Y80391D02*
X90043D01*
X58979Y66409D02*
X60465D01*
X57023Y64389D02*
Y64452D01*
X58979Y66409D01*
X54610Y69342D02*
X54737Y69215D01*
X58495Y67679D02*
X60465D01*
X57023Y69151D02*
Y69215D01*
Y69151D02*
X58495Y67679D01*
X67262Y91043D02*
X67437D01*
X56983Y53340D02*
X65806D01*
X68306Y52390D02*
X68402Y52293D01*
X70643D01*
X70739Y52197D01*
X73660D01*
X73655Y58559D02*
X73658Y58556D01*
Y54486D02*
Y58556D01*
Y54486D02*
X73660Y54483D01*
X82169Y61849D02*
Y61912D01*
X90031Y60059D02*
X90043Y60071D01*
X77965Y60059D02*
X90031D01*
X78219Y91148D02*
X78308Y91237D01*
X82982Y92837D02*
X84684Y91135D01*
X72962Y92837D02*
X82982D01*
X74511Y91148D02*
X78219D01*
X74422Y91059D02*
X74511Y91148D01*
X74422Y91059D02*
X74485D01*
X77965Y70219D02*
X77981Y70235D01*
X81898D01*
X80645Y63437D02*
Y68382D01*
X81915Y69652D01*
X80645Y63437D02*
X82169Y61912D01*
X81898Y70235D02*
X81915Y70252D01*
Y69652D02*
Y70252D01*
X82169Y65913D02*
Y67564D01*
X81673Y74029D02*
X83185Y72517D01*
X82169Y67564D02*
X83185Y68580D01*
Y70252D01*
Y72517D01*
X77965Y74029D02*
X81673D01*
X61785Y89027D02*
X63818Y91059D01*
X63881D01*
X60223Y91084D02*
X61976Y92837D01*
X65468D01*
X70993Y91043D02*
X71168D01*
X72962Y92837D01*
X65468D02*
X67262Y91043D01*
X74485Y91059D02*
X76200Y89344D01*
X55332Y54991D02*
X56983Y53340D01*
X53848Y91186D02*
X56007Y89027D01*
X61785D01*
X12192Y30099D02*
X17272Y35179D01*
X19001D01*
X21262Y37440D01*
Y37465D01*
X24827Y41468D02*
X24852D01*
X22987Y39628D02*
X24827Y41468D01*
X22987Y35179D02*
Y39628D01*
X9017Y42418D02*
X11176Y44577D01*
X9017Y39433D02*
Y42418D01*
X11176Y44577D02*
X11557D01*
X11049Y37338D02*
Y37402D01*
X9017Y39433D02*
X11049Y37402D01*
X18415D02*
X19177Y38164D01*
Y42037D01*
X18415Y37338D02*
Y37402D01*
X22327Y42418D02*
X22352D01*
X22127Y42218D02*
X22327Y42418D01*
X22127Y42193D02*
Y42218D01*
X21262Y41328D02*
X22127Y42193D01*
X21262Y37465D02*
Y41328D01*
D63*
X29621Y71882D02*
D03*
X39721D02*
D03*
D64*
X60465Y60059D02*
D03*
Y76569D02*
D03*
Y75299D02*
D03*
Y74029D02*
D03*
Y72759D02*
D03*
Y71489D02*
D03*
Y70219D02*
D03*
Y68949D02*
D03*
Y67679D02*
D03*
Y66409D02*
D03*
Y65139D02*
D03*
Y63869D02*
D03*
Y62599D02*
D03*
Y61329D02*
D03*
X77965Y76569D02*
D03*
Y75299D02*
D03*
Y74029D02*
D03*
Y72759D02*
D03*
Y71489D02*
D03*
Y70219D02*
D03*
Y68949D02*
D03*
Y67679D02*
D03*
Y66409D02*
D03*
Y65139D02*
D03*
Y63869D02*
D03*
Y62599D02*
D03*
Y61329D02*
D03*
Y60059D02*
D03*
D65*
X63495Y58559D02*
D03*
X64765D02*
D03*
X66035D02*
D03*
X67305D02*
D03*
X68575D02*
D03*
X69845D02*
D03*
X71115D02*
D03*
X72385D02*
D03*
X73655D02*
D03*
X74925D02*
D03*
D66*
X53975Y77454D02*
D03*
Y75454D02*
D03*
X57277Y77454D02*
D03*
Y75454D02*
D03*
X67437Y89043D02*
D03*
Y91043D02*
D03*
X70993Y89043D02*
D03*
Y91043D02*
D03*
X39116Y84852D02*
D03*
Y86852D02*
D03*
X14986Y88630D02*
D03*
Y86630D02*
D03*
X19685Y88630D02*
D03*
Y86630D02*
D03*
D67*
X18304Y53975D02*
D03*
X20304D02*
D03*
D68*
X18574Y63881D02*
D03*
X11100Y67400D02*
D03*
D69*
X22574Y63881D02*
D03*
X7100Y67400D02*
D03*
D70*
X24712Y37465D02*
D03*
D71*
X21262D02*
D03*
D72*
X27305Y57732D02*
D03*
D73*
Y54282D02*
D03*
D74*
X11100Y67400D02*
X16619D01*
X17047Y67828D01*
Y67943D01*
X11100Y61138D02*
Y67400D01*
Y61138D02*
X11100Y61138D01*
X7100Y70707D02*
X7549Y71156D01*
Y74732D02*
X7747Y74930D01*
X7549Y71156D02*
Y74732D01*
X7100Y67400D02*
Y70707D01*
X7112Y29718D02*
Y57912D01*
X7874D02*
X11100Y61138D01*
X7112Y57912D02*
X7874D01*
X3562Y60966D02*
Y75825D01*
X7747Y80010D01*
X19510Y88630D02*
Y88642D01*
X53879Y77454D02*
Y86213D01*
X34693Y21590D02*
X35046D01*
X4318Y87366D02*
X5197Y86487D01*
X6477D01*
X4318Y87366D02*
Y90805D01*
X5721Y92208D01*
X6483Y81962D02*
X6952Y81492D01*
X6483Y81962D02*
Y86481D01*
X20012Y88636D02*
X27327D01*
X3562Y16897D02*
Y60954D01*
Y16897D02*
X12700Y7759D01*
X6952Y81359D02*
X7753Y80558D01*
X41662Y86239D02*
Y89287D01*
X30218Y84078D02*
Y85745D01*
X39630Y91319D02*
X41662Y89287D01*
X53879Y77454D02*
X53975D01*
X53981D02*
X54296D01*
X57283D02*
X57598D01*
X57096Y77460D02*
X57102Y77454D01*
X5721Y92208D02*
X15944D01*
X40392Y84969D02*
X41662Y86239D01*
X40386Y84852D02*
X52315D01*
X53772Y86309D01*
X59374Y77460D02*
X59908Y76926D01*
X7753Y80016D02*
Y80558D01*
X30010Y91319D02*
X39630D01*
X53783Y86309D02*
X53879Y86213D01*
X57102Y77454D02*
X57271D01*
X6952Y81359D02*
Y81492D01*
X15944Y92208D02*
X19510Y88642D01*
X19691Y88630D02*
X20006D01*
X20012Y88636D01*
X30212Y83079D02*
Y84072D01*
X54296Y77454D02*
X54302Y77460D01*
X27327Y88636D02*
X30010Y91319D01*
X27327Y88636D02*
X30218Y85745D01*
X30212Y84072D02*
X30218Y84078D01*
X39122Y84858D02*
X40392D01*
X57598Y77454D02*
X57604Y77460D01*
X19510Y88630D02*
X19679D01*
X54302Y77460D02*
X57096D01*
X57604D02*
X59374D01*
X17780Y7747D02*
Y12319D01*
X12192Y17907D02*
X17780Y12319D01*
X18288Y30192D02*
X18335Y30145D01*
Y28876D02*
Y30145D01*
X15494Y26035D02*
X18335Y28876D01*
X18288Y30192D02*
Y32639D01*
X10795Y26035D02*
X15494D01*
X7112Y29718D02*
X10795Y26035D01*
X15494Y60745D02*
Y67056D01*
Y60745D02*
X15787Y60452D01*
X18288D01*
D75*
X62091Y75299D02*
X63881Y77089D01*
X57607Y75299D02*
X62091D01*
X46522Y58801D02*
X50332Y54991D01*
X49149Y58244D02*
Y69596D01*
Y58244D02*
X49735Y57658D01*
X62894D01*
X39721Y58801D02*
X46522D01*
X63495Y58559D02*
X63515Y58539D01*
X63495Y58259D02*
Y58559D01*
X38608Y58166D02*
X39209D01*
X62894Y57658D02*
X63495Y58259D01*
X63515Y57504D02*
Y58539D01*
X39209Y58166D02*
X39721Y58678D01*
X22574Y63881D02*
X27305Y59150D01*
X68210Y54387D02*
X70643D01*
X22574Y63881D02*
X23847Y65154D01*
X68185Y54387D02*
X68210D01*
X68306Y54290D01*
X67986Y54610D02*
X68210Y54387D01*
X66409Y54610D02*
X67986D01*
X63515Y57504D02*
X66409Y54610D01*
X37211Y85725D02*
X38354Y86868D01*
X37211Y82931D02*
Y85725D01*
X38354Y86868D02*
X39100D01*
X36343Y88879D02*
X38354Y86868D01*
X39100D02*
X39116Y86852D01*
X44999Y75692D02*
X53562D01*
X53800Y75454D02*
X57452D01*
X53562Y75692D02*
X53800Y75454D01*
X44761D02*
X44999Y75692D01*
X44688Y75454D02*
X44761D01*
X57452D02*
X57607Y75299D01*
X63944Y88773D02*
X65595Y87122D01*
X72707D01*
X74422Y84709D02*
Y88773D01*
X32512Y88879D02*
X36343D01*
X63881Y88773D02*
X63944D01*
X72707Y87122D02*
X74358Y88773D01*
X37211Y82931D02*
X44688Y75454D01*
X74358Y88773D02*
X74422D01*
X72136Y82423D02*
X74422Y84709D01*
X63881Y77089D02*
Y88773D01*
X32512Y83079D02*
Y88879D01*
X28194Y82042D02*
Y84455D01*
Y82042D02*
X29972Y80264D01*
X26019Y86630D02*
X28194Y84455D01*
X27876Y16701D02*
Y19114D01*
X27940Y19177D01*
X27813Y16637D02*
X27876Y16701D01*
X15500Y4959D02*
X18415D01*
X35046Y21590D01*
X35052D01*
X31883Y21723D02*
X34203D01*
X12712Y7747D02*
X15500Y4959D01*
X27946Y23882D02*
X29724D01*
X31883Y21723D01*
X44704Y54864D02*
Y57277D01*
X28702Y38862D02*
X44704Y54864D01*
X87376Y75311D02*
X90043D01*
X13462Y57912D02*
Y60960D01*
X28702Y30988D02*
Y38862D01*
X26924Y39702D02*
X38608Y51386D01*
Y58166D01*
X23876Y26162D02*
X28702Y30988D01*
X23876Y21971D02*
Y26162D01*
Y21971D02*
X26492Y19355D01*
X27761D02*
X27940Y19177D01*
X26492Y19355D02*
X27761D01*
X15367Y45466D02*
Y48641D01*
X11938Y42037D02*
X15367Y45466D01*
X18660Y63967D02*
Y67857D01*
X18747Y67943D01*
X18574Y63881D02*
X18660Y63967D01*
X20574Y48641D02*
X26924D01*
Y39702D02*
Y48641D01*
X24712Y37465D02*
Y37490D01*
X26924Y39702D01*
X11557Y42037D02*
X11938D01*
X18304Y45346D02*
X19073Y44577D01*
X18304Y45346D02*
Y53975D01*
X19073Y44577D02*
X19177D01*
X85725Y81661D02*
X86995Y82931D01*
X85725Y76052D02*
Y81661D01*
X34812Y82379D02*
X39878Y77313D01*
Y72039D02*
Y77313D01*
X33067Y80264D02*
X34562Y82129D01*
X29972Y80264D02*
X33067D01*
X34562Y82129D02*
X34640Y82424D01*
X81661Y82931D02*
X86995D01*
X70643Y54387D02*
X70739Y54483D01*
X86233Y93980D02*
X90043Y90170D01*
X70739Y93980D02*
X86233D01*
X84455Y61849D02*
Y65913D01*
Y65977D01*
X85725Y67246D01*
Y70252D01*
X85744Y70271D01*
Y71012D01*
X90043Y75311D01*
Y62611D02*
X92075Y64643D01*
Y80899D01*
X77965Y76569D02*
X79808D01*
X78232Y86360D02*
X81661Y82931D01*
X79808Y76569D02*
X80325Y76052D01*
X81915D01*
X83185D01*
X84455D01*
X69215Y92456D02*
X70739Y93980D01*
X69215Y89043D02*
Y92456D01*
Y89043D02*
X70993D01*
X67437D02*
X69215D01*
X84455Y76052D02*
X85725D01*
X86995Y82931D02*
X90043D01*
X92075Y80899D01*
X90043Y82931D02*
Y90170D01*
X39721Y58678D02*
Y71882D01*
X23618Y44577D02*
X24827Y43368D01*
X19177Y44577D02*
X23618D01*
X24827Y43368D02*
X24852D01*
X24384Y30353D02*
X24548Y30517D01*
Y37301D02*
X24712Y37465D01*
X24548Y30517D02*
Y37301D01*
X19685Y86630D02*
X26019D01*
X14986D02*
X19685D01*
X14541Y86360D02*
X14811Y86630D01*
X10541Y86360D02*
X14541D01*
X14811Y86630D02*
X14986D01*
X20447Y66008D02*
Y67943D01*
Y66008D02*
X22574Y63881D01*
X39721Y71882D02*
X39878Y72039D01*
X18747Y67943D02*
Y70563D01*
X20066Y71882D01*
X29621D01*
X27739Y58166D02*
X32258D01*
X27305Y57732D02*
X27739Y58166D01*
X15748Y53975D02*
X18304D01*
X13462Y56261D02*
X15748Y53975D01*
X13462Y56261D02*
Y57912D01*
X23847Y65154D02*
Y67943D01*
X27305Y57732D02*
Y59150D01*
X13462Y57912D02*
X17844D01*
X18288Y57467D01*
Y57404D02*
Y57467D01*
D76*
X51689Y64135D02*
X51943Y64389D01*
X51689Y69596D02*
X52070Y69215D01*
X54483Y64643D02*
X54737Y64389D01*
D77*
X35052Y16510D02*
D03*
D78*
Y19050D02*
D03*
Y21590D02*
D03*
Y24130D02*
D03*
Y26670D02*
D03*
Y29210D02*
D03*
Y31750D02*
D03*
Y34290D02*
D03*
D79*
X51689Y69596D02*
D03*
Y64135D02*
D03*
D80*
X49149Y69596D02*
D03*
Y64135D02*
D03*
D81*
X60223Y91084D02*
D03*
X53772Y86309D02*
D03*
X53848Y91186D02*
D03*
X60071Y86233D02*
D03*
X84531Y86284D02*
D03*
X78308Y91237D02*
D03*
X78232Y86360D02*
D03*
X84684Y91135D02*
D03*
D82*
X90043Y82931D02*
D03*
Y80391D02*
D03*
Y77851D02*
D03*
Y62611D02*
D03*
D83*
Y75311D02*
D03*
Y60071D02*
D03*
D84*
X50332Y54991D02*
D03*
X55332D02*
D03*
D85*
X24384Y30099D02*
D03*
X12192Y17907D02*
D03*
X18288Y32639D02*
D03*
X24384Y17907D02*
D03*
X12192Y30099D02*
D03*
X17780Y7747D02*
D03*
X12700D02*
D03*
X7747Y74930D02*
D03*
Y80010D02*
D03*
D86*
X19177Y42037D02*
D03*
D87*
Y44577D02*
D03*
X11557D02*
D03*
Y42037D02*
D03*
D88*
X2540Y94361D02*
D03*
X94361Y94234D02*
D03*
Y2540D02*
D03*
X2540D02*
D03*
D89*
X46990Y74041D02*
D03*
X50812Y60845D02*
D03*
X27813Y16637D02*
D03*
X32512D02*
D03*
X36957Y54229D02*
D03*
X44704Y57277D02*
D03*
X65659Y65151D02*
D03*
Y63119D02*
D03*
X58322Y61370D02*
D03*
X72136Y82423D02*
D03*
X87376Y75311D02*
D03*
X3556Y60960D02*
D03*
X86233Y93980D02*
D03*
X25400Y60960D02*
D03*
X13462D02*
D03*
X44688Y75454D02*
D03*
X16129Y43434D02*
D03*
X32512Y29083D02*
D03*
X32258Y24130D02*
D03*
X75692Y68199D02*
D03*
Y66421D02*
D03*
X77089Y56769D02*
D03*
X38100Y26416D02*
D03*
Y19050D02*
D03*
Y31623D02*
D03*
Y34290D02*
D03*
X84709Y72517D02*
D03*
X75692Y64643D02*
D03*
X75721Y75340D02*
D03*
X20574Y48641D02*
D03*
X15367D02*
D03*
X22987Y35179D02*
D03*
X13335D02*
D03*
X84074Y78359D02*
D03*
Y80391D02*
D03*
X87271Y78359D02*
D03*
X87249Y80391D02*
D03*
M02*
