G04*
G04 #@! TF.GenerationSoftware,Altium Limited,Altium Designer,24.1.2 (44)*
G04*
G04 Layer_Color=8388736*
%FSLAX43Y43*%
%MOMM*%
G71*
G04*
G04 #@! TF.SameCoordinates,54BEDA40-E342-42F5-ADC8-61CD6FAB378A*
G04*
G04*
G04 #@! TF.FilePolarity,Negative*
G04*
G01*
G75*
%ADD23R,0.950X0.900*%
G04:AMPARAMS|DCode=29|XSize=5.2mm|YSize=3.7mm|CornerRadius=0.975mm|HoleSize=0mm|Usage=FLASHONLY|Rotation=90.000|XOffset=0mm|YOffset=0mm|HoleType=Round|Shape=RoundedRectangle|*
%AMROUNDEDRECTD29*
21,1,5.200,1.750,0,0,90.0*
21,1,3.250,3.700,0,0,90.0*
1,1,1.950,0.875,1.625*
1,1,1.950,0.875,-1.625*
1,1,1.950,-0.875,-1.625*
1,1,1.950,-0.875,1.625*
%
%ADD29ROUNDEDRECTD29*%
%ADD30R,3.251X1.727*%
%ADD31R,1.600X1.473*%
%ADD32R,1.473X1.600*%
%ADD33R,1.153X1.103*%
G04:AMPARAMS|DCode=34|XSize=1.64mm|YSize=1.04mm|CornerRadius=0.115mm|HoleSize=0mm|Usage=FLASHONLY|Rotation=0.000|XOffset=0mm|YOffset=0mm|HoleType=Round|Shape=RoundedRectangle|*
%AMROUNDEDRECTD34*
21,1,1.640,0.810,0,0,0.0*
21,1,1.410,1.040,0,0,0.0*
1,1,0.230,0.705,-0.405*
1,1,0.230,-0.705,-0.405*
1,1,0.230,-0.705,0.405*
1,1,0.230,0.705,0.405*
%
%ADD34ROUNDEDRECTD34*%
G04:AMPARAMS|DCode=35|XSize=1.64mm|YSize=1.04mm|CornerRadius=0.115mm|HoleSize=0mm|Usage=FLASHONLY|Rotation=90.000|XOffset=0mm|YOffset=0mm|HoleType=Round|Shape=RoundedRectangle|*
%AMROUNDEDRECTD35*
21,1,1.640,0.810,0,0,90.0*
21,1,1.410,1.040,0,0,90.0*
1,1,0.230,0.405,0.705*
1,1,0.230,0.405,-0.705*
1,1,0.230,-0.405,-0.705*
1,1,0.230,-0.405,0.705*
%
%ADD35ROUNDEDRECTD35*%
%ADD36O,0.803X2.003*%
G04:AMPARAMS|DCode=37|XSize=1.2mm|YSize=1.55mm|CornerRadius=0.35mm|HoleSize=0mm|Usage=FLASHONLY|Rotation=90.000|XOffset=0mm|YOffset=0mm|HoleType=Round|Shape=RoundedRectangle|*
%AMROUNDEDRECTD37*
21,1,1.200,0.850,0,0,90.0*
21,1,0.500,1.550,0,0,90.0*
1,1,0.700,0.425,0.250*
1,1,0.700,0.425,-0.250*
1,1,0.700,-0.425,-0.250*
1,1,0.700,-0.425,0.250*
%
%ADD37ROUNDEDRECTD37*%
%ADD38R,11.003X8.203*%
%ADD39R,1.273X2.363*%
%ADD40R,3.503X2.603*%
%ADD41R,1.203X2.603*%
G04:AMPARAMS|DCode=42|XSize=1.2mm|YSize=1.55mm|CornerRadius=0.35mm|HoleSize=0mm|Usage=FLASHONLY|Rotation=180.000|XOffset=0mm|YOffset=0mm|HoleType=Round|Shape=RoundedRectangle|*
%AMROUNDEDRECTD42*
21,1,1.200,0.850,0,0,180.0*
21,1,0.500,1.550,0,0,180.0*
1,1,0.700,-0.250,0.425*
1,1,0.700,0.250,0.425*
1,1,0.700,0.250,-0.425*
1,1,0.700,-0.250,-0.425*
%
%ADD42ROUNDEDRECTD42*%
G04:AMPARAMS|DCode=43|XSize=2mm|YSize=2mm|CornerRadius=0.55mm|HoleSize=0mm|Usage=FLASHONLY|Rotation=0.000|XOffset=0mm|YOffset=0mm|HoleType=Round|Shape=RoundedRectangle|*
%AMROUNDEDRECTD43*
21,1,2.000,0.900,0,0,0.0*
21,1,0.900,2.000,0,0,0.0*
1,1,1.100,0.450,-0.450*
1,1,1.100,-0.450,-0.450*
1,1,1.100,-0.450,0.450*
1,1,1.100,0.450,0.450*
%
%ADD43ROUNDEDRECTD43*%
%ADD44R,2.000X2.000*%
G04:AMPARAMS|DCode=45|XSize=1.8mm|YSize=1.85mm|CornerRadius=0.5mm|HoleSize=0mm|Usage=FLASHONLY|Rotation=0.000|XOffset=0mm|YOffset=0mm|HoleType=Round|Shape=RoundedRectangle|*
%AMROUNDEDRECTD45*
21,1,1.800,0.850,0,0,0.0*
21,1,0.800,1.850,0,0,0.0*
1,1,1.000,0.400,-0.425*
1,1,1.000,-0.400,-0.425*
1,1,1.000,-0.400,0.425*
1,1,1.000,0.400,0.425*
%
%ADD45ROUNDEDRECTD45*%
%ADD46R,1.800X1.850*%
%ADD47R,1.850X1.800*%
G04:AMPARAMS|DCode=48|XSize=1.8mm|YSize=1.85mm|CornerRadius=0.5mm|HoleSize=0mm|Usage=FLASHONLY|Rotation=270.000|XOffset=0mm|YOffset=0mm|HoleType=Round|Shape=RoundedRectangle|*
%AMROUNDEDRECTD48*
21,1,1.800,0.850,0,0,270.0*
21,1,0.800,1.850,0,0,270.0*
1,1,1.000,-0.425,-0.400*
1,1,1.000,-0.425,0.400*
1,1,1.000,0.425,0.400*
1,1,1.000,0.425,-0.400*
%
%ADD48ROUNDEDRECTD48*%
%ADD49R,2.200X2.200*%
%ADD50C,2.200*%
%ADD51R,1.803X2.203*%
%ADD52O,1.803X2.203*%
%ADD53C,2.108*%
%ADD54C,1.723*%
%ADD55R,1.723X1.723*%
%ADD56C,1.800*%
%ADD57C,3.251*%
%ADD58R,2.489X1.727*%
%ADD59O,2.489X1.727*%
%ADD60C,4.000*%
%ADD61C,1.473*%
D23*
X68306Y54290D02*
D03*
X24852Y43368D02*
D03*
D29*
X29621Y71882D02*
D03*
X39721D02*
D03*
D30*
X7112Y57912D02*
D03*
X13462D02*
D03*
X32258Y58166D02*
D03*
X38608D02*
D03*
D31*
X27940Y23876D02*
D03*
Y26162D02*
D03*
Y19177D02*
D03*
Y21463D02*
D03*
X70739Y54483D02*
D03*
Y52197D02*
D03*
X73660Y54483D02*
D03*
Y52197D02*
D03*
X63881Y88773D02*
D03*
Y91059D02*
D03*
X74422Y88773D02*
D03*
Y91059D02*
D03*
X6477Y88773D02*
D03*
Y86487D02*
D03*
X10541Y86360D02*
D03*
Y88646D02*
D03*
D32*
X84455Y61849D02*
D03*
X82169D02*
D03*
X57023Y64389D02*
D03*
X54737D02*
D03*
X57023Y69215D02*
D03*
X54737D02*
D03*
X84455Y65913D02*
D03*
X82169D02*
D03*
X20574Y57404D02*
D03*
X18288D02*
D03*
Y60452D02*
D03*
X20574D02*
D03*
X18415Y37338D02*
D03*
X16129D02*
D03*
X13335D02*
D03*
X11049D02*
D03*
D33*
X68306Y52390D02*
D03*
X65806Y53340D02*
D03*
X22352Y42418D02*
D03*
X24852Y41468D02*
D03*
D34*
X60465Y60059D02*
D03*
Y76569D02*
D03*
Y75299D02*
D03*
Y74029D02*
D03*
Y72759D02*
D03*
Y71489D02*
D03*
Y70219D02*
D03*
Y68949D02*
D03*
Y67679D02*
D03*
Y66409D02*
D03*
Y65139D02*
D03*
Y63869D02*
D03*
Y62599D02*
D03*
Y61329D02*
D03*
X77965Y76569D02*
D03*
Y75299D02*
D03*
Y74029D02*
D03*
Y72759D02*
D03*
Y71489D02*
D03*
Y70219D02*
D03*
Y68949D02*
D03*
Y67679D02*
D03*
Y66409D02*
D03*
Y65139D02*
D03*
Y63869D02*
D03*
Y62599D02*
D03*
Y61329D02*
D03*
Y60059D02*
D03*
D35*
X63495Y58559D02*
D03*
X64765D02*
D03*
X66035D02*
D03*
X67305D02*
D03*
X68575D02*
D03*
X69845D02*
D03*
X71115D02*
D03*
X72385D02*
D03*
X73655D02*
D03*
X74925D02*
D03*
D36*
X81915Y70252D02*
D03*
X83185D02*
D03*
X84455D02*
D03*
X85725D02*
D03*
X81915Y76052D02*
D03*
X83185D02*
D03*
X84455D02*
D03*
X85725D02*
D03*
D37*
X53975Y77454D02*
D03*
Y75454D02*
D03*
X57277Y77454D02*
D03*
Y75454D02*
D03*
X67437Y89043D02*
D03*
Y91043D02*
D03*
X70993Y89043D02*
D03*
Y91043D02*
D03*
X39116Y84852D02*
D03*
Y86852D02*
D03*
X14986Y88630D02*
D03*
Y86630D02*
D03*
X19685Y88630D02*
D03*
Y86630D02*
D03*
D38*
X20447Y78613D02*
D03*
D39*
Y67943D02*
D03*
X18747D02*
D03*
X17047D02*
D03*
X22147D02*
D03*
X23847D02*
D03*
D40*
X32512Y88879D02*
D03*
D41*
X34812Y83079D02*
D03*
X32512D02*
D03*
X30212D02*
D03*
D42*
X18304Y53975D02*
D03*
X20304D02*
D03*
D43*
X18574Y63881D02*
D03*
X11100Y67400D02*
D03*
D44*
X22574Y63881D02*
D03*
X7100Y67400D02*
D03*
D45*
X24712Y37465D02*
D03*
D46*
X21262D02*
D03*
D47*
X27305Y57732D02*
D03*
D48*
Y54282D02*
D03*
D49*
X35052Y16510D02*
D03*
D50*
Y19050D02*
D03*
Y21590D02*
D03*
Y24130D02*
D03*
Y26670D02*
D03*
Y29210D02*
D03*
Y31750D02*
D03*
Y34290D02*
D03*
D51*
X51689Y69596D02*
D03*
Y64135D02*
D03*
D52*
X49149Y69596D02*
D03*
Y64135D02*
D03*
D53*
X60223Y91084D02*
D03*
X53772Y86309D02*
D03*
X53848Y91186D02*
D03*
X60071Y86233D02*
D03*
X84531Y86284D02*
D03*
X78308Y91237D02*
D03*
X78232Y86360D02*
D03*
X84684Y91135D02*
D03*
D54*
X90043Y82931D02*
D03*
Y80391D02*
D03*
Y77851D02*
D03*
Y62611D02*
D03*
D55*
Y75311D02*
D03*
Y60071D02*
D03*
D56*
X50332Y54991D02*
D03*
X55332D02*
D03*
D57*
X24384Y30099D02*
D03*
X12192Y17907D02*
D03*
X18288Y32639D02*
D03*
X24384Y17907D02*
D03*
X12192Y30099D02*
D03*
X17780Y7747D02*
D03*
X12700D02*
D03*
X7747Y74930D02*
D03*
Y80010D02*
D03*
D58*
X19177Y42037D02*
D03*
D59*
Y44577D02*
D03*
X11557D02*
D03*
Y42037D02*
D03*
D60*
X2540Y94361D02*
D03*
X94361Y94234D02*
D03*
Y2540D02*
D03*
X2540D02*
D03*
D61*
X46990Y74041D02*
D03*
X50812Y60845D02*
D03*
X27813Y16637D02*
D03*
X32512D02*
D03*
X36957Y54229D02*
D03*
X44704Y57277D02*
D03*
X65659Y65151D02*
D03*
Y63119D02*
D03*
X58322Y61370D02*
D03*
X72136Y82423D02*
D03*
X87376Y75311D02*
D03*
X3556Y60960D02*
D03*
X86233Y93980D02*
D03*
X25400Y60960D02*
D03*
X13462D02*
D03*
X44688Y75454D02*
D03*
X16129Y43434D02*
D03*
X32512Y29083D02*
D03*
X32258Y24130D02*
D03*
X75692Y68199D02*
D03*
Y66421D02*
D03*
X77089Y56769D02*
D03*
X38100Y26416D02*
D03*
Y19050D02*
D03*
Y31623D02*
D03*
Y34290D02*
D03*
X84709Y72517D02*
D03*
X75692Y64643D02*
D03*
X75721Y75340D02*
D03*
X20574Y48641D02*
D03*
X15367D02*
D03*
X22987Y35179D02*
D03*
X13335D02*
D03*
X84074Y78359D02*
D03*
Y80391D02*
D03*
X87271Y78359D02*
D03*
X87249Y80391D02*
D03*
M02*
