M48
;Layer_Color=9474304
;FILE_FORMAT=4:3
METRIC,LZ
;TYPE=PLATED
T04F00S00C1.000
T07F00S00C1.300
%
G90
G05
T04
G00X0120332Y0078166
M15
G01Y0078166
M16
G00X0125332Y0078166
M15
G01Y0078166
M16
T07
G00X0105052Y0039685
M15
G01Y0039685
M16
G00X0105052Y0042225
M15
G01Y0042225
M16
G00X0105052Y0044765
M15
G01Y0044765
M16
G00X0105052Y0047305
M15
G01Y0047305
M16
G00X0105052Y0049845
M15
G01Y0049845
M16
G00X0105052Y0052385
M15
G01Y0052385
M16
G00X0105052Y0054925
M15
G01Y0054925
M16
G00X0105052Y0057465
M15
G01Y0057465
M16
M17
M30
