G04*
G04 #@! TF.GenerationSoftware,Altium Limited,Altium Designer,24.1.2 (44)*
G04*
G04 Layer_Physical_Order=2*
G04 Layer_Color=16711680*
%FSLAX43Y43*%
%MOMM*%
G71*
G04*
G04 #@! TF.SameCoordinates,54BEDA40-E342-42F5-ADC8-61CD6FAB378A*
G04*
G04*
G04 #@! TF.FilePolarity,Positive*
G04*
G01*
G75*
%ADD62C,0.500*%
%ADD74C,1.500*%
%ADD75C,1.000*%
%ADD77R,2.000X2.000*%
%ADD78C,2.000*%
%ADD79R,1.600X2.000*%
%ADD80O,1.600X2.000*%
%ADD81C,1.905*%
%ADD82C,1.520*%
%ADD83R,1.520X1.520*%
%ADD84C,1.600*%
%ADD85C,3.048*%
%ADD86R,2.286X1.524*%
%ADD87O,2.286X1.524*%
%ADD88C,3.000*%
%ADD89C,1.270*%
G36*
X93778Y95891D02*
X93530Y95788D01*
X93243Y95596D01*
X92999Y95352D01*
X92807Y95065D01*
X92674Y94746D01*
X92607Y94407D01*
Y94384D01*
X94361D01*
Y94234D01*
X94511D01*
Y92480D01*
X94534D01*
X94873Y92547D01*
X95192Y92680D01*
X95479Y92872D01*
X95723Y93116D01*
X95915Y93403D01*
X95966Y93526D01*
X96093Y93500D01*
Y3274D01*
X95966Y3248D01*
X95915Y3371D01*
X95723Y3658D01*
X95479Y3902D01*
X95192Y4094D01*
X94873Y4227D01*
X94534Y4294D01*
X94511D01*
Y2540D01*
X94361D01*
Y2390D01*
X92607D01*
Y2367D01*
X92674Y2028D01*
X92807Y1709D01*
X92999Y1422D01*
X93243Y1178D01*
X93530Y986D01*
X93655Y934D01*
X93630Y807D01*
X3271D01*
X3246Y934D01*
X3371Y986D01*
X3658Y1178D01*
X3902Y1422D01*
X4094Y1709D01*
X4227Y2028D01*
X4294Y2367D01*
Y2390D01*
X2540D01*
Y2540D01*
X2390D01*
Y4294D01*
X2367D01*
X2028Y4227D01*
X1709Y4094D01*
X1422Y3902D01*
X1178Y3658D01*
X986Y3371D01*
X934Y3246D01*
X807Y3271D01*
Y93630D01*
X934Y93655D01*
X986Y93530D01*
X1178Y93243D01*
X1422Y92999D01*
X1709Y92807D01*
X2028Y92674D01*
X2367Y92607D01*
X2390D01*
Y94361D01*
X2540D01*
Y94511D01*
X4294D01*
Y94534D01*
X4227Y94873D01*
X4094Y95192D01*
X3902Y95479D01*
X3658Y95723D01*
X3407Y95891D01*
X3446Y96018D01*
X93753D01*
X93778Y95891D01*
D02*
G37*
%LPC*%
G36*
X86383Y94860D02*
Y94130D01*
X87113D01*
X87061Y94323D01*
X86944Y94526D01*
X86779Y94691D01*
X86576Y94808D01*
X86383Y94860D01*
D02*
G37*
G36*
X86083D02*
X85890Y94808D01*
X85687Y94691D01*
X85522Y94526D01*
X85405Y94323D01*
X85353Y94130D01*
X86083D01*
Y94860D01*
D02*
G37*
G36*
X87113Y93830D02*
X86383D01*
Y93100D01*
X86576Y93152D01*
X86779Y93269D01*
X86944Y93434D01*
X87061Y93637D01*
X87113Y93830D01*
D02*
G37*
G36*
X86083D02*
X85353D01*
X85405Y93637D01*
X85522Y93434D01*
X85687Y93269D01*
X85890Y93152D01*
X86083Y93100D01*
Y93830D01*
D02*
G37*
G36*
X4294Y94211D02*
X2690D01*
Y92607D01*
X2713D01*
X3052Y92674D01*
X3371Y92807D01*
X3658Y92999D01*
X3902Y93243D01*
X4094Y93530D01*
X4227Y93849D01*
X4294Y94188D01*
Y94211D01*
D02*
G37*
G36*
X94211Y94084D02*
X92607D01*
Y94061D01*
X92674Y93722D01*
X92807Y93403D01*
X92999Y93116D01*
X93243Y92872D01*
X93530Y92680D01*
X93849Y92547D01*
X94188Y92480D01*
X94211D01*
Y94084D01*
D02*
G37*
G36*
X78473Y92489D02*
X78143D01*
X77825Y92404D01*
X77539Y92239D01*
X77306Y92006D01*
X77141Y91720D01*
X77056Y91402D01*
Y91072D01*
X77141Y90753D01*
X77306Y90468D01*
X77539Y90235D01*
X77825Y90070D01*
X78143Y89984D01*
X78473D01*
X78792Y90070D01*
X79077Y90235D01*
X79310Y90468D01*
X79475Y90753D01*
X79561Y91072D01*
Y91402D01*
X79475Y91720D01*
X79310Y92006D01*
X79077Y92239D01*
X78792Y92404D01*
X78473Y92489D01*
D02*
G37*
G36*
X54013Y92438D02*
X53683D01*
X53365Y92353D01*
X53079Y92188D01*
X52846Y91955D01*
X52681Y91669D01*
X52596Y91351D01*
Y91021D01*
X52658Y90789D01*
X46593Y84725D01*
X46472Y84543D01*
X46429Y84328D01*
Y74797D01*
X46416Y74789D01*
X46242Y74615D01*
X46119Y74402D01*
X46055Y74164D01*
Y73918D01*
X46119Y73680D01*
X46242Y73467D01*
X46416Y73293D01*
X46629Y73170D01*
X46867Y73106D01*
X47113D01*
X47351Y73170D01*
X47564Y73293D01*
X47738Y73467D01*
X47861Y73680D01*
X47925Y73918D01*
Y74164D01*
X47861Y74402D01*
X47738Y74615D01*
X47564Y74789D01*
X47551Y74797D01*
Y84096D01*
X53451Y89996D01*
X53683Y89934D01*
X54013D01*
X54331Y90019D01*
X54617Y90184D01*
X54850Y90417D01*
X55015Y90703D01*
X55100Y91021D01*
Y91351D01*
X55015Y91669D01*
X54850Y91955D01*
X54617Y92188D01*
X54331Y92353D01*
X54013Y92438D01*
D02*
G37*
G36*
X84848Y92388D02*
X84519D01*
X84200Y92302D01*
X83915Y92137D01*
X83681Y91904D01*
X83516Y91619D01*
X83431Y91300D01*
Y90970D01*
X83516Y90652D01*
X83681Y90366D01*
X83915Y90133D01*
X84200Y89968D01*
X84519Y89883D01*
X84848D01*
X85167Y89968D01*
X85453Y90133D01*
X85686Y90366D01*
X85851Y90652D01*
X85936Y90970D01*
Y91300D01*
X85851Y91619D01*
X85686Y91904D01*
X85453Y92137D01*
X85167Y92302D01*
X84848Y92388D01*
D02*
G37*
G36*
X60388Y92337D02*
X60059D01*
X59740Y92252D01*
X59454Y92087D01*
X59221Y91853D01*
X59056Y91568D01*
X58971Y91249D01*
Y90920D01*
X59056Y90601D01*
X59221Y90315D01*
X59454Y90082D01*
X59740Y89917D01*
X60059Y89832D01*
X60388D01*
X60707Y89917D01*
X60992Y90082D01*
X61226Y90315D01*
X61391Y90601D01*
X61476Y90920D01*
Y91249D01*
X61391Y91568D01*
X61226Y91853D01*
X60992Y92087D01*
X60707Y92252D01*
X60388Y92337D01*
D02*
G37*
G36*
X78391Y87566D02*
X78382D01*
Y86510D01*
X79438D01*
Y86519D01*
X79356Y86826D01*
X79197Y87101D01*
X78973Y87325D01*
X78698Y87484D01*
X78391Y87566D01*
D02*
G37*
G36*
X78082D02*
X78073D01*
X77766Y87484D01*
X77491Y87325D01*
X77267Y87101D01*
X77108Y86826D01*
X77025Y86519D01*
Y86510D01*
X78082D01*
Y87566D01*
D02*
G37*
G36*
X53931Y87516D02*
X53922D01*
Y86459D01*
X54978D01*
Y86468D01*
X54896Y86775D01*
X54737Y87050D01*
X54513Y87275D01*
X54237Y87433D01*
X53931Y87516D01*
D02*
G37*
G36*
X53622D02*
X53613D01*
X53306Y87433D01*
X53031Y87275D01*
X52806Y87050D01*
X52648Y86775D01*
X52565Y86468D01*
Y86459D01*
X53622D01*
Y87516D01*
D02*
G37*
G36*
X79438Y86210D02*
X78382D01*
Y85154D01*
X78391D01*
X78698Y85236D01*
X78973Y85395D01*
X79197Y85619D01*
X79356Y85894D01*
X79438Y86201D01*
Y86210D01*
D02*
G37*
G36*
X78082D02*
X77025D01*
Y86201D01*
X77108Y85894D01*
X77267Y85619D01*
X77491Y85395D01*
X77766Y85236D01*
X78073Y85154D01*
X78082D01*
Y86210D01*
D02*
G37*
G36*
X54978Y86159D02*
X53922D01*
Y85103D01*
X53931D01*
X54237Y85185D01*
X54513Y85344D01*
X54737Y85568D01*
X54896Y85844D01*
X54978Y86150D01*
Y86159D01*
D02*
G37*
G36*
X53622D02*
X52565D01*
Y86150D01*
X52648Y85844D01*
X52806Y85568D01*
X53031Y85344D01*
X53306Y85185D01*
X53613Y85103D01*
X53622D01*
Y86159D01*
D02*
G37*
G36*
X84696Y87536D02*
X84366D01*
X84048Y87451D01*
X83762Y87286D01*
X83529Y87053D01*
X83364Y86767D01*
X83279Y86449D01*
Y86119D01*
X83364Y85800D01*
X83529Y85515D01*
X83762Y85282D01*
X84048Y85117D01*
X84366Y85031D01*
X84696D01*
X85015Y85117D01*
X85300Y85282D01*
X85533Y85515D01*
X85698Y85800D01*
X85784Y86119D01*
Y86449D01*
X85698Y86767D01*
X85533Y87053D01*
X85300Y87286D01*
X85015Y87451D01*
X84696Y87536D01*
D02*
G37*
G36*
X60236Y87485D02*
X59906D01*
X59588Y87400D01*
X59302Y87235D01*
X59069Y87002D01*
X58904Y86716D01*
X58819Y86398D01*
Y86068D01*
X58904Y85750D01*
X59069Y85464D01*
X59302Y85231D01*
X59588Y85066D01*
X59906Y84980D01*
X60236D01*
X60554Y85066D01*
X60840Y85231D01*
X61073Y85464D01*
X61238Y85750D01*
X61324Y86068D01*
Y86398D01*
X61238Y86716D01*
X61073Y87002D01*
X60840Y87235D01*
X60554Y87400D01*
X60236Y87485D01*
D02*
G37*
G36*
X90193Y83941D02*
Y83081D01*
X91053D01*
X90988Y83322D01*
X90854Y83554D01*
X90666Y83742D01*
X90434Y83876D01*
X90193Y83941D01*
D02*
G37*
G36*
X89893D02*
X89652Y83876D01*
X89420Y83742D01*
X89232Y83554D01*
X89098Y83322D01*
X89033Y83081D01*
X89893D01*
Y83941D01*
D02*
G37*
G36*
X91053Y82781D02*
X90193D01*
Y81921D01*
X90434Y81986D01*
X90666Y82120D01*
X90854Y82308D01*
X90988Y82540D01*
X91053Y82781D01*
D02*
G37*
G36*
X89893D02*
X89033D01*
X89098Y82540D01*
X89232Y82308D01*
X89420Y82120D01*
X89652Y81986D01*
X89893Y81921D01*
Y82781D01*
D02*
G37*
G36*
X87372Y81326D02*
X87126D01*
X86888Y81262D01*
X86675Y81139D01*
X86501Y80965D01*
X86493Y80952D01*
X84830D01*
X84822Y80965D01*
X84648Y81139D01*
X84435Y81262D01*
X84197Y81326D01*
X83951D01*
X83713Y81262D01*
X83500Y81139D01*
X83326Y80965D01*
X83203Y80752D01*
X83139Y80514D01*
Y80268D01*
X83203Y80030D01*
X83326Y79817D01*
X83500Y79643D01*
X83713Y79520D01*
X83951Y79456D01*
X84197D01*
X84435Y79520D01*
X84648Y79643D01*
X84822Y79817D01*
X84830Y79830D01*
X86493D01*
X86501Y79817D01*
X86675Y79643D01*
X86888Y79520D01*
X87126Y79456D01*
X87372D01*
X87610Y79520D01*
X87823Y79643D01*
X87997Y79817D01*
X88120Y80030D01*
X88184Y80268D01*
Y80514D01*
X88120Y80752D01*
X87997Y80965D01*
X87823Y81139D01*
X87610Y81262D01*
X87372Y81326D01*
D02*
G37*
G36*
X7922Y81788D02*
X7897D01*
Y80160D01*
X9525D01*
Y80185D01*
X9457Y80529D01*
X9323Y80852D01*
X9128Y81143D01*
X8880Y81391D01*
X8589Y81586D01*
X8266Y81720D01*
X7922Y81788D01*
D02*
G37*
G36*
X7597D02*
X7572D01*
X7228Y81720D01*
X6905Y81586D01*
X6614Y81391D01*
X6366Y81143D01*
X6171Y80852D01*
X6037Y80529D01*
X5969Y80185D01*
Y80160D01*
X7597D01*
Y81788D01*
D02*
G37*
G36*
X90183Y81451D02*
X89903D01*
X89634Y81379D01*
X89392Y81239D01*
X89195Y81042D01*
X89055Y80800D01*
X88983Y80531D01*
Y80251D01*
X89055Y79982D01*
X89195Y79740D01*
X89392Y79543D01*
X89634Y79403D01*
X89903Y79331D01*
X90183D01*
X90452Y79403D01*
X90694Y79543D01*
X90891Y79740D01*
X91031Y79982D01*
X91103Y80251D01*
Y80531D01*
X91031Y80800D01*
X90891Y81042D01*
X90694Y81239D01*
X90452Y81379D01*
X90183Y81451D01*
D02*
G37*
G36*
X9525Y79860D02*
X7897D01*
Y78232D01*
X7922D01*
X8266Y78300D01*
X8589Y78434D01*
X8880Y78629D01*
X9128Y78877D01*
X9323Y79168D01*
X9457Y79491D01*
X9525Y79835D01*
Y79860D01*
D02*
G37*
G36*
X7597D02*
X5969D01*
Y79835D01*
X6037Y79491D01*
X6171Y79168D01*
X6366Y78877D01*
X6614Y78629D01*
X6905Y78434D01*
X7228Y78300D01*
X7572Y78232D01*
X7597D01*
Y79860D01*
D02*
G37*
G36*
X72259Y83358D02*
X72013D01*
X71775Y83294D01*
X71562Y83171D01*
X71388Y82997D01*
X71265Y82784D01*
X71201Y82546D01*
Y82300D01*
X71265Y82062D01*
X71388Y81849D01*
X71562Y81675D01*
X71775Y81552D01*
X71899Y81518D01*
X75756Y77661D01*
X75924Y77533D01*
X76118Y77453D01*
X76327Y77425D01*
X81454D01*
X84138Y74740D01*
X84306Y74612D01*
X84500Y74532D01*
X84709Y74504D01*
X86904D01*
X87015Y74440D01*
X87253Y74376D01*
X87499D01*
X87737Y74440D01*
X87950Y74563D01*
X88124Y74737D01*
X88247Y74950D01*
X88311Y75188D01*
Y75434D01*
X88247Y75672D01*
X88124Y75885D01*
X87950Y76059D01*
X87737Y76182D01*
X87499Y76246D01*
X87253D01*
X87015Y76182D01*
X86904Y76118D01*
X85043D01*
X83838Y77323D01*
X83904Y77437D01*
X83951Y77424D01*
X84197D01*
X84435Y77488D01*
X84648Y77611D01*
X84822Y77785D01*
X84830Y77798D01*
X86515D01*
X86523Y77785D01*
X86697Y77611D01*
X86910Y77488D01*
X87148Y77424D01*
X87394D01*
X87632Y77488D01*
X87845Y77611D01*
X88019Y77785D01*
X88142Y77998D01*
X88206Y78236D01*
Y78482D01*
X88142Y78720D01*
X88019Y78933D01*
X87845Y79107D01*
X87632Y79230D01*
X87394Y79294D01*
X87148D01*
X86910Y79230D01*
X86697Y79107D01*
X86523Y78933D01*
X86515Y78920D01*
X84830D01*
X84822Y78933D01*
X84648Y79107D01*
X84435Y79230D01*
X84197Y79294D01*
X83951D01*
X83713Y79230D01*
X83500Y79107D01*
X83326Y78933D01*
X83203Y78720D01*
X83139Y78482D01*
Y78236D01*
X83152Y78189D01*
X83038Y78123D01*
X82359Y78803D01*
X82191Y78931D01*
X81997Y79011D01*
X81788Y79039D01*
X76661D01*
X73041Y82660D01*
X73007Y82784D01*
X72884Y82997D01*
X72710Y83171D01*
X72497Y83294D01*
X72259Y83358D01*
D02*
G37*
G36*
X90183Y78911D02*
X89903D01*
X89634Y78839D01*
X89392Y78699D01*
X89195Y78502D01*
X89055Y78260D01*
X88983Y77991D01*
Y77711D01*
X89055Y77442D01*
X89195Y77200D01*
X89392Y77003D01*
X89634Y76863D01*
X89903Y76791D01*
X90183D01*
X90452Y76863D01*
X90694Y77003D01*
X90891Y77200D01*
X91031Y77442D01*
X91103Y77711D01*
Y77991D01*
X91031Y78260D01*
X90891Y78502D01*
X90694Y78699D01*
X90452Y78839D01*
X90183Y78911D01*
D02*
G37*
G36*
X91103Y76371D02*
X88983D01*
Y74251D01*
X91103D01*
Y76371D01*
D02*
G37*
G36*
X7927Y76754D02*
X7567D01*
X7215Y76684D01*
X6883Y76546D01*
X6584Y76347D01*
X6330Y76093D01*
X6131Y75794D01*
X5993Y75462D01*
X5923Y75110D01*
Y74750D01*
X5993Y74398D01*
X6131Y74066D01*
X6330Y73767D01*
X6584Y73513D01*
X6883Y73314D01*
X7215Y73176D01*
X7567Y73106D01*
X7927D01*
X8279Y73176D01*
X8611Y73314D01*
X8910Y73513D01*
X9164Y73767D01*
X9363Y74066D01*
X9501Y74398D01*
X9571Y74750D01*
Y75110D01*
X9501Y75462D01*
X9363Y75794D01*
X9164Y76093D01*
X8910Y76347D01*
X8611Y76546D01*
X8279Y76684D01*
X7927Y76754D01*
D02*
G37*
G36*
X81153Y77142D02*
X73897D01*
X73682Y77099D01*
X73501Y76978D01*
X65262Y68740D01*
X65141Y68558D01*
X65098Y68343D01*
Y65907D01*
X65085Y65899D01*
X64911Y65725D01*
X64788Y65512D01*
X64724Y65274D01*
Y65028D01*
X64788Y64790D01*
X64911Y64577D01*
X65085Y64403D01*
X65298Y64280D01*
X65536Y64216D01*
X65782D01*
X66020Y64280D01*
X66233Y64403D01*
X66407Y64577D01*
X66530Y64790D01*
X66594Y65028D01*
Y65274D01*
X66530Y65512D01*
X66407Y65725D01*
X66233Y65899D01*
X66220Y65907D01*
Y68111D01*
X74129Y76020D01*
X74918D01*
X74961Y75893D01*
X74850Y75701D01*
X74786Y75463D01*
Y75217D01*
X74850Y74979D01*
X74973Y74766D01*
X75147Y74592D01*
X75160Y74584D01*
Y70873D01*
X65336Y61049D01*
X65214Y60867D01*
X65172Y60652D01*
Y56567D01*
X45107Y36502D01*
X33905D01*
X33856Y36619D01*
X39729Y42492D01*
X42418D01*
X42633Y42535D01*
X42815Y42656D01*
X52721Y52562D01*
X52842Y52744D01*
X52885Y52959D01*
Y55140D01*
X58184Y60439D01*
X58199Y60435D01*
X58445D01*
X58683Y60499D01*
X58896Y60622D01*
X59070Y60796D01*
X59193Y61009D01*
X59257Y61247D01*
Y61493D01*
X59193Y61731D01*
X59070Y61944D01*
X58896Y62118D01*
X58683Y62241D01*
X58445Y62305D01*
X58199D01*
X57961Y62241D01*
X57748Y62118D01*
X57574Y61944D01*
X57451Y61731D01*
X57387Y61493D01*
Y61247D01*
X57391Y61232D01*
X51927Y55769D01*
X51806Y55587D01*
X51763Y55372D01*
Y53191D01*
X42186Y43614D01*
X39497D01*
X39282Y43571D01*
X39100Y43450D01*
X30451Y34800D01*
X30330Y34618D01*
X30287Y34404D01*
Y25325D01*
X30330Y25110D01*
X30451Y24928D01*
X30744Y24636D01*
X30926Y24514D01*
X30927Y24514D01*
X31323Y24118D01*
Y24007D01*
X31387Y23769D01*
X31510Y23556D01*
X31684Y23382D01*
X31897Y23259D01*
X32135Y23195D01*
X32381D01*
X32619Y23259D01*
X32832Y23382D01*
X33006Y23556D01*
X33129Y23769D01*
X33193Y24007D01*
Y24253D01*
X33129Y24491D01*
X33006Y24704D01*
X32832Y24878D01*
X32619Y25001D01*
X32381Y25065D01*
X32135D01*
X31998Y25028D01*
X31598Y25429D01*
X31416Y25550D01*
X31416Y25550D01*
X31409Y25557D01*
Y34172D01*
X31834Y34597D01*
X31951Y34548D01*
Y29839D01*
X31938Y29831D01*
X31764Y29657D01*
X31641Y29444D01*
X31577Y29206D01*
Y28960D01*
X31641Y28722D01*
X31764Y28509D01*
X31938Y28335D01*
X32151Y28212D01*
X32389Y28148D01*
X32635D01*
X32873Y28212D01*
X33086Y28335D01*
X33260Y28509D01*
X33383Y28722D01*
X33447Y28960D01*
Y29206D01*
X33383Y29444D01*
X33260Y29657D01*
X33086Y29831D01*
X33073Y29839D01*
Y34704D01*
X33749Y35380D01*
X34124D01*
X34177Y35253D01*
X34012Y35088D01*
X33841Y34792D01*
X33752Y34461D01*
Y34119D01*
X33841Y33788D01*
X34012Y33492D01*
X34254Y33250D01*
X34533Y33088D01*
X34542Y33020D01*
X34533Y32952D01*
X34254Y32790D01*
X34012Y32548D01*
X33841Y32252D01*
X33752Y31921D01*
Y31579D01*
X33841Y31248D01*
X34012Y30952D01*
X34254Y30710D01*
X34533Y30548D01*
X34542Y30480D01*
X34533Y30412D01*
X34254Y30250D01*
X34012Y30008D01*
X33841Y29712D01*
X33752Y29381D01*
Y29039D01*
X33841Y28708D01*
X34012Y28412D01*
X34254Y28170D01*
X34533Y28008D01*
X34542Y27940D01*
X34533Y27872D01*
X34254Y27710D01*
X34012Y27468D01*
X33841Y27172D01*
X33752Y26841D01*
Y26499D01*
X33841Y26168D01*
X34012Y25872D01*
X34254Y25630D01*
X34533Y25468D01*
X34542Y25400D01*
X34533Y25332D01*
X34254Y25170D01*
X34012Y24928D01*
X33841Y24632D01*
X33752Y24301D01*
Y23959D01*
X33841Y23628D01*
X34012Y23332D01*
X34254Y23090D01*
X34550Y22919D01*
X34621Y22900D01*
Y22773D01*
X34568Y22759D01*
X34282Y22593D01*
X34049Y22360D01*
X33883Y22074D01*
X33798Y21755D01*
Y21740D01*
X35052D01*
X36306D01*
Y21755D01*
X36221Y22074D01*
X36055Y22360D01*
X35822Y22593D01*
X35536Y22759D01*
X35483Y22773D01*
Y22900D01*
X35554Y22919D01*
X35850Y23090D01*
X36092Y23332D01*
X36263Y23628D01*
X36352Y23959D01*
Y24301D01*
X36263Y24632D01*
X36092Y24928D01*
X35850Y25170D01*
X35571Y25332D01*
X35562Y25400D01*
X35571Y25468D01*
X35850Y25630D01*
X36092Y25872D01*
X36263Y26168D01*
X36352Y26499D01*
Y26841D01*
X36263Y27172D01*
X36092Y27468D01*
X35850Y27710D01*
X35571Y27872D01*
X35562Y27940D01*
X35571Y28008D01*
X35850Y28170D01*
X36092Y28412D01*
X36263Y28708D01*
X36352Y29039D01*
Y29381D01*
X36263Y29712D01*
X36092Y30008D01*
X35850Y30250D01*
X35571Y30412D01*
X35562Y30480D01*
X35571Y30548D01*
X35850Y30710D01*
X36092Y30952D01*
X36263Y31248D01*
X36352Y31579D01*
Y31921D01*
X36263Y32252D01*
X36092Y32548D01*
X35850Y32790D01*
X35571Y32952D01*
X35562Y33020D01*
X35571Y33088D01*
X35850Y33250D01*
X36092Y33492D01*
X36263Y33788D01*
X36352Y34119D01*
Y34461D01*
X36263Y34792D01*
X36092Y35088D01*
X35927Y35253D01*
X35980Y35380D01*
X45339D01*
X45486Y35409D01*
X45548Y35292D01*
X45107Y34851D01*
X38856D01*
X38848Y34864D01*
X38674Y35038D01*
X38461Y35161D01*
X38223Y35225D01*
X37977D01*
X37739Y35161D01*
X37526Y35038D01*
X37352Y34864D01*
X37229Y34651D01*
X37165Y34413D01*
Y34167D01*
X37229Y33929D01*
X37352Y33716D01*
X37526Y33542D01*
X37739Y33419D01*
X37977Y33355D01*
X38223D01*
X38461Y33419D01*
X38674Y33542D01*
X38848Y33716D01*
X38856Y33729D01*
X44951D01*
X44999Y33612D01*
X43571Y32184D01*
X38856D01*
X38848Y32197D01*
X38674Y32371D01*
X38461Y32494D01*
X38223Y32558D01*
X37977D01*
X37739Y32494D01*
X37526Y32371D01*
X37352Y32197D01*
X37229Y31984D01*
X37165Y31746D01*
Y31500D01*
X37229Y31262D01*
X37352Y31049D01*
X37526Y30875D01*
X37739Y30752D01*
X37977Y30688D01*
X38223D01*
X38461Y30752D01*
X38674Y30875D01*
X38848Y31049D01*
X38856Y31062D01*
X43803D01*
X43981Y31098D01*
X44045Y30982D01*
X40040Y26977D01*
X38856D01*
X38848Y26990D01*
X38674Y27164D01*
X38461Y27287D01*
X38223Y27351D01*
X37977D01*
X37739Y27287D01*
X37526Y27164D01*
X37352Y26990D01*
X37229Y26777D01*
X37165Y26539D01*
Y26293D01*
X37229Y26055D01*
X37352Y25842D01*
X37526Y25668D01*
X37739Y25545D01*
X37977Y25481D01*
X38223D01*
X38461Y25545D01*
X38674Y25668D01*
X38848Y25842D01*
X38856Y25855D01*
X40272D01*
X40487Y25898D01*
X40669Y26019D01*
X78074Y63424D01*
X78195Y63606D01*
X78238Y63821D01*
Y66214D01*
X78195Y66429D01*
X78074Y66611D01*
X76623Y68061D01*
X76627Y68076D01*
Y68322D01*
X76563Y68560D01*
X76440Y68773D01*
X76266Y68947D01*
X76053Y69070D01*
X75815Y69134D01*
X75569D01*
X75331Y69070D01*
X75118Y68947D01*
X74944Y68773D01*
X74821Y68560D01*
X74757Y68322D01*
Y68076D01*
X74821Y67838D01*
X74944Y67625D01*
X75118Y67451D01*
X75235Y67383D01*
Y67237D01*
X75118Y67169D01*
X74944Y66995D01*
X74821Y66782D01*
X74757Y66544D01*
Y66298D01*
X74821Y66060D01*
X74944Y65847D01*
X75118Y65673D01*
X75235Y65605D01*
Y65459D01*
X75118Y65391D01*
X74944Y65217D01*
X74821Y65004D01*
X74757Y64766D01*
Y64520D01*
X74761Y64505D01*
X66381Y56125D01*
X66264Y56188D01*
X66293Y56334D01*
Y60420D01*
X76118Y70244D01*
X76239Y70426D01*
X76282Y70641D01*
Y74584D01*
X76295Y74592D01*
X76469Y74766D01*
X76592Y74979D01*
X76656Y75217D01*
Y75463D01*
X76592Y75701D01*
X76481Y75893D01*
X76524Y76020D01*
X80921D01*
X83920Y73021D01*
X83838Y72878D01*
X83774Y72640D01*
Y72394D01*
X83838Y72156D01*
X83961Y71943D01*
X84135Y71769D01*
X84348Y71646D01*
X84586Y71582D01*
X84832D01*
X85070Y71646D01*
X85283Y71769D01*
X85457Y71943D01*
X85580Y72156D01*
X85644Y72394D01*
Y72640D01*
X85580Y72878D01*
X85457Y73091D01*
X85283Y73265D01*
X85081Y73382D01*
X85080Y73387D01*
X84958Y73569D01*
X81550Y76978D01*
X81368Y77099D01*
X81153Y77142D01*
D02*
G37*
G36*
X49299Y70839D02*
Y69746D01*
X50212D01*
Y69796D01*
X50176Y70071D01*
X50070Y70328D01*
X49901Y70548D01*
X49681Y70717D01*
X49424Y70823D01*
X49299Y70839D01*
D02*
G37*
G36*
X48999Y70839D02*
X48874Y70823D01*
X48617Y70717D01*
X48397Y70548D01*
X48228Y70328D01*
X48122Y70071D01*
X48086Y69796D01*
Y69746D01*
X48999D01*
Y70839D01*
D02*
G37*
G36*
X50212Y69446D02*
X49299D01*
Y68353D01*
X49424Y68369D01*
X49681Y68475D01*
X49901Y68644D01*
X50070Y68864D01*
X50176Y69121D01*
X50212Y69396D01*
Y69446D01*
D02*
G37*
G36*
X48999D02*
X48086D01*
Y69396D01*
X48122Y69121D01*
X48228Y68864D01*
X48397Y68644D01*
X48617Y68475D01*
X48874Y68369D01*
X48999Y68353D01*
Y69446D01*
D02*
G37*
G36*
X52789Y70896D02*
X50589D01*
Y68296D01*
X52789D01*
Y70896D01*
D02*
G37*
G36*
X49299Y65378D02*
Y64285D01*
X50212D01*
Y64335D01*
X50176Y64610D01*
X50070Y64867D01*
X49901Y65087D01*
X49681Y65256D01*
X49424Y65362D01*
X49299Y65378D01*
D02*
G37*
G36*
X48999Y65378D02*
X48874Y65362D01*
X48617Y65256D01*
X48397Y65087D01*
X48228Y64867D01*
X48122Y64610D01*
X48086Y64335D01*
Y64285D01*
X48999D01*
Y65378D01*
D02*
G37*
G36*
X50212Y63985D02*
X49299D01*
Y62892D01*
X49424Y62908D01*
X49681Y63014D01*
X49901Y63183D01*
X50070Y63403D01*
X50176Y63660D01*
X50212Y63935D01*
Y63985D01*
D02*
G37*
G36*
X48999D02*
X48086D01*
Y63935D01*
X48122Y63660D01*
X48228Y63403D01*
X48397Y63183D01*
X48617Y63014D01*
X48874Y62908D01*
X48999Y62892D01*
Y63985D01*
D02*
G37*
G36*
X52789Y65435D02*
X50589D01*
Y62835D01*
X52789D01*
Y65435D01*
D02*
G37*
G36*
X90193Y63621D02*
Y62761D01*
X91053D01*
X90988Y63002D01*
X90854Y63234D01*
X90666Y63422D01*
X90434Y63556D01*
X90193Y63621D01*
D02*
G37*
G36*
X89893D02*
X89652Y63556D01*
X89420Y63422D01*
X89232Y63234D01*
X89098Y63002D01*
X89033Y62761D01*
X89893D01*
Y63621D01*
D02*
G37*
G36*
X65782Y64054D02*
X65536D01*
X65298Y63990D01*
X65085Y63867D01*
X64911Y63693D01*
X64903Y63680D01*
X56134D01*
X55919Y63637D01*
X55737Y63516D01*
X39519Y47297D01*
X18034D01*
X17819Y47254D01*
X17637Y47133D01*
X15732Y45228D01*
X15611Y45046D01*
X15568Y44831D01*
Y44190D01*
X15555Y44182D01*
X15381Y44008D01*
X15258Y43795D01*
X15194Y43557D01*
Y43311D01*
X15258Y43073D01*
X15381Y42860D01*
X15555Y42686D01*
X15768Y42563D01*
X16006Y42499D01*
X16252D01*
X16490Y42563D01*
X16703Y42686D01*
X16877Y42860D01*
X17000Y43073D01*
X17064Y43311D01*
Y43557D01*
X17000Y43795D01*
X16877Y44008D01*
X16703Y44182D01*
X16690Y44190D01*
Y44599D01*
X18266Y46175D01*
X39751D01*
X39966Y46218D01*
X40148Y46339D01*
X49158Y55350D01*
X49272Y55284D01*
X49232Y55136D01*
Y54846D01*
X49307Y54566D01*
X49452Y54316D01*
X49657Y54111D01*
X49907Y53966D01*
X50187Y53891D01*
X50477D01*
X50757Y53966D01*
X51007Y54111D01*
X51212Y54316D01*
X51357Y54566D01*
X51432Y54846D01*
Y55136D01*
X51357Y55416D01*
X51212Y55666D01*
X51007Y55871D01*
X50757Y56016D01*
X50477Y56091D01*
X50187D01*
X50039Y56051D01*
X49973Y56165D01*
X56366Y62558D01*
X64903D01*
X64911Y62545D01*
X65085Y62371D01*
X65298Y62248D01*
X65536Y62184D01*
X65782D01*
X66020Y62248D01*
X66233Y62371D01*
X66407Y62545D01*
X66530Y62758D01*
X66594Y62996D01*
Y63242D01*
X66530Y63480D01*
X66407Y63693D01*
X66233Y63867D01*
X66020Y63990D01*
X65782Y64054D01*
D02*
G37*
G36*
X91053Y62461D02*
X90193D01*
Y61601D01*
X90434Y61666D01*
X90666Y61800D01*
X90854Y61988D01*
X90988Y62220D01*
X91053Y62461D01*
D02*
G37*
G36*
X89893D02*
X89033D01*
X89098Y62220D01*
X89232Y61988D01*
X89420Y61800D01*
X89652Y61666D01*
X89893Y61601D01*
Y62461D01*
D02*
G37*
G36*
X25550Y61840D02*
Y61110D01*
X26280D01*
X26228Y61303D01*
X26111Y61506D01*
X25946Y61671D01*
X25743Y61788D01*
X25550Y61840D01*
D02*
G37*
G36*
X25250D02*
X25057Y61788D01*
X24854Y61671D01*
X24689Y61506D01*
X24572Y61303D01*
X24520Y61110D01*
X25250D01*
Y61840D01*
D02*
G37*
G36*
X13612D02*
Y61110D01*
X14342D01*
X14290Y61303D01*
X14173Y61506D01*
X14008Y61671D01*
X13805Y61788D01*
X13612Y61840D01*
D02*
G37*
G36*
X13312D02*
X13119Y61788D01*
X12916Y61671D01*
X12751Y61506D01*
X12634Y61303D01*
X12582Y61110D01*
X13312D01*
Y61840D01*
D02*
G37*
G36*
X3706D02*
Y61110D01*
X4436D01*
X4384Y61303D01*
X4267Y61506D01*
X4102Y61671D01*
X3899Y61788D01*
X3706Y61840D01*
D02*
G37*
G36*
X3406D02*
X3213Y61788D01*
X3010Y61671D01*
X2845Y61506D01*
X2728Y61303D01*
X2676Y61110D01*
X3406D01*
Y61840D01*
D02*
G37*
G36*
X26280Y60810D02*
X25550D01*
Y60080D01*
X25743Y60132D01*
X25946Y60249D01*
X26111Y60414D01*
X26228Y60617D01*
X26280Y60810D01*
D02*
G37*
G36*
X25250D02*
X24520D01*
X24572Y60617D01*
X24689Y60414D01*
X24854Y60249D01*
X25057Y60132D01*
X25250Y60080D01*
Y60810D01*
D02*
G37*
G36*
X14342D02*
X13612D01*
Y60080D01*
X13805Y60132D01*
X14008Y60249D01*
X14173Y60414D01*
X14290Y60617D01*
X14342Y60810D01*
D02*
G37*
G36*
X13312D02*
X12582D01*
X12634Y60617D01*
X12751Y60414D01*
X12916Y60249D01*
X13119Y60132D01*
X13312Y60080D01*
Y60810D01*
D02*
G37*
G36*
X4436D02*
X3706D01*
Y60080D01*
X3899Y60132D01*
X4102Y60249D01*
X4267Y60414D01*
X4384Y60617D01*
X4436Y60810D01*
D02*
G37*
G36*
X3406D02*
X2676D01*
X2728Y60617D01*
X2845Y60414D01*
X3010Y60249D01*
X3213Y60132D01*
X3406Y60080D01*
Y60810D01*
D02*
G37*
G36*
X50936Y61780D02*
X50689D01*
X50452Y61717D01*
X50238Y61594D01*
X50064Y61420D01*
X49941Y61206D01*
X49877Y60969D01*
Y60722D01*
X49881Y60707D01*
X43964Y54790D01*
X37713D01*
X37705Y54803D01*
X37531Y54977D01*
X37318Y55100D01*
X37080Y55164D01*
X36834D01*
X36596Y55100D01*
X36383Y54977D01*
X36209Y54803D01*
X36086Y54590D01*
X36022Y54352D01*
Y54106D01*
X36086Y53868D01*
X36209Y53655D01*
X36383Y53481D01*
X36596Y53358D01*
X36834Y53294D01*
X37080D01*
X37318Y53358D01*
X37531Y53481D01*
X37705Y53655D01*
X37713Y53668D01*
X44196D01*
X44411Y53711D01*
X44593Y53832D01*
X50674Y59914D01*
X50689Y59910D01*
X50936D01*
X51173Y59974D01*
X51387Y60097D01*
X51561Y60271D01*
X51684Y60485D01*
X51747Y60722D01*
Y60969D01*
X51684Y61206D01*
X51561Y61420D01*
X51387Y61594D01*
X51173Y61717D01*
X50936Y61780D01*
D02*
G37*
G36*
X91103Y61131D02*
X88983D01*
Y59011D01*
X91103D01*
Y61131D01*
D02*
G37*
G36*
X44811Y76389D02*
X44565D01*
X44327Y76325D01*
X44114Y76202D01*
X43940Y76028D01*
X43817Y75815D01*
X43753Y75577D01*
Y75331D01*
X43817Y75093D01*
X43889Y74968D01*
Y57736D01*
X43833Y57638D01*
X43769Y57400D01*
Y57154D01*
X43833Y56916D01*
X43956Y56703D01*
X44130Y56529D01*
X44343Y56406D01*
X44581Y56342D01*
X44827D01*
X45065Y56406D01*
X45278Y56529D01*
X45452Y56703D01*
X45575Y56916D01*
X45639Y57154D01*
Y57400D01*
X45575Y57638D01*
X45503Y57763D01*
Y74995D01*
X45559Y75093D01*
X45623Y75331D01*
Y75577D01*
X45559Y75815D01*
X45436Y76028D01*
X45262Y76202D01*
X45049Y76325D01*
X44811Y76389D01*
D02*
G37*
G36*
X77212Y57704D02*
X76966D01*
X76728Y57640D01*
X76515Y57517D01*
X76341Y57343D01*
X76218Y57130D01*
X76154Y56892D01*
Y56646D01*
X76158Y56631D01*
X39138Y19611D01*
X38856D01*
X38848Y19624D01*
X38674Y19798D01*
X38461Y19921D01*
X38223Y19985D01*
X37977D01*
X37739Y19921D01*
X37526Y19798D01*
X37352Y19624D01*
X37229Y19411D01*
X37165Y19173D01*
Y18927D01*
X37229Y18689D01*
X37352Y18476D01*
X37526Y18302D01*
X37739Y18179D01*
X37977Y18115D01*
X38223D01*
X38461Y18179D01*
X38674Y18302D01*
X38848Y18476D01*
X38856Y18489D01*
X39370D01*
X39585Y18532D01*
X39767Y18653D01*
X76951Y55838D01*
X76966Y55834D01*
X77212D01*
X77450Y55898D01*
X77663Y56021D01*
X77837Y56195D01*
X77960Y56408D01*
X78024Y56646D01*
Y56892D01*
X77960Y57130D01*
X77837Y57343D01*
X77663Y57517D01*
X77450Y57640D01*
X77212Y57704D01*
D02*
G37*
G36*
X55477Y56091D02*
X55187D01*
X54907Y56016D01*
X54657Y55871D01*
X54452Y55666D01*
X54307Y55416D01*
X54232Y55136D01*
Y54846D01*
X54307Y54566D01*
X54452Y54316D01*
X54657Y54111D01*
X54907Y53966D01*
X55187Y53891D01*
X55477D01*
X55757Y53966D01*
X56007Y54111D01*
X56212Y54316D01*
X56357Y54566D01*
X56432Y54846D01*
Y55136D01*
X56357Y55416D01*
X56212Y55666D01*
X56007Y55871D01*
X55757Y56016D01*
X55477Y56091D01*
D02*
G37*
G36*
X20697Y49576D02*
X20451D01*
X20213Y49512D01*
X20102Y49448D01*
X15839D01*
X15728Y49512D01*
X15490Y49576D01*
X15244D01*
X15006Y49512D01*
X14793Y49389D01*
X14619Y49215D01*
X14496Y49002D01*
X14432Y48764D01*
Y48518D01*
X14496Y48280D01*
X14619Y48067D01*
X14793Y47893D01*
X15006Y47770D01*
X15244Y47706D01*
X15490D01*
X15728Y47770D01*
X15839Y47834D01*
X20102D01*
X20213Y47770D01*
X20451Y47706D01*
X20697D01*
X20935Y47770D01*
X21148Y47893D01*
X21322Y48067D01*
X21445Y48280D01*
X21509Y48518D01*
Y48764D01*
X21445Y49002D01*
X21322Y49215D01*
X21148Y49389D01*
X20935Y49512D01*
X20697Y49576D01*
D02*
G37*
G36*
X19558Y45602D02*
X19327D01*
Y44727D01*
X20563D01*
X20548Y44842D01*
X20445Y45089D01*
X20283Y45302D01*
X20070Y45464D01*
X19823Y45567D01*
X19558Y45602D01*
D02*
G37*
G36*
X19027D02*
X18796D01*
X18531Y45567D01*
X18284Y45464D01*
X18071Y45302D01*
X17909Y45089D01*
X17806Y44842D01*
X17791Y44727D01*
X19027D01*
Y45602D01*
D02*
G37*
G36*
X20563Y44427D02*
X19327D01*
Y43552D01*
X19558D01*
X19823Y43587D01*
X20070Y43690D01*
X20283Y43852D01*
X20445Y44065D01*
X20548Y44312D01*
X20563Y44427D01*
D02*
G37*
G36*
X19027D02*
X17791D01*
X17806Y44312D01*
X17909Y44065D01*
X18071Y43852D01*
X18284Y43690D01*
X18531Y43587D01*
X18796Y43552D01*
X19027D01*
Y44427D01*
D02*
G37*
G36*
X11938Y45648D02*
X11176D01*
X10899Y45612D01*
X10640Y45505D01*
X10419Y45334D01*
X10248Y45113D01*
X10141Y44854D01*
X10105Y44577D01*
X10141Y44300D01*
X10248Y44041D01*
X10419Y43820D01*
X10640Y43649D01*
X10899Y43542D01*
X11176Y43506D01*
X11938D01*
X12215Y43542D01*
X12474Y43649D01*
X12695Y43820D01*
X12866Y44041D01*
X12973Y44300D01*
X13009Y44577D01*
X12973Y44854D01*
X12866Y45113D01*
X12695Y45334D01*
X12474Y45505D01*
X12215Y45612D01*
X11938Y45648D01*
D02*
G37*
G36*
X20620Y43099D02*
X17734D01*
Y40975D01*
X20620D01*
Y43099D01*
D02*
G37*
G36*
X11938Y43108D02*
X11176D01*
X10899Y43072D01*
X10640Y42965D01*
X10419Y42794D01*
X10248Y42573D01*
X10141Y42314D01*
X10105Y42037D01*
X10141Y41760D01*
X10248Y41501D01*
X10419Y41280D01*
X10640Y41109D01*
X10899Y41002D01*
X11176Y40966D01*
X11938D01*
X12215Y41002D01*
X12474Y41109D01*
X12695Y41280D01*
X12866Y41501D01*
X12973Y41760D01*
X13009Y42037D01*
X12973Y42314D01*
X12866Y42573D01*
X12695Y42794D01*
X12474Y42965D01*
X12215Y43072D01*
X11938Y43108D01*
D02*
G37*
G36*
X23110Y36114D02*
X22864D01*
X22626Y36050D01*
X22413Y35927D01*
X22239Y35753D01*
X22231Y35740D01*
X14091D01*
X14083Y35753D01*
X13909Y35927D01*
X13696Y36050D01*
X13458Y36114D01*
X13212D01*
X12974Y36050D01*
X12761Y35927D01*
X12587Y35753D01*
X12464Y35540D01*
X12400Y35302D01*
Y35056D01*
X12464Y34818D01*
X12587Y34605D01*
X12761Y34431D01*
X12974Y34308D01*
X13212Y34244D01*
X13458D01*
X13696Y34308D01*
X13909Y34431D01*
X14083Y34605D01*
X14091Y34618D01*
X22231D01*
X22239Y34605D01*
X22413Y34431D01*
X22626Y34308D01*
X22864Y34244D01*
X23110D01*
X23348Y34308D01*
X23561Y34431D01*
X23735Y34605D01*
X23858Y34818D01*
X23922Y35056D01*
Y35302D01*
X23858Y35540D01*
X23735Y35753D01*
X23561Y35927D01*
X23348Y36050D01*
X23110Y36114D01*
D02*
G37*
G36*
X18468Y34463D02*
X18108D01*
X17756Y34393D01*
X17424Y34255D01*
X17125Y34056D01*
X16871Y33802D01*
X16672Y33503D01*
X16534Y33171D01*
X16464Y32819D01*
Y32459D01*
X16534Y32107D01*
X16672Y31775D01*
X16871Y31476D01*
X17125Y31222D01*
X17424Y31023D01*
X17756Y30885D01*
X18108Y30815D01*
X18468D01*
X18820Y30885D01*
X19152Y31023D01*
X19451Y31222D01*
X19705Y31476D01*
X19904Y31775D01*
X20042Y32107D01*
X20112Y32459D01*
Y32819D01*
X20042Y33171D01*
X19904Y33503D01*
X19705Y33802D01*
X19451Y34056D01*
X19152Y34255D01*
X18820Y34393D01*
X18468Y34463D01*
D02*
G37*
G36*
X24564Y31923D02*
X24204D01*
X23852Y31853D01*
X23520Y31715D01*
X23221Y31516D01*
X22967Y31262D01*
X22768Y30963D01*
X22630Y30631D01*
X22560Y30279D01*
Y29919D01*
X22630Y29567D01*
X22768Y29235D01*
X22967Y28936D01*
X23221Y28682D01*
X23520Y28483D01*
X23852Y28345D01*
X24204Y28275D01*
X24564D01*
X24916Y28345D01*
X25248Y28483D01*
X25547Y28682D01*
X25801Y28936D01*
X26000Y29235D01*
X26138Y29567D01*
X26208Y29919D01*
Y30279D01*
X26138Y30631D01*
X26000Y30963D01*
X25801Y31262D01*
X25547Y31516D01*
X25248Y31715D01*
X24916Y31853D01*
X24564Y31923D01*
D02*
G37*
G36*
X12372D02*
X12012D01*
X11660Y31853D01*
X11328Y31715D01*
X11029Y31516D01*
X10775Y31262D01*
X10576Y30963D01*
X10438Y30631D01*
X10368Y30279D01*
Y29919D01*
X10438Y29567D01*
X10576Y29235D01*
X10775Y28936D01*
X11029Y28682D01*
X11328Y28483D01*
X11660Y28345D01*
X12012Y28275D01*
X12372D01*
X12724Y28345D01*
X13056Y28483D01*
X13355Y28682D01*
X13609Y28936D01*
X13808Y29235D01*
X13946Y29567D01*
X14016Y29919D01*
Y30279D01*
X13946Y30631D01*
X13808Y30963D01*
X13609Y31262D01*
X13355Y31516D01*
X13056Y31715D01*
X12724Y31853D01*
X12372Y31923D01*
D02*
G37*
G36*
X32635Y17572D02*
X32389D01*
X32151Y17508D01*
X31938Y17385D01*
X31764Y17211D01*
X31756Y17198D01*
X28569D01*
X28561Y17211D01*
X28387Y17385D01*
X28174Y17508D01*
X27936Y17572D01*
X27690D01*
X27452Y17508D01*
X27239Y17385D01*
X27065Y17211D01*
X26942Y16998D01*
X26878Y16760D01*
Y16514D01*
X26942Y16276D01*
X27065Y16063D01*
X27239Y15889D01*
X27452Y15766D01*
X27690Y15702D01*
X27936D01*
X28174Y15766D01*
X28387Y15889D01*
X28561Y16063D01*
X28569Y16076D01*
X31756D01*
X31764Y16063D01*
X31938Y15889D01*
X32151Y15766D01*
X32389Y15702D01*
X32635D01*
X32873Y15766D01*
X33086Y15889D01*
X33260Y16063D01*
X33383Y16276D01*
X33447Y16514D01*
Y16760D01*
X33383Y16998D01*
X33260Y17211D01*
X33086Y17385D01*
X32873Y17508D01*
X32635Y17572D01*
D02*
G37*
G36*
X24564Y19731D02*
X24204D01*
X23852Y19661D01*
X23520Y19523D01*
X23221Y19324D01*
X22967Y19070D01*
X22768Y18771D01*
X22630Y18439D01*
X22560Y18087D01*
Y17727D01*
X22630Y17375D01*
X22768Y17043D01*
X22967Y16744D01*
X23221Y16490D01*
X23520Y16291D01*
X23852Y16153D01*
X24204Y16083D01*
X24564D01*
X24916Y16153D01*
X25248Y16291D01*
X25547Y16490D01*
X25801Y16744D01*
X26000Y17043D01*
X26138Y17375D01*
X26208Y17727D01*
Y18087D01*
X26138Y18439D01*
X26000Y18771D01*
X25801Y19070D01*
X25547Y19324D01*
X25248Y19523D01*
X24916Y19661D01*
X24564Y19731D01*
D02*
G37*
G36*
X12372D02*
X12012D01*
X11660Y19661D01*
X11328Y19523D01*
X11029Y19324D01*
X10775Y19070D01*
X10576Y18771D01*
X10438Y18439D01*
X10368Y18087D01*
Y17727D01*
X10438Y17375D01*
X10576Y17043D01*
X10775Y16744D01*
X11029Y16490D01*
X11328Y16291D01*
X11660Y16153D01*
X12012Y16083D01*
X12372D01*
X12724Y16153D01*
X13056Y16291D01*
X13355Y16490D01*
X13609Y16744D01*
X13808Y17043D01*
X13946Y17375D01*
X14016Y17727D01*
Y18087D01*
X13946Y18439D01*
X13808Y18771D01*
X13609Y19070D01*
X13355Y19324D01*
X13056Y19523D01*
X12724Y19661D01*
X12372Y19731D01*
D02*
G37*
G36*
X36306Y21440D02*
X35052D01*
X33798D01*
Y21425D01*
X33883Y21106D01*
X34049Y20820D01*
X34282Y20587D01*
X34568Y20421D01*
X34621Y20407D01*
Y20280D01*
X34550Y20261D01*
X34254Y20090D01*
X34012Y19848D01*
X33841Y19552D01*
X33752Y19221D01*
Y18879D01*
X33841Y18548D01*
X34012Y18252D01*
X34254Y18010D01*
X34380Y17937D01*
X34346Y17810D01*
X33752D01*
Y15210D01*
X36352D01*
Y17810D01*
X35758D01*
X35724Y17937D01*
X35850Y18010D01*
X36092Y18252D01*
X36263Y18548D01*
X36352Y18879D01*
Y19221D01*
X36263Y19552D01*
X36092Y19848D01*
X35850Y20090D01*
X35554Y20261D01*
X35483Y20280D01*
Y20407D01*
X35536Y20421D01*
X35822Y20587D01*
X36055Y20820D01*
X36221Y21106D01*
X36306Y21425D01*
Y21440D01*
D02*
G37*
G36*
X12875Y9525D02*
X12850D01*
Y7897D01*
X14478D01*
Y7922D01*
X14410Y8266D01*
X14276Y8589D01*
X14081Y8880D01*
X13833Y9128D01*
X13542Y9323D01*
X13219Y9457D01*
X12875Y9525D01*
D02*
G37*
G36*
X12550D02*
X12525D01*
X12181Y9457D01*
X11858Y9323D01*
X11567Y9128D01*
X11319Y8880D01*
X11124Y8589D01*
X10990Y8266D01*
X10922Y7922D01*
Y7897D01*
X12550D01*
Y9525D01*
D02*
G37*
G36*
X14478Y7597D02*
X12850D01*
Y5969D01*
X12875D01*
X13219Y6037D01*
X13542Y6171D01*
X13833Y6366D01*
X14081Y6614D01*
X14276Y6905D01*
X14410Y7228D01*
X14478Y7572D01*
Y7597D01*
D02*
G37*
G36*
X12550D02*
X10922D01*
Y7572D01*
X10990Y7228D01*
X11124Y6905D01*
X11319Y6614D01*
X11567Y6366D01*
X11858Y6171D01*
X12181Y6037D01*
X12525Y5969D01*
X12550D01*
Y7597D01*
D02*
G37*
G36*
X17960Y9571D02*
X17600D01*
X17248Y9501D01*
X16916Y9363D01*
X16617Y9164D01*
X16363Y8910D01*
X16164Y8611D01*
X16026Y8279D01*
X15956Y7927D01*
Y7567D01*
X16026Y7215D01*
X16164Y6883D01*
X16363Y6584D01*
X16617Y6330D01*
X16916Y6131D01*
X17248Y5993D01*
X17600Y5923D01*
X17960D01*
X18312Y5993D01*
X18644Y6131D01*
X18943Y6330D01*
X19197Y6584D01*
X19396Y6883D01*
X19534Y7215D01*
X19604Y7567D01*
Y7927D01*
X19534Y8279D01*
X19396Y8611D01*
X19197Y8910D01*
X18943Y9164D01*
X18644Y9363D01*
X18312Y9501D01*
X17960Y9571D01*
D02*
G37*
G36*
X94211Y4294D02*
X94188D01*
X93849Y4227D01*
X93530Y4094D01*
X93243Y3902D01*
X92999Y3658D01*
X92807Y3371D01*
X92674Y3052D01*
X92607Y2713D01*
Y2690D01*
X94211D01*
Y4294D01*
D02*
G37*
G36*
X2713D02*
X2690D01*
Y2690D01*
X4294D01*
Y2713D01*
X4227Y3052D01*
X4094Y3371D01*
X3902Y3658D01*
X3658Y3902D01*
X3371Y4094D01*
X3052Y4227D01*
X2713Y4294D01*
D02*
G37*
%LPD*%
D62*
X46990Y74041D02*
Y84328D01*
X53848Y91186D01*
X44196Y54229D02*
X50812Y60845D01*
X38100Y34290D02*
X45339D01*
X38100Y31623D02*
X43803D01*
X74706Y62526D01*
X75251D01*
X45339Y34290D02*
X75692Y64643D01*
X27813Y16637D02*
X32512D01*
X36957Y54229D02*
X44196D01*
X18034Y46736D02*
X39751D01*
X56134Y63119D02*
X65659D01*
X39751Y46736D02*
X56134Y63119D01*
X65659Y65151D02*
Y68343D01*
X73897Y76581D01*
X52324Y55372D02*
X58322Y61370D01*
X73897Y76581D02*
X81153D01*
X84562Y73172D01*
Y72664D02*
Y73172D01*
Y72664D02*
X84709Y72517D01*
X39497Y43053D02*
X42418D01*
X52324Y52959D01*
Y55372D01*
X16129Y44831D02*
X18034Y46736D01*
X16129Y43434D02*
Y44831D01*
X30848Y25325D02*
Y34404D01*
X39497Y43053D01*
X31141Y25032D02*
X31201D01*
X30848Y25325D02*
X31141Y25032D01*
X31201D02*
X32104Y24130D01*
X32512Y29083D02*
Y34937D01*
X33516Y35941D01*
X32104Y24130D02*
X32258D01*
X33516Y35941D02*
X45339D01*
X65732Y56334D01*
Y60652D01*
X75721Y70641D02*
Y75340D01*
X65732Y60652D02*
X75721Y70641D01*
X75692Y68199D02*
X77677Y66214D01*
X38100Y26416D02*
X40272D01*
X77677Y63821D01*
Y66214D01*
X75692Y66421D02*
X76877Y65236D01*
X38100Y19050D02*
X39370D01*
X77089Y56769D01*
X75251Y62526D02*
X76877Y64152D01*
Y65236D01*
X13335Y35179D02*
X22987D01*
X84074Y78359D02*
X87271D01*
X84074Y80391D02*
X87249D01*
D74*
X3556Y60960D02*
X13462D01*
X25400D01*
D75*
X49181Y69596D02*
Y81718D01*
X59690Y93980D02*
X86233D01*
X49181Y81718D02*
X53772Y86309D01*
Y88062D02*
X59690Y93980D01*
X53772Y86309D02*
Y88062D01*
X44696Y57285D02*
Y75446D01*
Y57285D02*
X44704Y57277D01*
X44688Y75454D02*
X44696Y75446D01*
X84709Y75311D02*
X87376D01*
X76327Y78232D02*
X81788D01*
X84709Y75311D01*
X72136Y82423D02*
X76327Y78232D01*
X15367Y48641D02*
X20574D01*
D77*
X35052Y16510D02*
D03*
D78*
Y19050D02*
D03*
Y21590D02*
D03*
Y24130D02*
D03*
Y26670D02*
D03*
Y29210D02*
D03*
Y31750D02*
D03*
Y34290D02*
D03*
D79*
X51689Y69596D02*
D03*
Y64135D02*
D03*
D80*
X49149Y69596D02*
D03*
Y64135D02*
D03*
D81*
X60223Y91084D02*
D03*
X53772Y86309D02*
D03*
X53848Y91186D02*
D03*
X60071Y86233D02*
D03*
X84531Y86284D02*
D03*
X78308Y91237D02*
D03*
X78232Y86360D02*
D03*
X84684Y91135D02*
D03*
D82*
X90043Y82931D02*
D03*
Y80391D02*
D03*
Y77851D02*
D03*
Y62611D02*
D03*
D83*
Y75311D02*
D03*
Y60071D02*
D03*
D84*
X50332Y54991D02*
D03*
X55332D02*
D03*
D85*
X24384Y30099D02*
D03*
X12192Y17907D02*
D03*
X18288Y32639D02*
D03*
X24384Y17907D02*
D03*
X12192Y30099D02*
D03*
X17780Y7747D02*
D03*
X12700D02*
D03*
X7747Y74930D02*
D03*
Y80010D02*
D03*
D86*
X19177Y42037D02*
D03*
D87*
Y44577D02*
D03*
X11557D02*
D03*
Y42037D02*
D03*
D88*
X2540Y94361D02*
D03*
X94361Y94234D02*
D03*
Y2540D02*
D03*
X2540D02*
D03*
D89*
X46990Y74041D02*
D03*
X50812Y60845D02*
D03*
X27813Y16637D02*
D03*
X32512D02*
D03*
X36957Y54229D02*
D03*
X44704Y57277D02*
D03*
X65659Y65151D02*
D03*
Y63119D02*
D03*
X58322Y61370D02*
D03*
X72136Y82423D02*
D03*
X87376Y75311D02*
D03*
X3556Y60960D02*
D03*
X86233Y93980D02*
D03*
X25400Y60960D02*
D03*
X13462D02*
D03*
X44688Y75454D02*
D03*
X16129Y43434D02*
D03*
X32512Y29083D02*
D03*
X32258Y24130D02*
D03*
X75692Y68199D02*
D03*
Y66421D02*
D03*
X77089Y56769D02*
D03*
X38100Y26416D02*
D03*
Y19050D02*
D03*
Y31623D02*
D03*
Y34290D02*
D03*
X84709Y72517D02*
D03*
X75692Y64643D02*
D03*
X75721Y75340D02*
D03*
X20574Y48641D02*
D03*
X15367D02*
D03*
X22987Y35179D02*
D03*
X13335D02*
D03*
X84074Y78359D02*
D03*
Y80391D02*
D03*
X87271Y78359D02*
D03*
X87249Y80391D02*
D03*
M02*
